<svg xmlns="http://www.w3.org/2000/svg" width="180.349" height="220.864" viewBox="0 0 180.349 220.864">
  <g id="SSS_rank" transform="translate(-1574.49 -230.069)">
    <g id="Shape_-77" data-name="Shape -77" transform="translate(1696.562 139.122) rotate(34)">
      <path id="Path_21858" data-name="Path 21858" d="M140.889,316.734l6.389-34.655-.535-.968-.035-.061L140,317.625Z" transform="translate(-95.668 -138.999)" fill="#fb743e"/>
      <path id="Path_21859" data-name="Path 21859" d="M131.62,311.332l1.113-1.112L139.8,271.5l-.455-.825-.264-.475Z" transform="translate(-89.393 -130.602)" fill="#fb743e"/>
      <path id="Path_21860" data-name="Path 21860" d="M120.94,303.167l1.427-1.429,7.9-43.865-.588-1.065-.349-.628Z" transform="translate(-81.397 -119.751)" fill="#fb743e"/>
      <path id="Path_21861" data-name="Path 21861" d="M106.81,292.151l1.907-1.906,8.947-50.591-.616-1.112-.653-1.182Z" transform="translate(-70.817 -105.186)" fill="#fb743e"/>
      <path id="Path_21862" data-name="Path 21862" d="M89.983,273.818l10.311-59.753-1.819-3.285-11.155,65.7Z" transform="translate(-56.224 -84.615)" fill="#fb743e"/>
      <path id="Path_21863" data-name="Path 21863" d="M71.931,170.34,58.62,252.392l3.985-3.985L74.75,175.438Z" transform="translate(-34.735 -53.317)" fill="#fb743e"/>
      <path id="Path_21864" data-name="Path 21864" d="M28.581,101.46,12.23,210.743l6.608-6.608,14.7-93.723Z" transform="translate(0 -0.008)" fill="#fb743e"/>
      <path id="Path_21865" data-name="Path 21865" d="M166.7,281.05l.57,1.029,27.931,27.08.827.778.543.28.558.289Z" transform="translate(-115.66 -138.999)" fill="#fb743e"/>
      <path id="Path_21866" data-name="Path 21866" d="M161.3,270.2l.719,1.3,32.373,31.283.209.109,1.281.662Z" transform="translate(-111.616 -130.602)" fill="#fb743e"/>
      <path id="Path_21867" data-name="Path 21867" d="M155.257,257.873l37.114,35.711,1.153.6.847.439L154.32,256.18Z" transform="translate(-106.39 -119.751)" fill="#fb743e"/>
      <path id="Path_21868" data-name="Path 21868" d="M146.229,239.655l43.5,41.625,1.128.583,1.7.877L144.96,237.36Z" transform="translate(-99.382 -105.186)" fill="#fb743e"/>
      <path id="Path_21869" data-name="Path 21869" d="M190.372,266.165,131.72,210.78l1.819,3.285,52.544,49.885Z" transform="translate(-89.468 -84.615)" fill="#fb743e"/>
      <path id="Path_21870" data-name="Path 21870" d="M111.6,170.34l2.819,5.1L180.794,237.7l2.96,1.53,4.311,2.229Z" transform="translate(-74.403 -53.317)" fill="#fb743e"/>
      <path id="Path_21871" data-name="Path 21871" d="M172.488,193.365l14.964,7.734L77.31,101.45l4.952,8.954Z" transform="translate(-48.729)" fill="#fb743e"/>
      <path id="Path_21872" data-name="Path 21872" d="M179.933,415.1l-1.49-.771-37.554,5.554-.889.891Z" transform="translate(-95.668 -242.149)" fill="#fb743e"/>
      <path id="Path_21873" data-name="Path 21873" d="M132.733,427.448l-1.113,1.112,45.757-5.855-2-1.035Z" transform="translate(-89.393 -247.83)" fill="#fb743e"/>
      <path id="Path_21874" data-name="Path 21874" d="M171.74,431.64l-49.373,5.893-1.427,1.429,53.629-5.862Z" transform="translate(-81.397 -255.546)" fill="#fb743e"/>
      <path id="Path_21875" data-name="Path 21875" d="M167.454,445.98l-58.7,5.706L106.84,453.6l64.9-5.407Z" transform="translate(-70.839 -266.645)" fill="#fb743e"/>
      <path id="Path_21876" data-name="Path 21876" d="M162.612,468.32l-72.639,4.824L87.32,475.8l82.565-3.721Z" transform="translate(-56.224 -283.934)" fill="#fb743e"/>
      <path id="Path_21877" data-name="Path 21877" d="M173.456,515.774l-14.964-7.734L62.6,509.765,58.62,513.75Z" transform="translate(-34.735 -314.675)" fill="#fb743e"/>
      <path id="Path_21878" data-name="Path 21878" d="M207.083,587.954l-43.891-22.685L18.838,555.65l-6.608,6.608Z" transform="translate(0 -351.522)" fill="#fb743e"/>
    </g>
    <text id="SSS" transform="translate(1592 331)" stroke="#fff" stroke-width="3" font-size="62" font-family="SegoeUI-Bold, Segoe UI" font-weight="700"><tspan x="0" y="0">SSS</tspan></text>
  </g>
</svg>
