<svg xmlns="http://www.w3.org/2000/svg" xmlns:xlink="http://www.w3.org/1999/xlink" width="1920" height="1213" viewBox="0 0 1920 1213">
  <defs>
    <linearGradient id="linear-gradient" x1="0.174" y1="0.022" x2="0.742" y2="1.035" gradientUnits="objectBoundingBox">
      <stop offset="0" stop-color="#889097"/>
      <stop offset="1" stop-color="#64717c"/>
    </linearGradient>
    <linearGradient id="linear-gradient-2" x1="0.5" y1="0.996" x2="0.5" y2="-0.011" gradientUnits="objectBoundingBox">
      <stop offset="0" stop-color="#4f5458"/>
      <stop offset="1" stop-color="#323538"/>
    </linearGradient>
    <linearGradient id="linear-gradient-3" x1="1.008" y1="0.5" x2="-0.008" y2="0.5" gradientUnits="objectBoundingBox">
      <stop offset="0" stop-color="#ffe299"/>
      <stop offset="0.226" stop-color="#ffdf8f"/>
      <stop offset="0.604" stop-color="#ffd776"/>
      <stop offset="1" stop-color="#ffcd54"/>
    </linearGradient>
    <linearGradient id="linear-gradient-4" y1="4.449" y2="-0.004" xlink:href="#linear-gradient-2"/>
    <linearGradient id="linear-gradient-5" y1="0.898" y2="-8.009" xlink:href="#linear-gradient-2"/>
    <clipPath id="clip-background">
      <rect width="1920" height="1213"/>
    </clipPath>
  </defs>
  <g id="background" clip-path="url(#clip-background)">
    <rect width="1920" height="1213" fill="#212121"/>
    <g id="icons8-futurama-bender-144" transform="matrix(0.891, 0.454, -0.454, 0.891, 233.422, 50.552)" opacity="0.5">
      <path id="Path_21881" data-name="Path 21881" d="M215.651,117.151V73.31A68.5,68.5,0,0,0,147.1,4.875H78.55A68.5,68.5,0,0,0,10,73.31V322.455c0,18.9,51.413,34.217,128.532,34.217,59.982,0,85.688-8.554,85.688-8.554V313.9c0-8.554-8.569-8.554-8.569-8.554V240.658c1.782-.3,3.41-.59,4.91-.873A15.1,15.1,0,0,0,232.788,224.9V194.14Z" transform="translate(0 36.827)" fill="url(#linear-gradient)"/>
      <path id="Path_21882" data-name="Path 21882" d="M47.275,142.316C32.186,142.316,13,123.163,13,99.544V56.773A42.735,42.735,0,0,1,55.373,14c26.075-.1,34.489,8.554,77.59,8.554,34.275,0,59.982-8.554,59.982-8.554l22.99,11.48a51.31,51.31,0,0,1,28.423,45.9V108.1a34.248,34.248,0,0,1-34.275,34.217Z" transform="translate(22.706 105.76)" fill="#9ca5ad"/>
      <path id="Path_21883" data-name="Path 21883" d="M16,76.88V51.217A34.248,34.248,0,0,1,50.275,17H178.807a34.248,34.248,0,0,1,34.275,34.217V76.88A34.248,34.248,0,0,1,178.807,111.1H50.275A34.248,34.248,0,0,1,16,76.88Z" transform="translate(45.413 128.424)" fill="url(#linear-gradient-2)"/>
      <path id="Path_21884" data-name="Path 21884" d="M131.679,17H63.128a47.049,47.049,0,1,0,0,94.1h68.55a47.049,47.049,0,1,0,0-94.1Z" transform="translate(45.413 128.424)" fill="#fee538"/>
      <path id="Path_21885" data-name="Path 21885" d="M31.853,38.109H23.284A4.282,4.282,0,0,1,19,33.832V25.277A4.282,4.282,0,0,1,23.284,21h8.569a4.282,4.282,0,0,1,4.284,4.277v8.554A4.282,4.282,0,0,1,31.853,38.109Z" transform="translate(68.119 158.641)" fill="#212121"/>
      <path id="Path_21886" data-name="Path 21886" d="M40.853,38.109H32.284A4.282,4.282,0,0,1,28,33.832V25.277A4.282,4.282,0,0,1,32.284,21h8.569a4.282,4.282,0,0,1,4.284,4.277v8.554A4.282,4.282,0,0,1,40.853,38.109Z" transform="translate(136.238 158.641)" fill="#212121"/>
      <path id="Path_21887" data-name="Path 21887" d="M47.255,110.455c.111.017.214.034.317.06a461.887,461.887,0,0,0,60.684,3.713c40.41,0,65.2-3.875,77.119-6.407V32.439c-13.744,2.293-36.083,4.8-68.55,4.8a463.288,463.288,0,0,1-60.3-3.661h-.291s-1.962-.086-3.41-.086a38.672,38.672,0,0,0-5.57,76.963Z" transform="translate(30.275 245.055)" fill="url(#linear-gradient-3)"/>
      <path id="Path_21888" data-name="Path 21888" d="M46.138,32.81v76.134c-5.056.513-10.8,1.027-17.138,1.454V33.922C35.255,33.58,40.911,33.238,46.138,32.81Z" transform="translate(143.807 247.858)" fill="#f0b421"/>
      <path id="Path_21889" data-name="Path 21889" d="M40.138,33.443v77.075c-5.827,0-11.568-.086-17.138-.257V32.93C28.484,33.187,34.225,33.358,40.138,33.443Z" transform="translate(98.394 248.765)" fill="#f0b421"/>
      <path id="Path_21890" data-name="Path 21890" d="M34.138,32.731v78.016c-3.17-.342-6.255-.684-9.254-1.112a.516.516,0,0,0-.343-.086A37.42,37.42,0,0,1,17,107.667V34.87a37.084,37.084,0,0,1,13.11-2.31c1.457,0,3.428.086,3.428.086h.257A.516.516,0,0,1,34.138,32.731Z" transform="translate(52.982 245.97)" fill="#f0b421"/>
      <path id="Path_21891" data-name="Path 21891" d="M23,18,48.706,35.109,74.413,18Z" transform="translate(98.394 135.978)" fill="url(#linear-gradient-4)"/>
      <path id="Path_21892" data-name="Path 21892" d="M24,34.554,41.138,26l17.138,8.554Z" transform="translate(105.963 196.413)" fill="url(#linear-gradient-5)"/>
      <path id="Path_21893" data-name="Path 21893" d="M186.376,33.109a25.683,25.683,0,0,1,25.706,25.663V92.989A17.118,17.118,0,0,1,194.945,110.1H57.844A25.683,25.683,0,0,1,32.138,84.435V58.772A25.683,25.683,0,0,1,57.844,33.109H186.376m0-17.109H57.844A42.813,42.813,0,0,0,15,58.772V84.435a42.813,42.813,0,0,0,42.844,42.772h137.1A34.248,34.248,0,0,0,229.22,92.989V58.772A42.856,42.856,0,0,0,186.376,16Z" transform="translate(37.844 120.87)" fill="#b6c0c9"/>
      <path id="Path_21894" data-name="Path 21894" d="M28.569,0H45.706a8.565,8.565,0,0,1,8.569,8.554V34.217H20V8.554A8.565,8.565,0,0,1,28.569,0Z" transform="translate(75.688)" fill="#b6c0c9"/>
      <g id="Group_3124" data-name="Group 3124" transform="translate(78.551 25.663)">
        <path id="Path_21895" data-name="Path 21895" d="M52.275,28.663c-16.932,0-26.478-1.831-31.045-3.1a4.163,4.163,0,0,1-3.188-4.482A21.51,21.51,0,0,1,39.345,3H65.214a21.51,21.51,0,0,1,21.3,18.084,4.168,4.168,0,0,1-3.188,4.482C78.752,26.832,69.207,28.663,52.275,28.663Z" transform="translate(-18 -3)" fill="#9ca5ad"/>
      </g>
    </g>
    <g id="icons8-futurama-bender-144-2" data-name="icons8-futurama-bender-144" transform="translate(899.73 342.635) rotate(8)" opacity="0.5">
      <path id="Path_21881-2" data-name="Path 21881" d="M215.651,117.151V73.31A68.5,68.5,0,0,0,147.1,4.875H78.55A68.5,68.5,0,0,0,10,73.31V322.455c0,18.9,51.413,34.217,128.532,34.217,59.982,0,85.688-8.554,85.688-8.554V313.9c0-8.554-8.569-8.554-8.569-8.554V240.658c1.782-.3,3.41-.59,4.91-.873A15.1,15.1,0,0,0,232.788,224.9V194.14Z" transform="translate(0 36.827)" fill="url(#linear-gradient)"/>
      <path id="Path_21882-2" data-name="Path 21882" d="M47.275,142.316C32.186,142.316,13,123.163,13,99.544V56.773A42.735,42.735,0,0,1,55.373,14c26.075-.1,34.489,8.554,77.59,8.554,34.275,0,59.982-8.554,59.982-8.554l22.99,11.48a51.31,51.31,0,0,1,28.423,45.9V108.1a34.248,34.248,0,0,1-34.275,34.217Z" transform="translate(22.706 105.76)" fill="#9ca5ad"/>
      <path id="Path_21883-2" data-name="Path 21883" d="M16,76.88V51.217A34.248,34.248,0,0,1,50.275,17H178.807a34.248,34.248,0,0,1,34.275,34.217V76.88A34.248,34.248,0,0,1,178.807,111.1H50.275A34.248,34.248,0,0,1,16,76.88Z" transform="translate(45.413 128.424)" fill="url(#linear-gradient-2)"/>
      <path id="Path_21884-2" data-name="Path 21884" d="M131.679,17H63.128a47.049,47.049,0,1,0,0,94.1h68.55a47.049,47.049,0,1,0,0-94.1Z" transform="translate(45.413 128.424)" fill="#fee538"/>
      <path id="Path_21885-2" data-name="Path 21885" d="M31.853,38.109H23.284A4.282,4.282,0,0,1,19,33.832V25.277A4.282,4.282,0,0,1,23.284,21h8.569a4.282,4.282,0,0,1,4.284,4.277v8.554A4.282,4.282,0,0,1,31.853,38.109Z" transform="translate(68.119 158.641)" fill="#212121"/>
      <path id="Path_21886-2" data-name="Path 21886" d="M40.853,38.109H32.284A4.282,4.282,0,0,1,28,33.832V25.277A4.282,4.282,0,0,1,32.284,21h8.569a4.282,4.282,0,0,1,4.284,4.277v8.554A4.282,4.282,0,0,1,40.853,38.109Z" transform="translate(136.238 158.641)" fill="#212121"/>
      <path id="Path_21887-2" data-name="Path 21887" d="M47.255,110.455c.111.017.214.034.317.06a461.887,461.887,0,0,0,60.684,3.713c40.41,0,65.2-3.875,77.119-6.407V32.439c-13.744,2.293-36.083,4.8-68.55,4.8a463.288,463.288,0,0,1-60.3-3.661h-.291s-1.962-.086-3.41-.086a38.672,38.672,0,0,0-5.57,76.963Z" transform="translate(30.275 245.055)" fill="url(#linear-gradient-3)"/>
      <path id="Path_21888-2" data-name="Path 21888" d="M46.138,32.81v76.134c-5.056.513-10.8,1.027-17.138,1.454V33.922C35.255,33.58,40.911,33.238,46.138,32.81Z" transform="translate(143.807 247.858)" fill="#f0b421"/>
      <path id="Path_21889-2" data-name="Path 21889" d="M40.138,33.443v77.075c-5.827,0-11.568-.086-17.138-.257V32.93C28.484,33.187,34.225,33.358,40.138,33.443Z" transform="translate(98.394 248.765)" fill="#f0b421"/>
      <path id="Path_21890-2" data-name="Path 21890" d="M34.138,32.731v78.016c-3.17-.342-6.255-.684-9.254-1.112a.516.516,0,0,0-.343-.086A37.42,37.42,0,0,1,17,107.667V34.87a37.084,37.084,0,0,1,13.11-2.31c1.457,0,3.428.086,3.428.086h.257A.516.516,0,0,1,34.138,32.731Z" transform="translate(52.982 245.97)" fill="#f0b421"/>
      <path id="Path_21891-2" data-name="Path 21891" d="M23,18,48.706,35.109,74.413,18Z" transform="translate(98.394 135.978)" fill="url(#linear-gradient-4)"/>
      <path id="Path_21892-2" data-name="Path 21892" d="M24,34.554,41.138,26l17.138,8.554Z" transform="translate(105.963 196.413)" fill="url(#linear-gradient-5)"/>
      <path id="Path_21893-2" data-name="Path 21893" d="M186.376,33.109a25.683,25.683,0,0,1,25.706,25.663V92.989A17.118,17.118,0,0,1,194.945,110.1H57.844A25.683,25.683,0,0,1,32.138,84.435V58.772A25.683,25.683,0,0,1,57.844,33.109H186.376m0-17.109H57.844A42.813,42.813,0,0,0,15,58.772V84.435a42.813,42.813,0,0,0,42.844,42.772h137.1A34.248,34.248,0,0,0,229.22,92.989V58.772A42.856,42.856,0,0,0,186.376,16Z" transform="translate(37.844 120.87)" fill="#b6c0c9"/>
      <path id="Path_21894-2" data-name="Path 21894" d="M28.569,0H45.706a8.565,8.565,0,0,1,8.569,8.554V34.217H20V8.554A8.565,8.565,0,0,1,28.569,0Z" transform="translate(75.688)" fill="#b6c0c9"/>
      <g id="Group_3124-2" data-name="Group 3124" transform="translate(78.551 25.663)">
        <path id="Path_21895-2" data-name="Path 21895" d="M52.275,28.663c-16.932,0-26.478-1.831-31.045-3.1a4.163,4.163,0,0,1-3.188-4.482A21.51,21.51,0,0,1,39.345,3H65.214a21.51,21.51,0,0,1,21.3,18.084,4.168,4.168,0,0,1-3.188,4.482C78.752,26.832,69.207,28.663,52.275,28.663Z" transform="translate(-18 -3)" fill="#9ca5ad"/>
      </g>
    </g>
    <g id="icons8-futurama-bender-144-3" data-name="icons8-futurama-bender-144" transform="matrix(0.545, -0.839, 0.839, 0.545, 1421.075, 468.005)" opacity="0.5">
      <path id="Path_21881-3" data-name="Path 21881" d="M297.9,189.61V117.475c0-62.183-42.97-112.6-95.968-112.6H105.968C52.97,4.875,10,55.292,10,117.475V527.41c0,31.092,71.976,56.3,179.941,56.3,83.972,0,119.96-14.075,119.96-14.075v-56.3c0-14.075-12-14.075-12-14.075V392.825c2.5-.493,4.774-.971,6.874-1.436,9.993-2.238,17.118-12.555,17.118-24.49V316.285Z" transform="translate(0 63.741)" fill="url(#linear-gradient)"/>
      <path id="Path_21882-3" data-name="Path 21882" d="M60.984,225.127C39.859,225.127,13,193.613,13,154.752V84.376C13,45.853,39.487,14.156,72.32,14c36.5-.169,48.284,14.075,108.624,14.075C228.929,28.076,264.917,14,264.917,14L297.1,32.89c24.388,14.3,39.791,43.548,39.791,75.527v60.41c0,31.092-21.485,56.3-47.984,56.3Z" transform="translate(32.988 183.049)" fill="#9ca5ad"/>
      <path id="Path_21883-3" data-name="Path 21883" d="M16,115.525V73.3C16,42.208,37.485,17,63.984,17H243.925c26.5,0,47.984,25.208,47.984,56.3v42.225c0,31.092-21.485,56.3-47.984,56.3H63.984C37.485,171.825,16,146.617,16,115.525Z" transform="translate(65.976 222.275)" fill="url(#linear-gradient-2)"/>
      <path id="Path_21884-3" data-name="Path 21884" d="M177.946,17H81.978C45.534,17,16,51.653,16,94.413s29.534,77.413,65.978,77.413h95.968c36.468,0,65.978-34.625,65.978-77.413S214.414,17,177.946,17Z" transform="translate(65.976 222.275)" fill="#fee538"/>
      <path id="Path_21885-3" data-name="Path 21885" d="M36.994,49.15H25c-3.311,0-6-3.153-6-7.038V28.038C19,24.153,21.687,21,25,21h12c3.311,0,6,3.153,6,7.038V42.113C42.992,46,40.3,49.15,36.994,49.15Z" transform="translate(98.964 274.575)" fill="#212121"/>
      <path id="Path_21886-3" data-name="Path 21886" d="M45.994,49.15H34c-3.311,0-6-3.153-6-7.038V28.038C28,24.153,30.687,21,34,21h12c3.311,0,6,3.153,6,7.038V42.113C51.992,46,49.3,49.15,45.994,49.15Z" transform="translate(197.929 274.575)" fill="#212121"/>
      <path id="Path_21887-3" data-name="Path 21887" d="M60.557,160.8a4.224,4.224,0,0,1,.444.1c24.616,3.871,53.178,6.109,84.956,6.109,56.573,0,91.278-6.376,107.964-10.542V32.439c-19.242,3.772-50.515,7.9-95.968,7.9a553.288,553.288,0,0,1-84.416-6.024h-.408s-2.747-.141-4.774-.141C38.328,34.17,14,62.728,14,97.944,14,130.035,34.261,156.341,60.557,160.8Z" transform="translate(43.984 424.14)" fill="url(#linear-gradient-3)"/>
      <path id="Path_21888-3" data-name="Path 21888" d="M52.992,32.81V158.078c-7.078.845-15.115,1.689-23.992,2.393V34.64C37.757,34.077,45.674,33.514,52.992,32.81Z" transform="translate(208.925 428.991)" fill="#f0b421"/>
      <path id="Path_21889-3" data-name="Path 21889" d="M46.992,33.775V160.59c-8.157,0-16.195-.141-23.992-.422V32.93C30.677,33.352,38.715,33.634,46.992,33.775Z" transform="translate(142.948 430.56)" fill="#f0b421"/>
      <path id="Path_21890-3" data-name="Path 21890" d="M40.992,32.842V161.206c-4.439-.563-8.757-1.126-12.956-1.83a.64.64,0,0,0-.48-.141A46.117,46.117,0,0,1,17,156.139V36.36a45.069,45.069,0,0,1,18.354-3.8c2.039,0,4.8.141,4.8.141h.36A.64.64,0,0,1,40.992,32.842Z" transform="translate(76.972 425.723)" fill="#f0b421"/>
      <path id="Path_21891-3" data-name="Path 21891" d="M23,18,58.988,46.15,94.976,18Z" transform="translate(142.948 235.35)" fill="url(#linear-gradient-4)"/>
      <path id="Path_21892-3" data-name="Path 21892" d="M24,40.075,47.992,26,71.984,40.075Z" transform="translate(153.944 339.95)" fill="url(#linear-gradient-5)"/>
      <path id="Path_21893-3" data-name="Path 21893" d="M254.921,44.15c19.877,0,35.988,18.9,35.988,42.225v56.3c0,15.553-10.736,28.15-23.992,28.15H74.98c-19.877,0-35.988-18.9-35.988-42.225V86.375C38.992,63.053,55.1,44.15,74.98,44.15H254.921m0-28.15H74.98C41.859,16,15,47.514,15,86.375V128.6c0,38.861,26.859,70.375,59.98,70.375H266.917c26.5,0,47.984-25.208,47.984-56.3v-56.3C314.9,47.57,287.994,16,254.921,16Z" transform="translate(54.98 209.2)" fill="#b6c0c9"/>
      <path id="Path_21894-3" data-name="Path 21894" d="M32,0H55.988c6.622,0,12,6.306,12,14.075V56.3H20V14.075C20,6.306,25.374,0,32,0Z" transform="translate(109.96)" fill="#b6c0c9"/>
      <g id="Group_3124-3" data-name="Group 3124" transform="translate(105.969 42.225)">
        <path id="Path_21895-3" data-name="Path 21895" d="M65.984,45.225c-23.7,0-37.068-3.012-43.462-5.1a6.847,6.847,0,0,1-4.463-7.375C20.3,15.893,32.8,3,47.882,3H84.1c15.079,0,27.579,12.893,29.822,29.755a6.857,6.857,0,0,1-4.463,7.375C103.052,42.213,89.688,45.225,65.984,45.225Z" transform="translate(-18 -3)" fill="#9ca5ad"/>
      </g>
    </g>
    <g id="icons8-futurama-bender-144-4" data-name="icons8-futurama-bender-144" transform="matrix(0.819, 0.574, -0.574, 0.819, 359.904, 658.123)" opacity="0.5">
      <path id="Path_21881-4" data-name="Path 21881" d="M309.027,159.889V99.36c0-52.179-44.63-94.485-99.676-94.485H109.676C54.63,4.875,10,47.181,10,99.36V443.343c0,26.09,74.757,47.242,186.892,47.242,87.216,0,124.594-11.811,124.594-11.811V431.533c0-11.811-12.459-11.811-12.459-11.811V330.41c2.592-.413,4.959-.815,7.139-1.2,10.379-1.878,17.78-10.535,17.78-20.55V266.184Z" transform="translate(0 52.702)" fill="url(#linear-gradient)"/>
      <path id="Path_21882-4" data-name="Path 21882" d="M62.838,191.16C40.9,191.16,13,164.716,13,132.107V73.054C13,40.729,40.51,14.131,74.612,14c37.914-.142,50.149,11.811,112.82,11.811C237.27,25.812,274.648,14,274.648,14l33.429,15.85c25.33,12,41.328,36.542,41.328,63.376v50.691c0,26.09-22.315,47.242-49.838,47.242Z" transform="translate(34.378 151.347)" fill="#9ca5ad"/>
      <path id="Path_21883-4" data-name="Path 21883" d="M16,99.674V64.242C16,38.153,38.315,17,65.838,17H252.729c27.523,0,49.838,21.153,49.838,47.242V99.674c0,26.09-22.315,47.242-49.838,47.242H65.838C38.315,146.917,16,125.764,16,99.674Z" transform="translate(68.757 183.78)" fill="url(#linear-gradient-2)"/>
      <path id="Path_21884-4" data-name="Path 21884" d="M184.2,17H84.527C46.675,17,16,46.078,16,81.958s30.675,64.958,68.527,64.958H184.2c37.877,0,68.527-29.054,68.527-64.958S222.079,17,184.2,17Z" transform="translate(68.757 183.78)" fill="#fee538"/>
      <path id="Path_21885-4" data-name="Path 21885" d="M37.689,44.621H25.23A6.076,6.076,0,0,1,19,38.716V26.905A6.076,6.076,0,0,1,25.23,21H37.689a6.076,6.076,0,0,1,6.23,5.905V38.716A6.076,6.076,0,0,1,37.689,44.621Z" transform="translate(103.135 227.023)" fill="#212121"/>
      <path id="Path_21886-4" data-name="Path 21886" d="M46.689,44.621H34.23A6.076,6.076,0,0,1,28,38.716V26.905A6.076,6.076,0,0,1,34.23,21H46.689a6.076,6.076,0,0,1,6.23,5.905V38.716A6.076,6.076,0,0,1,46.689,44.621Z" transform="translate(206.27 227.023)" fill="#212121"/>
      <path id="Path_21887-4" data-name="Path 21887" d="M62.355,140.152c.162.024.311.047.461.083a706.828,706.828,0,0,0,88.238,5.126c58.759,0,94.8-5.35,112.135-8.846V32.439c-19.985,3.165-52.467,6.626-99.676,6.626A708.979,708.979,0,0,1,75.836,34.01h-.424s-2.853-.118-4.959-.118C39.268,33.892,14,57.855,14,87.406,14,114.334,35.044,136.408,62.355,140.152Z" transform="translate(45.838 350.685)" fill="url(#linear-gradient-3)"/>
      <path id="Path_21888-4" data-name="Path 21888" d="M53.919,32.81V137.924c-7.351.709-15.7,1.417-24.919,2.008V34.345C38.1,33.873,46.319,33.4,53.919,32.81Z" transform="translate(217.729 354.696)" fill="#f0b421"/>
      <path id="Path_21889-4" data-name="Path 21889" d="M47.919,33.639V140.052c-8.472,0-16.82-.118-24.919-.354V32.93C30.974,33.284,39.322,33.521,47.919,33.639Z" transform="translate(148.973 355.993)" fill="#f0b421"/>
      <path id="Path_21890-4" data-name="Path 21890" d="M41.919,32.8V140.509c-4.61-.472-9.1-.945-13.456-1.535a.781.781,0,0,0-.5-.118A56.793,56.793,0,0,1,17,136.257V35.749A56.491,56.491,0,0,1,36.063,32.56c2.118,0,4.984.118,4.984.118h.374A.781.781,0,0,1,41.919,32.8Z" transform="translate(80.216 351.993)" fill="#f0b421"/>
      <path id="Path_21891-4" data-name="Path 21891" d="M23,18,60.378,41.621,97.757,18Z" transform="translate(148.973 194.591)" fill="url(#linear-gradient-4)"/>
      <path id="Path_21892-4" data-name="Path 21892" d="M24,37.811,48.919,26,73.838,37.811Z" transform="translate(160.432 281.076)" fill="url(#linear-gradient-5)"/>
      <path id="Path_21893-4" data-name="Path 21893" d="M264.189,39.621c20.645,0,37.378,15.862,37.378,35.432V122.3c0,13.051-11.151,23.621-24.919,23.621H77.3c-20.645,0-37.378-15.862-37.378-35.432V75.053c0-19.57,16.733-35.432,37.378-35.432H264.189m0-23.621H77.3C42.9,16,15,42.444,15,75.053v35.432c0,32.609,27.9,59.053,62.3,59.053H276.648c27.523,0,49.838-21.153,49.838-47.242V75.053c0-32.562-27.947-59.053-62.3-59.053Z" transform="translate(57.297 172.97)" fill="#b6c0c9"/>
      <path id="Path_21894-4" data-name="Path 21894" d="M32.459,0H57.378c6.878,0,12.459,5.291,12.459,11.811V47.242H20V11.811C20,5.291,25.582,0,32.459,0Z" transform="translate(114.594)" fill="#b6c0c9"/>
      <g id="Group_3124-4" data-name="Group 3124" transform="translate(109.676 35.432)">
        <path id="Path_21895-4" data-name="Path 21895" d="M67.837,38.432c-24.62,0-38.5-2.527-45.141-4.275-2.928-.768-5.1-3.354-4.635-6.189C20.392,13.819,33.375,3,49.036,3H86.651c15.662,0,28.644,10.819,30.974,24.968.461,2.823-1.707,5.421-4.635,6.189C106.337,35.9,92.457,38.432,67.837,38.432Z" transform="translate(-18 -3)" fill="#9ca5ad"/>
      </g>
    </g>
    <g id="icons8-futurama-bender-144-5" data-name="icons8-futurama-bender-144" transform="translate(995.506 900.003) rotate(8)" opacity="0.5">
      <path id="Path_21881-5" data-name="Path 21881" d="M156.05,74.281V47.18c0-23.363-21.8-42.3-48.683-42.3H58.683C31.8,4.875,10,23.817,10,47.18V201.2c0,11.681,36.513,21.152,91.282,21.152,42.6,0,60.854-5.288,60.854-5.288V195.907c0-5.288-6.085-5.288-6.085-5.288V150.631c1.266-.185,2.422-.365,3.487-.539,5.069-.841,8.684-4.717,8.684-9.2V121.874Z" transform="translate(0 20.904)" fill="url(#linear-gradient)"/>
      <path id="Path_21882-5" data-name="Path 21882" d="M37.342,93.322C26.625,93.322,13,81.482,13,66.881V40.441C13,25.967,26.437,14.059,43.092,14c18.518-.063,24.494,5.288,55.1,5.288A169.133,169.133,0,0,0,140.794,14l16.327,7.1c12.372,5.373,20.185,16.361,20.185,28.376v22.7c0,11.681-10.9,21.152-24.342,21.152Z" transform="translate(15.256 60.033)" fill="#9ca5ad"/>
      <path id="Path_21883-5" data-name="Path 21883" d="M16,54.017V38.152C16,26.471,26.9,17,40.342,17h91.281c13.443,0,24.342,9.471,24.342,21.152V54.017c0,11.681-10.9,21.152-24.342,21.152H40.342C26.9,75.169,16,65.7,16,54.017Z" transform="translate(30.513 72.898)" fill="url(#linear-gradient-2)"/>
      <path id="Path_21884-5" data-name="Path 21884" d="M98.153,17H49.47C30.982,17,16,30.019,16,46.084S30.982,75.169,49.47,75.169H98.153c18.5,0,33.47-13.009,33.47-29.084S116.653,17,98.153,17Z" transform="translate(30.513 72.898)" fill="#fee538"/>
      <path id="Path_21885-5" data-name="Path 21885" d="M28.128,31.576H22.043A2.866,2.866,0,0,1,19,28.932V23.644A2.866,2.866,0,0,1,22.043,21h6.085a2.866,2.866,0,0,1,3.043,2.644v5.288A2.866,2.866,0,0,1,28.128,31.576Z" transform="translate(45.769 90.05)" fill="#212121"/>
      <path id="Path_21886-5" data-name="Path 21886" d="M37.128,31.576H31.043A2.866,2.866,0,0,1,28,28.932V23.644A2.866,2.866,0,0,1,31.043,21h6.085a2.866,2.866,0,0,1,3.043,2.644v5.288A2.866,2.866,0,0,1,37.128,31.576Z" transform="translate(91.538 90.05)" fill="#212121"/>
      <path id="Path_21887-5" data-name="Path 21887" d="M37.618,80.666c.079.011.152.021.225.037A376.215,376.215,0,0,0,80.94,83c28.7,0,46.3-2.4,54.769-3.961v-46.6c-9.761,1.417-25.626,2.967-48.683,2.967A377.37,377.37,0,0,1,44.2,33.142H44s-1.394-.053-2.422-.053C26.341,33.089,14,43.819,14,57.05,14,69.107,24.278,78.99,37.618,80.666Z" transform="translate(20.342 139.101)" fill="url(#linear-gradient-3)"/>
      <path id="Path_21888-5" data-name="Path 21888" d="M41.171,32.81V79.874c-3.59.317-7.668.635-12.171.9V33.5C33.442,33.286,37.459,33.074,41.171,32.81Z" transform="translate(96.623 140.692)" fill="#f0b421"/>
      <path id="Path_21889-5" data-name="Path 21889" d="M35.171,33.247V80.893c-4.138,0-8.215-.053-12.171-.159V32.93C26.895,33.089,30.972,33.194,35.171,33.247Z" transform="translate(66.111 141.207)" fill="#f0b421"/>
      <path id="Path_21890-5" data-name="Path 21890" d="M29.171,32.666V80.893c-2.252-.212-4.442-.423-6.572-.687a.41.41,0,0,0-.243-.053A29.863,29.863,0,0,1,17,78.989v-45a29.867,29.867,0,0,1,9.311-1.428c1.035,0,2.434.053,2.434.053h.183A.409.409,0,0,1,29.171,32.666Z" transform="translate(35.598 139.62)" fill="#f0b421"/>
      <path id="Path_21891-5" data-name="Path 21891" d="M23,18,41.256,28.576,59.513,18Z" transform="translate(66.111 77.186)" fill="url(#linear-gradient-4)"/>
      <path id="Path_21892-5" data-name="Path 21892" d="M24,31.288,36.171,26l12.171,5.288Z" transform="translate(71.196 111.49)" fill="url(#linear-gradient-5)"/>
      <path id="Path_21893-5" data-name="Path 21893" d="M136.709,26.576c10.084,0,18.256,7.1,18.256,15.864V63.593c0,5.843-5.446,10.576-12.171,10.576H45.427c-10.084,0-18.256-7.1-18.256-15.864V42.44c0-8.762,8.173-15.864,18.256-15.864h91.282m0-10.576H45.427C28.625,16,15,27.84,15,42.44V58.3c0,14.6,13.625,26.44,30.427,26.44h97.367c13.443,0,24.342-9.471,24.342-21.152V42.44c0-14.579-13.65-26.44-30.427-26.44Z" transform="translate(25.427 68.609)" fill="#b6c0c9"/>
      <path id="Path_21894-5" data-name="Path 21894" d="M26.085,0H38.256c3.359,0,6.085,2.369,6.085,5.288V21.152H20V5.288C20,2.369,22.726,0,26.085,0Z" transform="translate(50.854)" fill="#b6c0c9"/>
      <g id="Group_3124-5" data-name="Group 3124" transform="translate(58.684 15.864)">
        <path id="Path_21895-5" data-name="Path 21895" d="M42.342,18.864c-12.025,0-18.8-1.132-22.048-1.914a2.627,2.627,0,0,1-2.264-2.771C19.168,7.844,25.509,3,33.159,3H51.531c7.649,0,13.99,4.844,15.128,11.179A2.631,2.631,0,0,1,64.4,16.95C61.146,17.733,54.366,18.864,42.342,18.864Z" transform="translate(-18 -3)" fill="#9ca5ad"/>
      </g>
    </g>
    <g id="icons8-futurama-bender-144-6" data-name="icons8-futurama-bender-144" transform="translate(986.895 2.99) rotate(8)" opacity="0.5">
      <path id="Path_21881-6" data-name="Path 21881" d="M169.44,80.316V50.858c0-25.394-23.8-45.983-53.147-45.983H63.147C33.8,4.875,10,25.464,10,50.858V218.266c0,12.7,39.86,22.992,99.65,22.992,46.5,0,66.434-5.748,66.434-5.748V212.518c0-5.748-6.643-5.748-6.643-5.748V163.3c1.382-.2,2.644-.4,3.807-.586,5.534-.914,9.48-5.127,9.48-10V132.047Z" transform="translate(0 23.146)" fill="url(#linear-gradient)"/>
      <path id="Path_21882-6" data-name="Path 21882" d="M39.573,100.219C27.874,100.219,13,87.349,13,71.479V42.74C13,27.008,27.669,14.064,45.851,14c20.216-.069,26.74,5.748,60.156,5.748A185.389,185.389,0,0,0,152.51,14l17.824,7.714c13.506,5.84,22.036,17.784,22.036,30.843v24.67c0,12.7-11.9,22.992-26.573,22.992Z" transform="translate(16.93 66.47)" fill="#9ca5ad"/>
      <path id="Path_21883-6" data-name="Path 21883" d="M16,57.235V39.992C16,27.294,27.9,17,42.573,17h99.65C156.9,17,168.8,27.294,168.8,39.992V57.235c0,12.7-11.9,22.992-26.573,22.992H42.573C27.9,80.227,16,69.932,16,57.235Z" transform="translate(33.86 80.714)" fill="url(#linear-gradient-2)"/>
      <path id="Path_21884-6" data-name="Path 21884" d="M105.685,17H52.538C32.356,17,16,31.151,16,48.613S32.356,80.227,52.538,80.227h53.147c20.2,0,36.538-14.14,36.538-31.613S125.881,17,105.685,17Z" transform="translate(33.86 80.714)" fill="#fee538"/>
      <path id="Path_21885-6" data-name="Path 21885" d="M28.965,32.5H22.322A3.123,3.123,0,0,1,19,29.622V23.874A3.123,3.123,0,0,1,22.322,21h6.643a3.123,3.123,0,0,1,3.322,2.874v5.748A3.123,3.123,0,0,1,28.965,32.5Z" transform="translate(50.79 99.706)" fill="#212121"/>
      <path id="Path_21886-6" data-name="Path 21886" d="M37.965,32.5H31.322A3.123,3.123,0,0,1,28,29.622V23.874A3.123,3.123,0,0,1,31.322,21h6.643a3.123,3.123,0,0,1,3.322,2.874v5.748A3.123,3.123,0,0,1,37.965,32.5Z" transform="translate(101.58 99.706)" fill="#212121"/>
      <path id="Path_21887-6" data-name="Path 21887" d="M39.783,84.86c.086.011.166.023.246.04a412.478,412.478,0,0,0,47.048,2.495c31.33,0,50.549-2.6,59.79-4.305V32.439c-10.656,1.54-27.975,3.225-53.147,3.225A413.741,413.741,0,0,1,46.971,33.2h-.226s-1.521-.057-2.644-.057C27.473,33.146,14,44.808,14,59.19,14,72.295,25.221,83.038,39.783,84.86Z" transform="translate(22.573 154.017)" fill="url(#linear-gradient-3)"/>
      <path id="Path_21888-6" data-name="Path 21888" d="M42.287,32.81V83.966c-3.92.345-8.371.69-13.287.977V33.557C33.85,33.327,38.234,33.1,42.287,32.81Z" transform="translate(107.224 155.778)" fill="#f0b421"/>
      <path id="Path_21889-6" data-name="Path 21889" d="M36.287,33.275V85.063c-4.517,0-8.969-.057-13.287-.172V32.93C27.252,33.1,31.7,33.217,36.287,33.275Z" transform="translate(73.364 156.348)" fill="#f0b421"/>
      <path id="Path_21890-6" data-name="Path 21890" d="M30.287,32.675V85.1c-2.458-.23-4.85-.46-7.175-.747a.449.449,0,0,0-.266-.057A32.723,32.723,0,0,1,17,83.027V34.112A32.735,32.735,0,0,1,27.164,32.56c1.129,0,2.657.057,2.657.057h.2A.449.449,0,0,1,30.287,32.675Z" transform="translate(39.503 154.591)" fill="#f0b421"/>
      <path id="Path_21891-6" data-name="Path 21891" d="M23,18,42.93,29.5,62.86,18Z" transform="translate(73.364 85.462)" fill="url(#linear-gradient-4)"/>
      <path id="Path_21892-6" data-name="Path 21892" d="M24,31.748,37.287,26l13.287,5.748Z" transform="translate(79.007 123.445)" fill="url(#linear-gradient-5)"/>
      <path id="Path_21893-6" data-name="Path 21893" d="M147.867,27.5c11.008,0,19.93,7.719,19.93,17.244V67.731c0,6.351-5.946,11.5-13.287,11.5H48.217c-11.008,0-19.93-7.719-19.93-17.244V44.739c0-9.524,8.922-17.244,19.93-17.244h99.65m0-11.5H48.217C29.874,16,15,28.87,15,44.739V61.983c0,15.87,14.874,28.739,33.217,28.739H154.51c14.675,0,26.573-10.294,26.573-22.992V44.739c0-15.847-14.9-28.739-33.217-28.739Z" transform="translate(28.217 75.966)" fill="#b6c0c9"/>
      <path id="Path_21894-6" data-name="Path 21894" d="M26.643,0H39.93c3.667,0,6.643,2.575,6.643,5.748V22.992H20V5.748C20,2.575,22.976,0,26.643,0Z" transform="translate(56.434)" fill="#b6c0c9"/>
      <g id="Group_3124-6" data-name="Group 3124" transform="translate(63.147 17.244)">
        <path id="Path_21895-6" data-name="Path 21895" d="M44.573,20.244c-13.127,0-20.528-1.23-24.069-2.081-1.561-.374-2.717-1.632-2.471-3.012C19.275,8.265,26.2,3,34.548,3H54.6C62.955,3,69.878,8.265,71.12,15.151c.246,1.374-.91,2.638-2.471,3.012C65.1,19.014,57.7,20.244,44.573,20.244Z" transform="translate(-18 -3)" fill="#9ca5ad"/>
      </g>
    </g>
    <g id="icons8-futurama-bender-144-7" data-name="icons8-futurama-bender-144" transform="matrix(0.53, 0.848, -0.848, 0.53, 1698.348, 884.198)" opacity="0.5">
      <path id="Path_21881-7" data-name="Path 21881" d="M154.339,88.313V55.733c0-28.086-21.543-50.858-48.113-50.858H58.113C31.543,4.875,10,27.646,10,55.733V240.886c0,14.043,36.085,25.429,90.212,25.429,42.1,0,60.141-6.357,60.141-6.357V234.529a6,6,0,0,0-6.014-6.357V180.1c1.251-.223,2.394-.439,3.446-.648a11.078,11.078,0,0,0,8.582-11.061v-22.86Z" transform="translate(0 26.116)" fill="url(#linear-gradient)"/>
      <path id="Path_21882-7" data-name="Path 21882" d="M37.057,109.358C26.466,109.358,13,95.125,13,77.572V45.787C13,28.387,26.279,14.07,42.74,14c18.3-.076,24.207,6.357,54.458,6.357A139.645,139.645,0,0,0,139.3,14l16.136,8.531c12.227,6.459,19.949,19.669,19.949,34.113V83.93c0,14.043-10.771,25.429-24.057,25.429Z" transform="translate(15.042 75)" fill="#9ca5ad"/>
      <path id="Path_21883-7" data-name="Path 21883" d="M16,61.5V42.429C16,28.386,26.771,17,40.057,17h90.212c13.285,0,24.057,11.386,24.057,25.429V61.5c0,14.043-10.771,25.429-24.057,25.429H40.057C26.771,86.929,16,75.543,16,61.5Z" transform="translate(30.085 91.072)" fill="url(#linear-gradient-2)"/>
      <path id="Path_21884-7" data-name="Path 21884" d="M97.191,17H49.078C30.807,17,16,32.651,16,51.965S30.807,86.929,49.078,86.929H97.191c18.283,0,33.078-15.639,33.078-34.965S115.474,17,97.191,17Z" transform="translate(30.085 91.072)" fill="#fee538"/>
      <path id="Path_21885-7" data-name="Path 21885" d="M28.021,33.714H22.007A3.1,3.1,0,0,1,19,30.536V24.179A3.1,3.1,0,0,1,22.007,21h6.014a3.1,3.1,0,0,1,3.007,3.179v6.357A3.1,3.1,0,0,1,28.021,33.714Z" transform="translate(45.127 112.501)" fill="#212121"/>
      <path id="Path_21886-7" data-name="Path 21886" d="M37.021,33.714H31.007A3.1,3.1,0,0,1,28,30.536V24.179A3.1,3.1,0,0,1,31.007,21h6.014a3.1,3.1,0,0,1,3.007,3.179v6.357A3.1,3.1,0,0,1,37.021,33.714Z" transform="translate(90.255 112.501)" fill="#212121"/>
      <path id="Path_21887-7" data-name="Path 21887" d="M37.341,90.417c.078.013.15.025.223.044A306.427,306.427,0,0,0,80.156,93.22c28.363,0,45.762-2.88,54.127-4.762V32.439c-9.647,1.7-25.326,3.566-48.113,3.566a307.354,307.354,0,0,1-42.322-2.721h-.2s-1.377-.064-2.394-.064C26.2,33.221,14,46.12,14,62.025,14,76.52,24.158,88.4,37.341,90.417Z" transform="translate(20.057 173.782)" fill="url(#linear-gradient-3)"/>
      <path id="Path_21888-7" data-name="Path 21888" d="M41.028,32.81V89.389C37.48,89.77,33.45,90.152,29,90.47V33.636C33.39,33.382,37.36,33.128,41.028,32.81Z" transform="translate(95.269 175.769)" fill="#f0b421"/>
      <path id="Path_21889-7" data-name="Path 21889" d="M35.028,33.311V90.59c-4.09,0-8.119-.064-12.028-.191V32.93C26.849,33.121,30.879,33.248,35.028,33.311Z" transform="translate(65.184 176.412)" fill="#f0b421"/>
      <path id="Path_21890-7" data-name="Path 21890" d="M29.028,32.687V90.665c-2.225-.254-4.39-.509-6.5-.826a.347.347,0,0,0-.241-.064A25.076,25.076,0,0,1,17,88.376v-54.1a24.74,24.74,0,0,1,9.2-1.716c1.022,0,2.406.064,2.406.064h.18A.346.346,0,0,1,29.028,32.687Z" transform="translate(35.099 174.43)" fill="#f0b421"/>
      <path id="Path_21891-7" data-name="Path 21891" d="M23,18,41.042,30.714,59.085,18Z" transform="translate(65.184 96.429)" fill="url(#linear-gradient-4)"/>
      <path id="Path_21892-7" data-name="Path 21892" d="M24,32.357,36.028,26l12.028,6.357Z" transform="translate(70.198 139.287)" fill="url(#linear-gradient-5)"/>
      <path id="Path_21893-7" data-name="Path 21893" d="M135.283,28.714c9.965,0,18.042,8.538,18.042,19.072V73.215c0,7.025-5.383,12.714-12.028,12.714H45.071c-9.965,0-18.042-8.538-18.042-19.072V47.786c0-10.534,8.077-19.072,18.042-19.072h90.212m0-12.714H45.071C28.466,16,15,30.234,15,47.786V66.858C15,84.41,28.466,98.643,45.071,98.643H141.3c13.285,0,24.057-11.386,24.057-25.429V47.786c0-17.527-13.49-31.786-30.071-31.786Z" transform="translate(25.071 85.715)" fill="#b6c0c9"/>
      <path id="Path_21894-7" data-name="Path 21894" d="M26.014,0H38.042a6.2,6.2,0,0,1,6.014,6.357V25.429H20V6.357A6.2,6.2,0,0,1,26.014,0Z" transform="translate(50.141)" fill="#b6c0c9"/>
      <g id="Group_3124-7" data-name="Group 3124" transform="translate(58.113 19.072)">
        <path id="Path_21895-7" data-name="Path 21895" d="M42.056,22.072c-11.884,0-18.584-1.36-21.789-2.3a3.084,3.084,0,0,1-2.237-3.331C19.155,8.823,25.421,3,32.981,3H51.138C58.7,3,64.964,8.823,66.089,16.439a3.088,3.088,0,0,1-2.237,3.331C60.64,20.711,53.94,22.072,42.056,22.072Z" transform="translate(-18 -3)" fill="#9ca5ad"/>
      </g>
    </g>
  </g>
</svg>
