<svg xmlns="http://www.w3.org/2000/svg" width="27.315" height="21.82" viewBox="0 0 27.315 21.82">
  <g id="Group_3070" data-name="Group 3070" transform="translate(-884.648 -634.679)">
    <g id="Shape_-73" data-name="Shape -73" transform="translate(858.558 611.859)">
      <path id="Path_21750" data-name="Path 21750" d="M219.53,297.076l.585.293,0-1.3-.585-.293Z" transform="translate(-190.401 -269.012)" fill="#582f7f"/>
      <path id="Path_21751" data-name="Path 21751" d="M26.78,192.226l.585.293,0-1.3-.585-.293Z" transform="translate(-0.679 -165.679)" fill="#582f7f"/>
      <path id="Path_21752" data-name="Path 21752" d="M142.26,347.956l.585.293,0-1.3-.585-.293Z" transform="translate(-114.345 -319.156)" fill="#582f7f"/>
      <path id="Path_21753" data-name="Path 21753" d="M180.8,368.916l.585.293,0-1.3-.585-.293Z" transform="translate(-152.279 -339.813)" fill="#582f7f"/>
      <path id="Path_21754" data-name="Path 21754" d="M26.96,99.406l.585.293,0-1.3-.585-.293Z" transform="translate(-0.856 -74.201)" fill="#582f7f"/>
      <path id="Path_21755" data-name="Path 21755" d="M103.71,326.986l.585.293,0-1.3-.585-.293Z" transform="translate(-76.4 -298.49)" fill="#582f7f"/>
      <path id="Path_21756" data-name="Path 21756" d="M26.61,285.036l.585.293,0-1.3-.585-.293Z" transform="translate(-0.512 -257.146)" fill="#582f7f"/>
      <path id="Path_21757" data-name="Path 21757" d="M65.16,306.007l.585.293,0-1.3-.585-.293Z" transform="translate(-38.456 -277.813)" fill="#582f7f"/>
      <path id="Path_21758" data-name="Path 21758" d="M65.51,120.376l.585.293,0-1.3-.585-.293Z" transform="translate(-38.801 -94.868)" fill="#582f7f"/>
      <path id="Path_21759" data-name="Path 21759" d="M142.44,255.136l.585.293,0-1.3-.585-.293Z" transform="translate(-114.522 -227.679)" fill="#582f7f"/>
      <path id="Path_21760" data-name="Path 21760" d="M180.98,276.106l.585.293,0-1.3-.585-.293Z" transform="translate(-152.456 -248.346)" fill="#582f7f"/>
      <path id="Path_21761" data-name="Path 21761" d="M103.89,234.166l.585.293,0-1.3-.585-.293Z" transform="translate(-76.578 -207.012)" fill="#582f7f"/>
      <path id="Path_21762" data-name="Path 21762" d="M104.06,141.346l.585.293,0-1.3-.585-.293Z" transform="translate(-76.745 -115.535)" fill="#582f7f"/>
      <path id="Path_21763" data-name="Path 21763" d="M65.33,213.2l.585.293,0-1.3-.585-.293Z" transform="translate(-38.623 -186.345)" fill="#582f7f"/>
      <path id="Path_21764" data-name="Path 21764" d="M180.63,461.736l.585.293,0-1.3-.585-.293Z" transform="translate(-152.112 -431.291)" fill="#582f7f"/>
      <path id="Path_21765" data-name="Path 21765" d="M219.7,204.256l.585.293,0-1.3-.585-.293Z" transform="translate(-190.568 -177.535)" fill="#582f7f"/>
      <path id="Path_21766" data-name="Path 21766" d="M142.61,162.316l.585.293,0-1.3-.585-.293Z" transform="translate(-114.689 -136.201)" fill="#582f7f"/>
      <path id="Path_21767" data-name="Path 21767" d="M181.15,183.286l.585.293,0-1.3-.585-.293Z" transform="translate(-152.624 -156.868)" fill="#582f7f"/>
      <path id="Path_21768" data-name="Path 21768" d="M26.09,563.456l.585.293,0-1.3-.585-.293Z" transform="translate(0 -531.54)" fill="#582f7f"/>
      <path id="Path_21769" data-name="Path 21769" d="M219.35,389.886l.585.293,0-1.3-.585-.293Z" transform="translate(-190.223 -360.48)" fill="#582f7f"/>
      <path id="Path_21770" data-name="Path 21770" d="M103.19,605.4l.585.293,0-1.3-.585-.293Z" transform="translate(-75.889 -572.873)" fill="#582f7f"/>
      <path id="Path_21771" data-name="Path 21771" d="M64.64,584.426l.585.293,0-1.3-.585-.293Z" transform="translate(-37.944 -552.206)" fill="#582f7f"/>
      <path id="Path_21772" data-name="Path 21772" d="M180.29,647.336l.585.293,0-1.3-.585-.293Z" transform="translate(-151.777 -614.207)" fill="#582f7f"/>
      <path id="Path_21773" data-name="Path 21773" d="M141.75,626.376l.585.293,0-1.3-.585-.293Z" transform="translate(-113.843 -593.55)" fill="#582f7f"/>
      <path id="Path_21774" data-name="Path 21774" d="M219.18,482.706l.585.293,0-1.3-.585-.293Z" transform="translate(-190.056 -451.958)" fill="#582f7f"/>
      <path id="Path_21775" data-name="Path 21775" d="M219.01,575.5l.585.293,0-1.3-.585-.293Z" transform="translate(-189.889 -543.406)" fill="#582f7f"/>
      <path id="Path_21776" data-name="Path 21776" d="M218.84,668.306l.585.293,0-1.3-.585-.293Z" transform="translate(-189.721 -634.873)" fill="#582f7f"/>
      <path id="Path_21777" data-name="Path 21777" d="M64.82,491.616l.585.293,0-1.3-.585-.293Z" transform="translate(-38.121 -460.739)" fill="#582f7f"/>
      <path id="Path_21778" data-name="Path 21778" d="M26.44,377.856l.585.293,0-1.3-.585-.293Z" transform="translate(-0.344 -348.624)" fill="#582f7f"/>
      <path id="Path_21779" data-name="Path 21779" d="M64.99,398.826l.585.293,0-1.3-.585-.293Z" transform="translate(-38.289 -369.291)" fill="#582f7f"/>
      <path id="Path_21780" data-name="Path 21780" d="M180.46,554.516l.585.293,0-1.3-.585-.293Z" transform="translate(-151.944 -522.729)" fill="#582f7f"/>
      <path id="Path_21781" data-name="Path 21781" d="M103.54,419.8l.585.293,0-1.3-.585-.293Z" transform="translate(-76.233 -389.957)" fill="#582f7f"/>
      <path id="Path_21782" data-name="Path 21782" d="M26.27,470.636l.585.293,0-1.3-.585-.293Z" transform="translate(-0.177 -440.062)" fill="#582f7f"/>
      <path id="Path_21783" data-name="Path 21783" d="M142.09,440.766l.585.293,0-1.3-.585-.293Z" transform="translate(-114.177 -410.624)" fill="#582f7f"/>
      <path id="Path_21784" data-name="Path 21784" d="M141.92,533.556l.585.293,0-1.3-.585-.293Z" transform="translate(-114.01 -502.072)" fill="#582f7f"/>
      <path id="Path_21785" data-name="Path 21785" d="M103.37,512.586l.585.293,0-1.3-.585-.293Z" transform="translate(-76.066 -481.405)" fill="#582f7f"/>
      <path id="Path_21786" data-name="Path 21786" d="M431.86,653.165l1.3-.169,0-1.3-1.3.169Z" transform="translate(-399.394 -619.785)" fill="#582f7f"/>
      <path id="Path_21787" data-name="Path 21787" d="M518.52,269.845l1.3-.169,0-1.3-1.305.169Z" transform="translate(-484.693 -242.009)" fill="#582f7f"/>
      <path id="Path_21788" data-name="Path 21788" d="M518.35,362.655l1.3-.169,0-1.3-1.305.169Z" transform="translate(-484.525 -333.476)" fill="#582f7f"/>
      <path id="Path_21789" data-name="Path 21789" d="M518,548.255l1.305-.169,0-1.3-1.3.169Z" transform="translate(-484.181 -516.392)" fill="#582f7f"/>
      <path id="Path_21790" data-name="Path 21790" d="M517.83,641.075l1.3-.169,0-1.3-1.3.169Z" transform="translate(-484.014 -607.87)" fill="#582f7f"/>
      <path id="Path_21791" data-name="Path 21791" d="M432.2,467.555l1.3-.169,0-1.3-1.3.169Z" transform="translate(-399.729 -436.859)" fill="#582f7f"/>
      <path id="Path_21792" data-name="Path 21792" d="M518.17,455.475l1.305-.169,0-1.3-1.305.169Z" transform="translate(-484.348 -424.954)" fill="#582f7f"/>
      <path id="Path_21793" data-name="Path 21793" d="M260.04,584.515l1.3-.169,0-1.3-1.305.169Z" transform="translate(-230.274 -552.128)" fill="#582f7f"/>
      <path id="Path_21794" data-name="Path 21794" d="M346.38,386.825l1.305-.169,0-1.3-1.3.169Z" transform="translate(-315.258 -357.297)" fill="#582f7f"/>
      <path id="Path_21795" data-name="Path 21795" d="M346.55,294.015l1.305-.169,0-1.3-1.3.169Z" transform="translate(-315.425 -265.829)" fill="#582f7f"/>
      <path id="Path_21796" data-name="Path 21796" d="M346.21,479.645l1.3-.169,0-1.3-1.305.169Z" transform="translate(-315.09 -448.774)" fill="#582f7f"/>
      <path id="Path_21797" data-name="Path 21797" d="M259.87,677.335l1.3-.169,0-1.3-1.305.169Z" transform="translate(-230.107 -643.605)" fill="#582f7f"/>
      <path id="Path_21798" data-name="Path 21798" d="M432.55,281.925l1.3-.169,0-1.3-1.3.169Z" transform="translate(-400.074 -253.914)" fill="#582f7f"/>
      <path id="Path_21799" data-name="Path 21799" d="M604.52,257.755l1.3-.169,0-1.3-1.305.169Z" transform="translate(-569.341 -230.093)" fill="#582f7f"/>
      <path id="Path_21800" data-name="Path 21800" d="M346.04,572.425l1.3-.169,0-1.3-1.305.169Z" transform="translate(-314.923 -540.212)" fill="#582f7f"/>
      <path id="Path_21801" data-name="Path 21801" d="M345.86,665.245l1.305-.169,0-1.3-1.3.169Z" transform="translate(-314.746 -631.69)" fill="#582f7f"/>
      <path id="Path_21802" data-name="Path 21802" d="M432.03,560.345l1.3-.169,0-1.3-1.3.169Z" transform="translate(-399.562 -528.307)" fill="#582f7f"/>
      <path id="Path_21803" data-name="Path 21803" d="M518.69,177.025l1.305-.169,0-1.3-1.3.169Z" transform="translate(-484.86 -150.531)" fill="#582f7f"/>
      <path id="Path_21804" data-name="Path 21804" d="M346.72,201.2l1.305-.169,0-1.3-1.305.169Z" transform="translate(-315.592 -174.351)" fill="#582f7f"/>
      <path id="Path_21805" data-name="Path 21805" d="M432.72,189.115l1.3-.169,0-1.3-1.3.169Z" transform="translate(-400.241 -162.446)" fill="#582f7f"/>
      <path id="Path_21806" data-name="Path 21806" d="M690.683,151.559l0,1.3,1.305-.169,0-1.3Z" transform="translate(-654.148 -126.711)" fill="#582f7f"/>
      <path id="Path_21807" data-name="Path 21807" d="M604.69,164.945l1.3-.169,0-1.3-1.305.169Z" transform="translate(-569.509 -138.626)" fill="#582f7f"/>
      <path id="Path_21808" data-name="Path 21808" d="M260.21,491.725l1.305-.169,0-1.3-1.3.169Z" transform="translate(-230.441 -460.68)" fill="#582f7f"/>
      <path id="Path_21809" data-name="Path 21809" d="M260.73,213.285l1.3-.169,0-1.3-1.305.169Z" transform="translate(-230.953 -186.267)" fill="#582f7f"/>
      <path id="Path_21810" data-name="Path 21810" d="M260.56,306.1l1.3-.169,0-1.3-1.305.169Z" transform="translate(-230.786 -277.734)" fill="#582f7f"/>
      <path id="Path_21811" data-name="Path 21811" d="M689.82,616.905l1.305-.169,0-1.3-1.3.169Z" transform="translate(-653.301 -584.049)" fill="#582f7f"/>
      <path id="Path_21812" data-name="Path 21812" d="M690.51,245.675l1.305-.169,0-1.3-1.3.169Z" transform="translate(-653.98 -218.188)" fill="#582f7f"/>
      <path id="Path_21813" data-name="Path 21813" d="M603.83,628.985l1.3-.169,0-1.3-1.305.169Z" transform="translate(-568.662 -595.954)" fill="#582f7f"/>
      <path id="Path_21814" data-name="Path 21814" d="M604.34,350.575l1.305-.169,0-1.3-1.3.169Z" transform="translate(-569.164 -321.571)" fill="#582f7f"/>
      <path id="Path_21815" data-name="Path 21815" d="M604.17,443.385l1.305-.169,0-1.3-1.3.169Z" transform="translate(-568.997 -413.039)" fill="#582f7f"/>
      <path id="Path_21816" data-name="Path 21816" d="M604,536.175l1.3-.169,0-1.3-1.3.169Z" transform="translate(-568.83 -504.487)" fill="#582f7f"/>
      <path id="Path_21817" data-name="Path 21817" d="M690,524.085l1.3-.169,0-1.3-1.305.169Z" transform="translate(-653.478 -492.572)" fill="#582f7f"/>
      <path id="Path_21818" data-name="Path 21818" d="M690.34,338.485l1.3-.169,0-1.3-1.3.169Z" transform="translate(-653.813 -309.656)" fill="#582f7f"/>
      <path id="Path_21819" data-name="Path 21819" d="M690.17,431.295l1.3-.169,0-1.3-1.305.169Z" transform="translate(-653.646 -401.124)" fill="#582f7f"/>
      <path id="Path_21820" data-name="Path 21820" d="M432.38,374.745l1.3-.169,0-1.3-1.3.169Z" transform="translate(-399.906 -345.391)" fill="#582f7f"/>
      <path id="Path_21821" data-name="Path 21821" d="M260.38,398.905l1.305-.169,0-1.3-1.3.169Z" transform="translate(-230.609 -369.202)" fill="#582f7f"/>
      <path id="Path_21822" data-name="Path 21822" d="M192.85,113.279l.585.293,1.3-.169-.585-.293Z" transform="translate(-164.14 -88.984)" fill="#582f7f"/>
      <path id="Path_21823" data-name="Path 21823" d="M68.3,104.389l.585.293,1.305-.169-.585-.293Z" transform="translate(-41.547 -80.223)" fill="#582f7f"/>
      <path id="Path_21824" data-name="Path 21824" d="M271.83,155.333l-.585-.293-1.3.169.585.293Z" transform="translate(-240.019 -130.308)" fill="#582f7f"/>
      <path id="Path_21825" data-name="Path 21825" d="M117.64,71.453l-.585-.293-1.3.169.585.293Z" transform="translate(-88.251 -47.641)" fill="#582f7f"/>
      <path id="Path_21826" data-name="Path 21826" d="M31.64,83.543l-.585-.293-1.3.169.585.293Z" transform="translate(-3.602 -59.556)" fill="#582f7f"/>
      <path id="Path_21827" data-name="Path 21827" d="M366.7,89.233l-.585-.293-1.305.169.585.293Z" transform="translate(-333.398 -65.164)" fill="#582f7f"/>
      <path id="Path_21828" data-name="Path 21828" d="M203.63,59.373l-.585-.293-1.3.169.585.293Z" transform="translate(-172.89 -35.736)" fill="#582f7f"/>
      <path id="Path_21829" data-name="Path 21829" d="M233.29,134.373l-.585-.293-1.3.169.585.293Z" transform="translate(-202.084 -109.651)" fill="#582f7f"/>
      <path id="Path_21830" data-name="Path 21830" d="M289.6,47.283l-.585-.293-1.305.169.585.293Z" transform="translate(-257.509 -23.82)" fill="#582f7f"/>
      <path id="Path_21831" data-name="Path 21831" d="M357.829,143.253l-.585-.293-1.3.169.585.293Z" transform="translate(-324.667 -118.402)" fill="#582f7f"/>
      <path id="Path_21832" data-name="Path 21832" d="M326.26,68.139l.585.293,1.3-.169-.585-.293Z" transform="translate(-295.454 -44.497)" fill="#582f7f"/>
      <path id="Path_21833" data-name="Path 21833" d="M319.279,122.283l-.585-.293-1.3.169.585.293Z" transform="translate(-286.723 -97.736)" fill="#582f7f"/>
      <path id="Path_21834" data-name="Path 21834" d="M240.29,80.219l.585.293,1.3-.169-.585-.293Z" transform="translate(-210.834 -56.402)" fill="#582f7f"/>
      <path id="Path_21835" data-name="Path 21835" d="M278.84,101.189l.585.293,1.3-.169-.585-.293Z" transform="translate(-248.779 -77.069)" fill="#582f7f"/>
      <path id="Path_21836" data-name="Path 21836" d="M154.3,92.3l.585.293,1.3-.169-.585-.293Z" transform="translate(-126.196 -68.308)" fill="#582f7f"/>
      <path id="Path_21837" data-name="Path 21837" d="M614.485,107.162l1.305-.169-.585-.293-1.3.169Z" transform="translate(-578.574 -82.667)" fill="#582f7f"/>
      <path id="Path_21838" data-name="Path 21838" d="M653.755,127.67l-1.3.169.585.293,1.305-.169Z" transform="translate(-616.518 -103.334)" fill="#582f7f"/>
      <path id="Path_21839" data-name="Path 21839" d="M108.74,125.483l-.585-.293-1.305.169.585.293Z" transform="translate(-79.491 -100.889)" fill="#582f7f"/>
      <path id="Path_21840" data-name="Path 21840" d="M537.395,65.222l1.305-.169-.585-.293-1.3.169Z" transform="translate(-502.695 -41.333)" fill="#582f7f"/>
      <path id="Path_21841" data-name="Path 21841" d="M567.755,139.76l-1.3.169.585.293,1.305-.169Z" transform="translate(-531.87 -115.249)" fill="#582f7f"/>
      <path id="Path_21842" data-name="Path 21842" d="M461.6,23.113l-.585-.293-1.3.169.585.293Z" transform="translate(-426.807 0)" fill="#582f7f"/>
      <path id="Path_21843" data-name="Path 21843" d="M575.945,86.2l1.3-.169-.585-.293-1.3.169Z" transform="translate(-540.64 -62.01)" fill="#582f7f"/>
      <path id="Path_21844" data-name="Path 21844" d="M185.83,167.423l-.585-.293-1.305.169.585.293Z" transform="translate(-155.37 -142.223)" fill="#582f7f"/>
      <path id="Path_21845" data-name="Path 21845" d="M223.8,188.1l-1.305.169.585.293,1.3-.169Z" transform="translate(-193.314 -162.89)" fill="#582f7f"/>
      <path id="Path_21846" data-name="Path 21846" d="M147.29,146.453l-.585-.293-1.305.169.585.293Z" transform="translate(-117.435 -121.556)" fill="#582f7f"/>
      <path id="Path_21847" data-name="Path 21847" d="M395.794,163.93l-1.3.169.585.293,1.3-.169Z" transform="translate(-362.612 -139.069)" fill="#582f7f"/>
      <path id="Path_21848" data-name="Path 21848" d="M481.755,151.84l-1.305.169.585.293,1.3-.169Z" transform="translate(-447.221 -127.154)" fill="#582f7f"/>
      <path id="Path_21849" data-name="Path 21849" d="M309.795,176.01l-1.3.169.585.293,1.305-.169Z" transform="translate(-277.963 -150.974)" fill="#582f7f"/>
      <path id="Path_21850" data-name="Path 21850" d="M498.845,44.252l1.3-.169-.585-.293-1.3.169Z" transform="translate(-464.751 -20.667)" fill="#582f7f"/>
      <path id="Path_21851" data-name="Path 21851" d="M412.26,56.049l.585.293,1.305-.169-.585-.293Z" transform="translate(-380.102 -32.582)" fill="#582f7f"/>
      <path id="Path_21852" data-name="Path 21852" d="M405.26,110.2l-.585-.293-1.3.169.585.293Z" transform="translate(-371.352 -85.83)" fill="#582f7f"/>
      <path id="Path_21853" data-name="Path 21853" d="M375.6,35.2l-.585-.293-1.3.169.585.293Z" transform="translate(-342.158 -11.915)" fill="#582f7f"/>
      <path id="Path_21854" data-name="Path 21854" d="M443.79,131.163l-.585-.293-1.305.169.585.293Z" transform="translate(-409.277 -106.487)" fill="#582f7f"/>
      <path id="Path_21855" data-name="Path 21855" d="M491.25,98.113l-.585-.293-1.305.169.585.293Z" transform="translate(-455.991 -73.915)" fill="#582f7f"/>
      <path id="Path_21856" data-name="Path 21856" d="M450.81,77.019l.585.293,1.305-.169-.585-.293Z" transform="translate(-418.047 -53.249)" fill="#582f7f"/>
      <path id="Path_21857" data-name="Path 21857" d="M529.79,119.083l-.585-.293-1.3.169.585.293Z" transform="translate(-493.925 -94.582)" fill="#582f7f"/>
    </g>
    <g id="Shape_-73-2" data-name="Shape -73" transform="translate(862.374 621.768)">
      <path id="Path_21750-2" data-name="Path 21750" d="M219.53,297.077l.585.293,0-1.3-.585-.293Z" transform="translate(-190.401 -269.011)" fill="#582f7f"/>
      <path id="Path_21751-2" data-name="Path 21751" d="M26.78,192.227l.585.293,0-1.3-.585-.293Z" transform="translate(-0.679 -165.678)" fill="#582f7f"/>
      <path id="Path_21752-2" data-name="Path 21752" d="M142.26,347.957l.585.293,0-1.3-.585-.293Z" transform="translate(-114.345 -319.155)" fill="#582f7f"/>
      <path id="Path_21753-2" data-name="Path 21753" d="M180.8,368.917l.585.293,0-1.3-.585-.293Z" transform="translate(-152.279 -339.812)" fill="#582f7f"/>
      <path id="Path_21754-2" data-name="Path 21754" d="M26.96,99.407l.585.293,0-1.3-.585-.293Z" transform="translate(-0.856 -74.201)" fill="#582f7f"/>
      <path id="Path_21755-2" data-name="Path 21755" d="M103.71,326.987l.585.293,0-1.3-.585-.293Z" transform="translate(-76.4 -298.489)" fill="#582f7f"/>
      <path id="Path_21756-2" data-name="Path 21756" d="M26.61,285.037l.585.293,0-1.3-.585-.293Z" transform="translate(-0.512 -257.145)" fill="#582f7f"/>
      <path id="Path_21757-2" data-name="Path 21757" d="M65.16,306.007l.585.293,0-1.3-.585-.293Z" transform="translate(-38.456 -277.812)" fill="#582f7f"/>
      <path id="Path_21758-2" data-name="Path 21758" d="M65.51,120.377l.585.293,0-1.3-.585-.293Z" transform="translate(-38.801 -94.867)" fill="#582f7f"/>
      <path id="Path_21759-2" data-name="Path 21759" d="M142.44,255.137l.585.293,0-1.3-.585-.293Z" transform="translate(-114.522 -227.678)" fill="#582f7f"/>
      <path id="Path_21760-2" data-name="Path 21760" d="M180.98,276.107l.585.293,0-1.3-.585-.293Z" transform="translate(-152.456 -248.345)" fill="#582f7f"/>
      <path id="Path_21761-2" data-name="Path 21761" d="M103.89,234.167l.585.293,0-1.3-.585-.293Z" transform="translate(-76.578 -207.011)" fill="#582f7f"/>
      <path id="Path_21762-2" data-name="Path 21762" d="M104.06,141.347l.585.293,0-1.3-.585-.293Z" transform="translate(-76.745 -115.534)" fill="#582f7f"/>
      <path id="Path_21763-2" data-name="Path 21763" d="M65.33,213.2l.585.293,0-1.3-.585-.293Z" transform="translate(-38.623 -186.345)" fill="#582f7f"/>
      <path id="Path_21764-2" data-name="Path 21764" d="M180.63,461.736l.585.293,0-1.3-.585-.293Z" transform="translate(-152.112 -431.289)" fill="#582f7f"/>
      <path id="Path_21765-2" data-name="Path 21765" d="M219.7,204.257l.585.293,0-1.3-.585-.293Z" transform="translate(-190.568 -177.534)" fill="#582f7f"/>
      <path id="Path_21766-2" data-name="Path 21766" d="M142.61,162.317l.585.293,0-1.3-.585-.293Z" transform="translate(-114.689 -136.201)" fill="#582f7f"/>
      <path id="Path_21767-2" data-name="Path 21767" d="M181.15,183.287l.585.293,0-1.3-.585-.293Z" transform="translate(-152.624 -156.867)" fill="#582f7f"/>
      <path id="Path_21768-2" data-name="Path 21768" d="M26.09,563.457l.585.293,0-1.3-.585-.293Z" transform="translate(0 -531.538)" fill="#582f7f"/>
      <path id="Path_21769-2" data-name="Path 21769" d="M219.35,389.887l.585.293,0-1.3-.585-.293Z" transform="translate(-190.224 -360.479)" fill="#582f7f"/>
      <path id="Path_21770-2" data-name="Path 21770" d="M103.19,605.4l.585.293,0-1.3-.585-.293Z" transform="translate(-75.889 -572.871)" fill="#582f7f"/>
      <path id="Path_21771-2" data-name="Path 21771" d="M64.64,584.427l.585.293,0-1.3-.585-.293Z" transform="translate(-37.944 -552.204)" fill="#582f7f"/>
      <path id="Path_21772-2" data-name="Path 21772" d="M180.29,647.337l.585.293,0-1.3-.585-.293Z" transform="translate(-151.777 -614.204)" fill="#582f7f"/>
      <path id="Path_21773-2" data-name="Path 21773" d="M141.75,626.377l.585.293,0-1.3-.585-.293Z" transform="translate(-113.843 -593.548)" fill="#582f7f"/>
      <path id="Path_21774-2" data-name="Path 21774" d="M219.18,482.706l.585.293,0-1.3-.585-.293Z" transform="translate(-190.056 -451.956)" fill="#582f7f"/>
      <path id="Path_21775-2" data-name="Path 21775" d="M219.01,575.5l.585.293,0-1.3-.585-.293Z" transform="translate(-189.889 -543.404)" fill="#582f7f"/>
      <path id="Path_21776-2" data-name="Path 21776" d="M218.84,668.307l.585.293,0-1.3-.585-.293Z" transform="translate(-189.722 -634.871)" fill="#582f7f"/>
      <path id="Path_21777-2" data-name="Path 21777" d="M64.82,491.617l.585.293,0-1.3-.585-.293Z" transform="translate(-38.121 -460.737)" fill="#582f7f"/>
      <path id="Path_21778-2" data-name="Path 21778" d="M26.44,377.856l.585.293,0-1.3-.585-.293Z" transform="translate(-0.344 -348.623)" fill="#582f7f"/>
      <path id="Path_21779-2" data-name="Path 21779" d="M64.99,398.826l.585.293,0-1.3-.585-.293Z" transform="translate(-38.289 -369.289)" fill="#582f7f"/>
      <path id="Path_21780-2" data-name="Path 21780" d="M180.46,554.517l.585.293,0-1.3-.585-.293Z" transform="translate(-151.945 -522.727)" fill="#582f7f"/>
      <path id="Path_21781-2" data-name="Path 21781" d="M103.54,419.8l.585.293,0-1.3-.585-.293Z" transform="translate(-76.233 -389.956)" fill="#582f7f"/>
      <path id="Path_21782-2" data-name="Path 21782" d="M26.27,470.637l.585.293,0-1.3-.585-.293Z" transform="translate(-0.177 -440.061)" fill="#582f7f"/>
      <path id="Path_21783-2" data-name="Path 21783" d="M142.09,440.766l.585.293,0-1.3-.585-.293Z" transform="translate(-114.177 -410.623)" fill="#582f7f"/>
      <path id="Path_21784-2" data-name="Path 21784" d="M141.92,533.557l.585.293,0-1.3-.585-.293Z" transform="translate(-114.01 -502.07)" fill="#582f7f"/>
      <path id="Path_21785-2" data-name="Path 21785" d="M103.37,512.587l.585.293,0-1.3-.585-.293Z" transform="translate(-76.066 -481.404)" fill="#582f7f"/>
      <path id="Path_21786-2" data-name="Path 21786" d="M431.86,653.166l1.3-.169,0-1.3-1.3.169Z" transform="translate(-399.395 -619.783)" fill="#582f7f"/>
      <path id="Path_21787-2" data-name="Path 21787" d="M518.52,269.846l1.3-.169,0-1.3-1.3.169Z" transform="translate(-484.693 -242.008)" fill="#582f7f"/>
      <path id="Path_21788-2" data-name="Path 21788" d="M518.35,362.656l1.3-.169,0-1.3-1.3.169Z" transform="translate(-484.526 -333.475)" fill="#582f7f"/>
      <path id="Path_21789-2" data-name="Path 21789" d="M518,548.256l1.3-.169,0-1.3-1.3.169Z" transform="translate(-484.181 -516.39)" fill="#582f7f"/>
      <path id="Path_21790-2" data-name="Path 21790" d="M517.83,641.075l1.3-.169,0-1.3-1.3.169Z" transform="translate(-484.014 -607.867)" fill="#582f7f"/>
      <path id="Path_21791-2" data-name="Path 21791" d="M432.2,467.555l1.3-.169,0-1.3-1.3.169Z" transform="translate(-399.729 -436.858)" fill="#582f7f"/>
      <path id="Path_21792-2" data-name="Path 21792" d="M518.17,455.475l1.3-.169,0-1.3-1.305.169Z" transform="translate(-484.349 -424.952)" fill="#582f7f"/>
      <path id="Path_21793-2" data-name="Path 21793" d="M260.04,584.515l1.3-.169,0-1.3-1.305.169Z" transform="translate(-230.274 -552.126)" fill="#582f7f"/>
      <path id="Path_21794-2" data-name="Path 21794" d="M346.38,386.826l1.3-.169,0-1.3-1.3.169Z" transform="translate(-315.258 -357.295)" fill="#582f7f"/>
      <path id="Path_21795-2" data-name="Path 21795" d="M346.55,294.016l1.3-.169,0-1.3-1.3.169Z" transform="translate(-315.425 -265.828)" fill="#582f7f"/>
      <path id="Path_21796-2" data-name="Path 21796" d="M346.21,479.645l1.3-.169,0-1.3-1.3.169Z" transform="translate(-315.09 -448.773)" fill="#582f7f"/>
      <path id="Path_21797-2" data-name="Path 21797" d="M259.87,677.335l1.3-.169,0-1.3-1.3.169Z" transform="translate(-230.107 -643.603)" fill="#582f7f"/>
      <path id="Path_21798-2" data-name="Path 21798" d="M432.55,281.926l1.3-.169,0-1.3-1.3.169Z" transform="translate(-400.074 -253.913)" fill="#582f7f"/>
      <path id="Path_21799-2" data-name="Path 21799" d="M604.52,257.756l1.3-.169,0-1.3-1.3.169Z" transform="translate(-569.342 -230.093)" fill="#582f7f"/>
      <path id="Path_21800-2" data-name="Path 21800" d="M346.04,572.426l1.3-.169,0-1.3-1.3.169Z" transform="translate(-314.923 -540.21)" fill="#582f7f"/>
      <path id="Path_21801-2" data-name="Path 21801" d="M345.86,665.245l1.3-.169,0-1.3-1.3.169Z" transform="translate(-314.746 -631.688)" fill="#582f7f"/>
      <path id="Path_21802-2" data-name="Path 21802" d="M432.03,560.346l1.3-.169,0-1.3-1.3.169Z" transform="translate(-399.562 -528.305)" fill="#582f7f"/>
      <path id="Path_21803-2" data-name="Path 21803" d="M518.69,177.026l1.3-.169,0-1.3-1.3.169Z" transform="translate(-484.86 -150.53)" fill="#582f7f"/>
      <path id="Path_21804-2" data-name="Path 21804" d="M346.72,201.2l1.3-.169,0-1.3-1.305.169Z" transform="translate(-315.592 -174.351)" fill="#582f7f"/>
      <path id="Path_21805-2" data-name="Path 21805" d="M432.72,189.116l1.3-.169,0-1.3-1.3.169Z" transform="translate(-400.241 -162.446)" fill="#582f7f"/>
      <path id="Path_21806-2" data-name="Path 21806" d="M690.683,151.559l0,1.3,1.305-.169,0-1.3Z" transform="translate(-654.148 -126.71)" fill="#582f7f"/>
      <path id="Path_21807-2" data-name="Path 21807" d="M604.69,164.946l1.3-.169,0-1.3-1.3.169Z" transform="translate(-569.509 -138.625)" fill="#582f7f"/>
      <path id="Path_21808-2" data-name="Path 21808" d="M260.21,491.725l1.305-.169,0-1.3-1.3.169Z" transform="translate(-230.442 -460.678)" fill="#582f7f"/>
      <path id="Path_21809-2" data-name="Path 21809" d="M260.73,213.286l1.3-.169,0-1.3-1.305.169Z" transform="translate(-230.953 -186.266)" fill="#582f7f"/>
      <path id="Path_21810-2" data-name="Path 21810" d="M260.56,306.1l1.3-.169,0-1.3-1.3.169Z" transform="translate(-230.786 -277.733)" fill="#582f7f"/>
      <path id="Path_21811-2" data-name="Path 21811" d="M689.82,616.905l1.3-.169,0-1.3-1.3.169Z" transform="translate(-653.302 -584.047)" fill="#582f7f"/>
      <path id="Path_21812-2" data-name="Path 21812" d="M690.51,245.676l1.3-.169,0-1.3-1.3.169Z" transform="translate(-653.981 -218.187)" fill="#582f7f"/>
      <path id="Path_21813-2" data-name="Path 21813" d="M603.83,628.986l1.3-.169,0-1.3-1.3.169Z" transform="translate(-568.663 -595.952)" fill="#582f7f"/>
      <path id="Path_21814-2" data-name="Path 21814" d="M604.34,350.576l1.3-.169,0-1.3-1.3.169Z" transform="translate(-569.165 -321.57)" fill="#582f7f"/>
      <path id="Path_21815-2" data-name="Path 21815" d="M604.17,443.385l1.3-.169,0-1.3-1.3.169Z" transform="translate(-568.997 -413.037)" fill="#582f7f"/>
      <path id="Path_21816-2" data-name="Path 21816" d="M604,536.176l1.3-.169,0-1.3-1.3.169Z" transform="translate(-568.83 -504.485)" fill="#582f7f"/>
      <path id="Path_21817-2" data-name="Path 21817" d="M690,524.086l1.3-.169,0-1.3-1.3.169Z" transform="translate(-653.479 -492.57)" fill="#582f7f"/>
      <path id="Path_21818-2" data-name="Path 21818" d="M690.34,338.485l1.3-.169,0-1.3-1.3.169Z" transform="translate(-653.814 -309.655)" fill="#582f7f"/>
      <path id="Path_21819-2" data-name="Path 21819" d="M690.17,431.3l1.3-.169,0-1.3-1.3.169Z" transform="translate(-653.646 -401.122)" fill="#582f7f"/>
      <path id="Path_21820-2" data-name="Path 21820" d="M432.38,374.746l1.3-.169,0-1.3-1.3.169Z" transform="translate(-399.907 -345.39)" fill="#582f7f"/>
      <path id="Path_21821-2" data-name="Path 21821" d="M260.38,398.906l1.3-.169,0-1.3-1.3.169Z" transform="translate(-230.609 -369.201)" fill="#582f7f"/>
      <path id="Path_21822-2" data-name="Path 21822" d="M192.85,113.279l.585.293,1.3-.169-.585-.293Z" transform="translate(-164.14 -88.984)" fill="#582f7f"/>
      <path id="Path_21823-2" data-name="Path 21823" d="M68.3,104.389l.585.293,1.3-.169-.585-.293Z" transform="translate(-41.547 -80.222)" fill="#582f7f"/>
      <path id="Path_21824-2" data-name="Path 21824" d="M271.83,155.333l-.585-.293-1.3.169.585.293Z" transform="translate(-240.019 -130.307)" fill="#582f7f"/>
      <path id="Path_21825-2" data-name="Path 21825" d="M117.64,71.453l-.585-.293-1.3.169.585.293Z" transform="translate(-88.251 -47.641)" fill="#582f7f"/>
      <path id="Path_21826-2" data-name="Path 21826" d="M31.64,83.543l-.585-.293-1.3.169.585.293Z" transform="translate(-3.602 -59.556)" fill="#582f7f"/>
      <path id="Path_21827-2" data-name="Path 21827" d="M366.7,89.233l-.585-.293-1.3.169.585.293Z" transform="translate(-333.398 -65.164)" fill="#582f7f"/>
      <path id="Path_21828-2" data-name="Path 21828" d="M203.629,59.373l-.585-.293-1.3.169.585.293Z" transform="translate(-172.89 -35.735)" fill="#582f7f"/>
      <path id="Path_21829-2" data-name="Path 21829" d="M233.29,134.373l-.585-.293-1.3.169.585.293Z" transform="translate(-202.084 -109.65)" fill="#582f7f"/>
      <path id="Path_21830-2" data-name="Path 21830" d="M289.6,47.283l-.585-.293-1.3.169.585.293Z" transform="translate(-257.51 -23.82)" fill="#582f7f"/>
      <path id="Path_21831-2" data-name="Path 21831" d="M357.829,143.253l-.585-.293-1.3.169.585.293Z" transform="translate(-324.668 -118.402)" fill="#582f7f"/>
      <path id="Path_21832-2" data-name="Path 21832" d="M326.26,68.139l.585.293,1.3-.169-.585-.293Z" transform="translate(-295.454 -44.497)" fill="#582f7f"/>
      <path id="Path_21833-2" data-name="Path 21833" d="M319.279,122.283l-.585-.293-1.3.169.585.293Z" transform="translate(-286.723 -97.735)" fill="#582f7f"/>
      <path id="Path_21834-2" data-name="Path 21834" d="M240.29,80.219l.585.293,1.3-.169-.585-.293Z" transform="translate(-210.835 -56.402)" fill="#582f7f"/>
      <path id="Path_21835-2" data-name="Path 21835" d="M278.84,101.189l.585.293,1.3-.169-.585-.293Z" transform="translate(-248.779 -77.069)" fill="#582f7f"/>
      <path id="Path_21836-2" data-name="Path 21836" d="M154.3,92.3l.585.293,1.3-.169-.585-.293Z" transform="translate(-126.196 -68.307)" fill="#582f7f"/>
      <path id="Path_21837-2" data-name="Path 21837" d="M614.485,107.162l1.3-.169-.585-.293-1.3.169Z" transform="translate(-578.575 -82.667)" fill="#582f7f"/>
      <path id="Path_21838-2" data-name="Path 21838" d="M653.755,127.67l-1.3.169.585.293,1.3-.169Z" transform="translate(-616.519 -103.333)" fill="#582f7f"/>
      <path id="Path_21839-2" data-name="Path 21839" d="M108.74,125.483l-.585-.293-1.3.169.585.293Z" transform="translate(-79.491 -100.889)" fill="#582f7f"/>
      <path id="Path_21840-2" data-name="Path 21840" d="M537.395,65.222l1.3-.169-.585-.293-1.3.169Z" transform="translate(-502.696 -41.333)" fill="#582f7f"/>
      <path id="Path_21841-2" data-name="Path 21841" d="M567.755,139.76l-1.3.169.585.293,1.305-.169Z" transform="translate(-531.87 -115.248)" fill="#582f7f"/>
      <path id="Path_21842-2" data-name="Path 21842" d="M461.6,23.113l-.585-.293-1.3.169.585.293Z" transform="translate(-426.807 0)" fill="#582f7f"/>
      <path id="Path_21843-2" data-name="Path 21843" d="M575.945,86.2l1.3-.169-.585-.293-1.3.169Z" transform="translate(-540.64 -62.01)" fill="#582f7f"/>
      <path id="Path_21844-2" data-name="Path 21844" d="M185.83,167.423l-.585-.293-1.305.169.585.293Z" transform="translate(-155.37 -142.222)" fill="#582f7f"/>
      <path id="Path_21845-2" data-name="Path 21845" d="M223.795,188.1l-1.3.169.585.293,1.3-.169Z" transform="translate(-193.314 -162.889)" fill="#582f7f"/>
      <path id="Path_21846-2" data-name="Path 21846" d="M147.29,146.453l-.585-.293-1.3.169.585.293Z" transform="translate(-117.435 -121.556)" fill="#582f7f"/>
      <path id="Path_21847-2" data-name="Path 21847" d="M395.794,163.93l-1.3.169.585.293,1.3-.169Z" transform="translate(-362.612 -139.069)" fill="#582f7f"/>
      <path id="Path_21848-2" data-name="Path 21848" d="M481.755,151.84l-1.305.169.585.293,1.3-.169Z" transform="translate(-447.221 -127.154)" fill="#582f7f"/>
      <path id="Path_21849-2" data-name="Path 21849" d="M309.795,176.01l-1.3.169.585.293,1.3-.169Z" transform="translate(-277.963 -150.974)" fill="#582f7f"/>
      <path id="Path_21850-2" data-name="Path 21850" d="M498.845,44.252l1.3-.169-.585-.293-1.3.169Z" transform="translate(-464.751 -20.667)" fill="#582f7f"/>
      <path id="Path_21851-2" data-name="Path 21851" d="M412.26,56.049l.585.293,1.3-.169-.585-.293Z" transform="translate(-380.103 -32.582)" fill="#582f7f"/>
      <path id="Path_21852-2" data-name="Path 21852" d="M405.26,110.2l-.585-.293-1.3.169.585.293Z" transform="translate(-371.352 -85.83)" fill="#582f7f"/>
      <path id="Path_21853-2" data-name="Path 21853" d="M375.6,35.2l-.585-.293-1.3.169.585.293Z" transform="translate(-342.158 -11.915)" fill="#582f7f"/>
      <path id="Path_21854-2" data-name="Path 21854" d="M443.79,131.163l-.585-.293-1.3.169.585.293Z" transform="translate(-409.277 -106.487)" fill="#582f7f"/>
      <path id="Path_21855-2" data-name="Path 21855" d="M491.25,98.113l-.585-.293-1.3.169.585.293Z" transform="translate(-455.991 -73.915)" fill="#582f7f"/>
      <path id="Path_21856-2" data-name="Path 21856" d="M450.81,77.019l.585.293,1.3-.169-.585-.293Z" transform="translate(-418.047 -53.248)" fill="#582f7f"/>
      <path id="Path_21857-2" data-name="Path 21857" d="M529.79,119.083l-.585-.293-1.3.169.585.293Z" transform="translate(-493.926 -94.582)" fill="#582f7f"/>
    </g>
    <g id="Shape_-73-3" data-name="Shape -73" transform="translate(874.123 622.77)">
      <path id="Path_21750-3" data-name="Path 21750" d="M219.53,297.076l.585.293,0-1.3-.585-.293Z" transform="translate(-190.401 -269.012)" fill="#582f7f"/>
      <path id="Path_21751-3" data-name="Path 21751" d="M26.78,192.226l.585.293,0-1.3-.585-.293Z" transform="translate(-0.679 -165.679)" fill="#582f7f"/>
      <path id="Path_21752-3" data-name="Path 21752" d="M142.26,347.956l.585.293,0-1.3-.585-.293Z" transform="translate(-114.345 -319.156)" fill="#582f7f"/>
      <path id="Path_21753-3" data-name="Path 21753" d="M180.8,368.916l.585.293,0-1.3-.585-.293Z" transform="translate(-152.279 -339.813)" fill="#582f7f"/>
      <path id="Path_21754-3" data-name="Path 21754" d="M26.96,99.406l.585.293,0-1.3-.585-.293Z" transform="translate(-0.856 -74.201)" fill="#582f7f"/>
      <path id="Path_21755-3" data-name="Path 21755" d="M103.71,326.986l.585.293,0-1.3-.585-.293Z" transform="translate(-76.4 -298.49)" fill="#582f7f"/>
      <path id="Path_21756-3" data-name="Path 21756" d="M26.61,285.036l.585.293,0-1.3-.585-.293Z" transform="translate(-0.512 -257.146)" fill="#582f7f"/>
      <path id="Path_21757-3" data-name="Path 21757" d="M65.16,306.007l.585.293,0-1.3-.585-.293Z" transform="translate(-38.456 -277.813)" fill="#582f7f"/>
      <path id="Path_21758-3" data-name="Path 21758" d="M65.51,120.376l.585.293,0-1.3-.585-.293Z" transform="translate(-38.801 -94.868)" fill="#582f7f"/>
      <path id="Path_21759-3" data-name="Path 21759" d="M142.44,255.136l.585.293,0-1.3-.585-.293Z" transform="translate(-114.522 -227.679)" fill="#582f7f"/>
      <path id="Path_21760-3" data-name="Path 21760" d="M180.98,276.106l.585.293,0-1.3-.585-.293Z" transform="translate(-152.456 -248.346)" fill="#582f7f"/>
      <path id="Path_21761-3" data-name="Path 21761" d="M103.89,234.166l.585.293,0-1.3-.585-.293Z" transform="translate(-76.578 -207.012)" fill="#582f7f"/>
      <path id="Path_21762-3" data-name="Path 21762" d="M104.06,141.346l.585.293,0-1.3-.585-.293Z" transform="translate(-76.745 -115.535)" fill="#582f7f"/>
      <path id="Path_21763-3" data-name="Path 21763" d="M65.33,213.2l.585.293,0-1.3-.585-.293Z" transform="translate(-38.623 -186.345)" fill="#582f7f"/>
      <path id="Path_21764-3" data-name="Path 21764" d="M180.63,461.736l.585.293,0-1.3-.585-.293Z" transform="translate(-152.112 -431.291)" fill="#582f7f"/>
      <path id="Path_21765-3" data-name="Path 21765" d="M219.7,204.256l.585.293,0-1.3-.585-.293Z" transform="translate(-190.568 -177.535)" fill="#582f7f"/>
      <path id="Path_21766-3" data-name="Path 21766" d="M142.61,162.316l.585.293,0-1.3-.585-.293Z" transform="translate(-114.689 -136.201)" fill="#582f7f"/>
      <path id="Path_21767-3" data-name="Path 21767" d="M181.15,183.286l.585.293,0-1.3-.585-.293Z" transform="translate(-152.624 -156.868)" fill="#582f7f"/>
      <path id="Path_21768-3" data-name="Path 21768" d="M26.09,563.456l.585.293,0-1.3-.585-.293Z" transform="translate(0 -531.54)" fill="#582f7f"/>
      <path id="Path_21769-3" data-name="Path 21769" d="M219.35,389.886l.585.293,0-1.3-.585-.293Z" transform="translate(-190.223 -360.48)" fill="#582f7f"/>
      <path id="Path_21770-3" data-name="Path 21770" d="M103.19,605.4l.585.293,0-1.3-.585-.293Z" transform="translate(-75.889 -572.873)" fill="#582f7f"/>
      <path id="Path_21771-3" data-name="Path 21771" d="M64.64,584.426l.585.293,0-1.3-.585-.293Z" transform="translate(-37.944 -552.206)" fill="#582f7f"/>
      <path id="Path_21772-3" data-name="Path 21772" d="M180.29,647.336l.585.293,0-1.3-.585-.293Z" transform="translate(-151.777 -614.207)" fill="#582f7f"/>
      <path id="Path_21773-3" data-name="Path 21773" d="M141.75,626.376l.585.293,0-1.3-.585-.293Z" transform="translate(-113.843 -593.55)" fill="#582f7f"/>
      <path id="Path_21774-3" data-name="Path 21774" d="M219.18,482.706l.585.293,0-1.3-.585-.293Z" transform="translate(-190.056 -451.958)" fill="#582f7f"/>
      <path id="Path_21775-3" data-name="Path 21775" d="M219.01,575.5l.585.293,0-1.3-.585-.293Z" transform="translate(-189.889 -543.406)" fill="#582f7f"/>
      <path id="Path_21776-3" data-name="Path 21776" d="M218.84,668.306l.585.293,0-1.3-.585-.293Z" transform="translate(-189.721 -634.873)" fill="#582f7f"/>
      <path id="Path_21777-3" data-name="Path 21777" d="M64.82,491.616l.585.293,0-1.3-.585-.293Z" transform="translate(-38.121 -460.739)" fill="#582f7f"/>
      <path id="Path_21778-3" data-name="Path 21778" d="M26.44,377.856l.585.293,0-1.3-.585-.293Z" transform="translate(-0.344 -348.624)" fill="#582f7f"/>
      <path id="Path_21779-3" data-name="Path 21779" d="M64.99,398.826l.585.293,0-1.3-.585-.293Z" transform="translate(-38.289 -369.291)" fill="#582f7f"/>
      <path id="Path_21780-3" data-name="Path 21780" d="M180.46,554.516l.585.293,0-1.3-.585-.293Z" transform="translate(-151.944 -522.729)" fill="#582f7f"/>
      <path id="Path_21781-3" data-name="Path 21781" d="M103.54,419.8l.585.293,0-1.3-.585-.293Z" transform="translate(-76.233 -389.957)" fill="#582f7f"/>
      <path id="Path_21782-3" data-name="Path 21782" d="M26.27,470.636l.585.293,0-1.3-.585-.293Z" transform="translate(-0.177 -440.062)" fill="#582f7f"/>
      <path id="Path_21783-3" data-name="Path 21783" d="M142.09,440.766l.585.293,0-1.3-.585-.293Z" transform="translate(-114.177 -410.624)" fill="#582f7f"/>
      <path id="Path_21784-3" data-name="Path 21784" d="M141.92,533.556l.585.293,0-1.3-.585-.293Z" transform="translate(-114.01 -502.072)" fill="#582f7f"/>
      <path id="Path_21785-3" data-name="Path 21785" d="M103.37,512.586l.585.293,0-1.3-.585-.293Z" transform="translate(-76.066 -481.405)" fill="#582f7f"/>
      <path id="Path_21786-3" data-name="Path 21786" d="M431.86,653.165l1.3-.169,0-1.3-1.3.169Z" transform="translate(-399.394 -619.785)" fill="#582f7f"/>
      <path id="Path_21787-3" data-name="Path 21787" d="M518.52,269.845l1.3-.169,0-1.3-1.305.169Z" transform="translate(-484.693 -242.009)" fill="#582f7f"/>
      <path id="Path_21788-3" data-name="Path 21788" d="M518.35,362.655l1.3-.169,0-1.3-1.305.169Z" transform="translate(-484.525 -333.476)" fill="#582f7f"/>
      <path id="Path_21789-3" data-name="Path 21789" d="M518,548.255l1.305-.169,0-1.3-1.3.169Z" transform="translate(-484.181 -516.392)" fill="#582f7f"/>
      <path id="Path_21790-3" data-name="Path 21790" d="M517.83,641.075l1.3-.169,0-1.3-1.3.169Z" transform="translate(-484.014 -607.87)" fill="#582f7f"/>
      <path id="Path_21791-3" data-name="Path 21791" d="M432.2,467.555l1.3-.169,0-1.3-1.3.169Z" transform="translate(-399.729 -436.859)" fill="#582f7f"/>
      <path id="Path_21792-3" data-name="Path 21792" d="M518.17,455.475l1.305-.169,0-1.3-1.305.169Z" transform="translate(-484.348 -424.954)" fill="#582f7f"/>
      <path id="Path_21793-3" data-name="Path 21793" d="M260.04,584.515l1.3-.169,0-1.3-1.305.169Z" transform="translate(-230.274 -552.128)" fill="#582f7f"/>
      <path id="Path_21794-3" data-name="Path 21794" d="M346.38,386.825l1.305-.169,0-1.3-1.3.169Z" transform="translate(-315.258 -357.297)" fill="#582f7f"/>
      <path id="Path_21795-3" data-name="Path 21795" d="M346.55,294.015l1.305-.169,0-1.3-1.3.169Z" transform="translate(-315.425 -265.829)" fill="#582f7f"/>
      <path id="Path_21796-3" data-name="Path 21796" d="M346.21,479.645l1.3-.169,0-1.3-1.305.169Z" transform="translate(-315.09 -448.774)" fill="#582f7f"/>
      <path id="Path_21797-3" data-name="Path 21797" d="M259.87,677.335l1.3-.169,0-1.3-1.305.169Z" transform="translate(-230.107 -643.605)" fill="#582f7f"/>
      <path id="Path_21798-3" data-name="Path 21798" d="M432.55,281.925l1.3-.169,0-1.3-1.3.169Z" transform="translate(-400.074 -253.914)" fill="#582f7f"/>
      <path id="Path_21799-3" data-name="Path 21799" d="M604.52,257.755l1.3-.169,0-1.3-1.305.169Z" transform="translate(-569.341 -230.093)" fill="#582f7f"/>
      <path id="Path_21800-3" data-name="Path 21800" d="M346.04,572.425l1.3-.169,0-1.3-1.305.169Z" transform="translate(-314.923 -540.212)" fill="#582f7f"/>
      <path id="Path_21801-3" data-name="Path 21801" d="M345.86,665.245l1.305-.169,0-1.3-1.3.169Z" transform="translate(-314.746 -631.69)" fill="#582f7f"/>
      <path id="Path_21802-3" data-name="Path 21802" d="M432.03,560.345l1.3-.169,0-1.3-1.3.169Z" transform="translate(-399.562 -528.307)" fill="#582f7f"/>
      <path id="Path_21803-3" data-name="Path 21803" d="M518.69,177.025l1.305-.169,0-1.3-1.3.169Z" transform="translate(-484.86 -150.531)" fill="#582f7f"/>
      <path id="Path_21804-3" data-name="Path 21804" d="M346.72,201.2l1.305-.169,0-1.3-1.305.169Z" transform="translate(-315.592 -174.351)" fill="#582f7f"/>
      <path id="Path_21805-3" data-name="Path 21805" d="M432.72,189.115l1.3-.169,0-1.3-1.3.169Z" transform="translate(-400.241 -162.446)" fill="#582f7f"/>
      <path id="Path_21806-3" data-name="Path 21806" d="M690.683,151.559l0,1.3,1.305-.169,0-1.3Z" transform="translate(-654.148 -126.711)" fill="#582f7f"/>
      <path id="Path_21807-3" data-name="Path 21807" d="M604.69,164.945l1.3-.169,0-1.3-1.305.169Z" transform="translate(-569.509 -138.626)" fill="#582f7f"/>
      <path id="Path_21808-3" data-name="Path 21808" d="M260.21,491.725l1.305-.169,0-1.3-1.3.169Z" transform="translate(-230.441 -460.68)" fill="#582f7f"/>
      <path id="Path_21809-3" data-name="Path 21809" d="M260.73,213.285l1.3-.169,0-1.3-1.305.169Z" transform="translate(-230.953 -186.267)" fill="#582f7f"/>
      <path id="Path_21810-3" data-name="Path 21810" d="M260.56,306.1l1.3-.169,0-1.3-1.305.169Z" transform="translate(-230.786 -277.734)" fill="#582f7f"/>
      <path id="Path_21811-3" data-name="Path 21811" d="M689.82,616.905l1.305-.169,0-1.3-1.3.169Z" transform="translate(-653.301 -584.049)" fill="#582f7f"/>
      <path id="Path_21812-3" data-name="Path 21812" d="M690.51,245.675l1.305-.169,0-1.3-1.3.169Z" transform="translate(-653.98 -218.188)" fill="#582f7f"/>
      <path id="Path_21813-3" data-name="Path 21813" d="M603.83,628.985l1.3-.169,0-1.3-1.305.169Z" transform="translate(-568.662 -595.954)" fill="#582f7f"/>
      <path id="Path_21814-3" data-name="Path 21814" d="M604.34,350.575l1.305-.169,0-1.3-1.3.169Z" transform="translate(-569.164 -321.571)" fill="#582f7f"/>
      <path id="Path_21815-3" data-name="Path 21815" d="M604.17,443.385l1.305-.169,0-1.3-1.3.169Z" transform="translate(-568.997 -413.039)" fill="#582f7f"/>
      <path id="Path_21816-3" data-name="Path 21816" d="M604,536.175l1.3-.169,0-1.3-1.3.169Z" transform="translate(-568.83 -504.487)" fill="#582f7f"/>
      <path id="Path_21817-3" data-name="Path 21817" d="M690,524.085l1.3-.169,0-1.3-1.305.169Z" transform="translate(-653.478 -492.572)" fill="#582f7f"/>
      <path id="Path_21818-3" data-name="Path 21818" d="M690.34,338.485l1.3-.169,0-1.3-1.3.169Z" transform="translate(-653.813 -309.656)" fill="#582f7f"/>
      <path id="Path_21819-3" data-name="Path 21819" d="M690.17,431.295l1.3-.169,0-1.3-1.305.169Z" transform="translate(-653.646 -401.124)" fill="#582f7f"/>
      <path id="Path_21820-3" data-name="Path 21820" d="M432.38,374.745l1.3-.169,0-1.3-1.3.169Z" transform="translate(-399.906 -345.391)" fill="#582f7f"/>
      <path id="Path_21821-3" data-name="Path 21821" d="M260.38,398.905l1.305-.169,0-1.3-1.3.169Z" transform="translate(-230.609 -369.202)" fill="#582f7f"/>
      <path id="Path_21822-3" data-name="Path 21822" d="M192.85,113.279l.585.293,1.3-.169-.585-.293Z" transform="translate(-164.14 -88.984)" fill="#582f7f"/>
      <path id="Path_21823-3" data-name="Path 21823" d="M68.3,104.389l.585.293,1.305-.169-.585-.293Z" transform="translate(-41.547 -80.223)" fill="#582f7f"/>
      <path id="Path_21824-3" data-name="Path 21824" d="M271.83,155.333l-.585-.293-1.3.169.585.293Z" transform="translate(-240.019 -130.308)" fill="#582f7f"/>
      <path id="Path_21825-3" data-name="Path 21825" d="M117.64,71.453l-.585-.293-1.3.169.585.293Z" transform="translate(-88.251 -47.641)" fill="#582f7f"/>
      <path id="Path_21826-3" data-name="Path 21826" d="M31.64,83.543l-.585-.293-1.3.169.585.293Z" transform="translate(-3.602 -59.556)" fill="#582f7f"/>
      <path id="Path_21827-3" data-name="Path 21827" d="M366.7,89.233l-.585-.293-1.305.169.585.293Z" transform="translate(-333.398 -65.164)" fill="#582f7f"/>
      <path id="Path_21828-3" data-name="Path 21828" d="M203.63,59.373l-.585-.293-1.3.169.585.293Z" transform="translate(-172.89 -35.736)" fill="#582f7f"/>
      <path id="Path_21829-3" data-name="Path 21829" d="M233.29,134.373l-.585-.293-1.3.169.585.293Z" transform="translate(-202.084 -109.651)" fill="#582f7f"/>
      <path id="Path_21830-3" data-name="Path 21830" d="M289.6,47.283l-.585-.293-1.305.169.585.293Z" transform="translate(-257.509 -23.82)" fill="#582f7f"/>
      <path id="Path_21831-3" data-name="Path 21831" d="M357.829,143.253l-.585-.293-1.3.169.585.293Z" transform="translate(-324.667 -118.402)" fill="#582f7f"/>
      <path id="Path_21832-3" data-name="Path 21832" d="M326.26,68.139l.585.293,1.3-.169-.585-.293Z" transform="translate(-295.454 -44.497)" fill="#582f7f"/>
      <path id="Path_21833-3" data-name="Path 21833" d="M319.279,122.283l-.585-.293-1.3.169.585.293Z" transform="translate(-286.723 -97.736)" fill="#582f7f"/>
      <path id="Path_21834-3" data-name="Path 21834" d="M240.29,80.219l.585.293,1.3-.169-.585-.293Z" transform="translate(-210.834 -56.402)" fill="#582f7f"/>
      <path id="Path_21835-3" data-name="Path 21835" d="M278.84,101.189l.585.293,1.3-.169-.585-.293Z" transform="translate(-248.779 -77.069)" fill="#582f7f"/>
      <path id="Path_21836-3" data-name="Path 21836" d="M154.3,92.3l.585.293,1.3-.169-.585-.293Z" transform="translate(-126.196 -68.308)" fill="#582f7f"/>
      <path id="Path_21837-3" data-name="Path 21837" d="M614.485,107.162l1.305-.169-.585-.293-1.3.169Z" transform="translate(-578.574 -82.667)" fill="#582f7f"/>
      <path id="Path_21838-3" data-name="Path 21838" d="M653.755,127.67l-1.3.169.585.293,1.305-.169Z" transform="translate(-616.518 -103.334)" fill="#582f7f"/>
      <path id="Path_21839-3" data-name="Path 21839" d="M108.74,125.483l-.585-.293-1.305.169.585.293Z" transform="translate(-79.491 -100.889)" fill="#582f7f"/>
      <path id="Path_21840-3" data-name="Path 21840" d="M537.395,65.222l1.305-.169-.585-.293-1.3.169Z" transform="translate(-502.695 -41.333)" fill="#582f7f"/>
      <path id="Path_21841-3" data-name="Path 21841" d="M567.755,139.76l-1.3.169.585.293,1.305-.169Z" transform="translate(-531.87 -115.249)" fill="#582f7f"/>
      <path id="Path_21842-3" data-name="Path 21842" d="M461.6,23.113l-.585-.293-1.3.169.585.293Z" transform="translate(-426.807 0)" fill="#582f7f"/>
      <path id="Path_21843-3" data-name="Path 21843" d="M575.945,86.2l1.3-.169-.585-.293-1.3.169Z" transform="translate(-540.64 -62.01)" fill="#582f7f"/>
      <path id="Path_21844-3" data-name="Path 21844" d="M185.83,167.423l-.585-.293-1.305.169.585.293Z" transform="translate(-155.37 -142.223)" fill="#582f7f"/>
      <path id="Path_21845-3" data-name="Path 21845" d="M223.8,188.1l-1.305.169.585.293,1.3-.169Z" transform="translate(-193.314 -162.89)" fill="#582f7f"/>
      <path id="Path_21846-3" data-name="Path 21846" d="M147.29,146.453l-.585-.293-1.305.169.585.293Z" transform="translate(-117.435 -121.556)" fill="#582f7f"/>
      <path id="Path_21847-3" data-name="Path 21847" d="M395.794,163.93l-1.3.169.585.293,1.3-.169Z" transform="translate(-362.612 -139.069)" fill="#582f7f"/>
      <path id="Path_21848-3" data-name="Path 21848" d="M481.755,151.84l-1.305.169.585.293,1.3-.169Z" transform="translate(-447.221 -127.154)" fill="#582f7f"/>
      <path id="Path_21849-3" data-name="Path 21849" d="M309.795,176.01l-1.3.169.585.293,1.305-.169Z" transform="translate(-277.963 -150.974)" fill="#582f7f"/>
      <path id="Path_21850-3" data-name="Path 21850" d="M498.845,44.252l1.3-.169-.585-.293-1.3.169Z" transform="translate(-464.751 -20.667)" fill="#582f7f"/>
      <path id="Path_21851-3" data-name="Path 21851" d="M412.26,56.049l.585.293,1.305-.169-.585-.293Z" transform="translate(-380.102 -32.582)" fill="#582f7f"/>
      <path id="Path_21852-3" data-name="Path 21852" d="M405.26,110.2l-.585-.293-1.3.169.585.293Z" transform="translate(-371.352 -85.83)" fill="#582f7f"/>
      <path id="Path_21853-3" data-name="Path 21853" d="M375.6,35.2l-.585-.293-1.3.169.585.293Z" transform="translate(-342.158 -11.915)" fill="#582f7f"/>
      <path id="Path_21854-3" data-name="Path 21854" d="M443.79,131.163l-.585-.293-1.305.169.585.293Z" transform="translate(-409.277 -106.487)" fill="#582f7f"/>
      <path id="Path_21855-3" data-name="Path 21855" d="M491.25,98.113l-.585-.293-1.305.169.585.293Z" transform="translate(-455.991 -73.915)" fill="#582f7f"/>
      <path id="Path_21856-3" data-name="Path 21856" d="M450.81,77.019l.585.293,1.305-.169-.585-.293Z" transform="translate(-418.047 -53.249)" fill="#582f7f"/>
      <path id="Path_21857-3" data-name="Path 21857" d="M529.79,119.083l-.585-.293-1.3.169.585.293Z" transform="translate(-493.925 -94.582)" fill="#582f7f"/>
    </g>
  </g>
</svg>
