<svg xmlns="http://www.w3.org/2000/svg" width="390.013" height="306.788" viewBox="0 0 390.013 306.788">
  <g id="pic10_request_project" transform="translate(-69.31 -53.92)">
    <path id="Path_749" data-name="Path 749" d="M155.784,170.367s31.21,62.511-7.9,69.412-49.1-34.522-49.1-34.522L84.63,213.846s15.45,47.819,58.491,47.773,72.165-13.266,71.334-56.361S155.784,170.367,155.784,170.367Z" transform="translate(9.648 61.807)" fill="#0f3d3e"/>
    <path id="Path_750" data-name="Path 750" d="M155.784,170.367s31.21,62.511-7.9,69.412-49.1-34.522-49.1-34.522L84.63,213.846s15.45,47.819,58.491,47.773,72.165-13.266,71.334-56.361S155.784,170.367,155.784,170.367Z" transform="translate(9.648 61.807)" fill="#fff" opacity="0.44"/>
    <path id="Path_751" data-name="Path 751" d="M179.42,110.79l-12.4,3.665-18.6,7.285s-38.967,31.5-24.8,64.98,78.016,64.857,78.016,64.857l25.261-30.949Z" transform="translate(32.248 30.348)" fill="#0f3d3e"/>
    <path id="Path_752" data-name="Path 752" d="M84.18,145.89l7.383,17.437,7.806-17.437Z" transform="translate(9.364 49.078)" fill="#e6e6e6"/>
    <rect id="Rectangle_259" data-name="Rectangle 259" width="247.655" height="306.788" transform="translate(211.668 53.92)" fill="#e6e6e6"/>
    <ellipse id="Ellipse_63" data-name="Ellipse 63" cx="70.291" cy="28.219" rx="70.291" ry="28.219" transform="translate(266.02 192.591)" opacity="0.08"/>
    <ellipse id="Ellipse_64" data-name="Ellipse 64" cx="8.964" cy="8.435" rx="8.964" ry="8.435" transform="translate(233.881 71.051)" fill="#ffd200"/>
    <ellipse id="Ellipse_65" data-name="Ellipse 65" cx="8.964" cy="8.435" rx="8.964" ry="8.435" transform="translate(259.158 71.051)" fill="#0f3d3e"/>
    <ellipse id="Ellipse_66" data-name="Ellipse 66" cx="8.964" cy="8.435" rx="8.964" ry="8.435" transform="translate(283.344 71.051)" fill="#24285b"/>
    <path id="Path_753" data-name="Path 753" d="M306.432,127.564,252.781,98.41,199.13,127.564v58.293l53.651,29.154,53.651-29.154Z" transform="translate(81.753 23.741)" fill="#ffd200"/>
    <rect id="Rectangle_260" data-name="Rectangle 260" width="104.743" height="26.194" rx="6.13" transform="translate(268.122 279.947)" fill="#24285b"/>
    <ellipse id="Ellipse_67" data-name="Ellipse 67" cx="24.071" cy="22.652" rx="24.071" ry="22.652" transform="translate(358.475 270.393)" fill="#0f3d3e"/>
    <path id="Path_754" data-name="Path 754" d="M256.15,212.8l6.78,8.466,10.952-16.272" transform="translate(117.661 80.616)" fill="none" stroke="#fff" stroke-linecap="round" stroke-linejoin="round" stroke-width="3"/>
    <path id="Path_755" data-name="Path 755" d="M199.13,127.564l53.651,29.154,53.651-29.154L252.781,98.41Z" transform="translate(81.753 23.741)" fill="#fff" opacity="0.47"/>
    <path id="Path_756" data-name="Path 756" d="M212.48,135.122l10.463,5.674,53.472-29.062-10.463-5.674Z" transform="translate(90.16 27.824)" fill="#fff" opacity="0.47"/>
    <path id="Path_757" data-name="Path 757" d="M232.05,146.574v58.293L285.7,175.713V117.42Z" transform="translate(102.484 33.886)" opacity="0.09"/>
    <path id="Path_758" data-name="Path 758" d="M230.593,160.421v11.993l-11.033-6V154.44Z" transform="translate(94.619 53.641)" opacity="0.09"/>
    <path id="Path_759" data-name="Path 759" d="M223.383,131.061v17.483l-11.033-5.981V125.08Z" transform="translate(90.078 37.973)" fill="#fff" opacity="0.37"/>
    <path id="Path_760" data-name="Path 760" d="M276.895,134.952l-10.463,5.674L212.96,111.564l10.463-5.674Z" transform="translate(90.462 27.733)" fill="#fff" opacity="0.47"/>
    <path id="Path_761" data-name="Path 761" d="M245.55,130.891v17.483l11.017-5.981V124.91Z" transform="translate(110.985 37.883)" fill="#fff" opacity="0.37"/>
    <path id="Path_762" data-name="Path 762" d="M126.373,97.889s2.445,10.214,6.519,16.287a5.574,5.574,0,0,0,3.5,2.345,5.869,5.869,0,0,0,4.23-.688c3.259-1.932,6.975-5.444,6.372-11.073L147.2,95.1a9.564,9.564,0,0,0-7.432-8.312C132.452,84.546,124.548,91.739,126.373,97.889Z" transform="translate(35.767 17.315)" fill="#f4a28c"/>
    <path id="Path_763" data-name="Path 763" d="M141.566,93.2l16.4,30.642-18.6,7.285L134.9,105.914Z" transform="translate(41.305 20.961)" fill="#f4a28c"/>
    <path id="Path_764" data-name="Path 764" d="M133.166,98.955a45.617,45.617,0,0,0,9.518-3.635,8.414,8.414,0,0,0,3.1,9.2,7.914,7.914,0,0,0,9.6.092l-4.563-12.775a11.069,11.069,0,0,0-8.524-7.407,41.677,41.677,0,0,0-5.264-.736c-4.417-.307-9.322,3.88-13.674,2.454a2.8,2.8,0,0,0-2.607.45,2.437,2.437,0,0,0-.913,2.341c.7,4.079,3.52,9.984,9.778,10.429a10.838,10.838,0,0,0,3.553-.414Z" transform="translate(31.794 15.881)" fill="#24285b"/>
    <path id="Path_765" data-name="Path 765" d="M135.09,98.831s-1.222-3.865,1.939-4.494,4.971,4.954.978,6.717Z" transform="translate(41.278 21.542)" fill="#f4a28c"/>
    <path id="Path_766" data-name="Path 766" d="M128.1,98l-1.63,4.724a1.6,1.6,0,0,0,.308,1.593,1.833,1.833,0,0,0,1.6.6l4.286-.506Z" transform="translate(35.935 23.523)" fill="#f4a28c"/>
    <path id="Path_767" data-name="Path 767" d="M135.35,106.967a12.655,12.655,0,0,0,5.02-5.337s1.76,6.135-3.259,14.048Z" transform="translate(41.588 25.46)" fill="#ce8172" opacity="0.31"/>
    <path id="Path_768" data-name="Path 768" d="M97.914,199.582S93.5,184.475,85.74,182.712,88.4,205.425,88.4,205.425Z" transform="translate(8.538 68.679)" fill="#f4a28c"/>
    <path id="Path_770" data-name="Path 770" d="M0,0,17.608.269,18.046,27.5.438,27.236Z" transform="translate(91.394 237.753) rotate(-15.51)" fill="#ffd200"/>
    <rect id="Rectangle_262" data-name="Rectangle 262" width="63.658" height="42.282" transform="translate(69.31 158.084)" fill="#e6e6e6"/>
    <path id="Path_769" data-name="Path 769" d="M82.99,136.172l8.1,10.751,12.223-16.763" transform="translate(8.615 40.684)" fill="none" stroke="#878787" stroke-linecap="round" stroke-linejoin="round" stroke-width="3" opacity="0.43"/>
  </g>
</svg>
