<svg xmlns="http://www.w3.org/2000/svg" width="766.089" height="496.243" viewBox="0 0 766.089 496.243">
  <g id="pic2_web_services" transform="translate(0 0)">
    <ellipse id="Ellipse_51" data-name="Ellipse 51" cx="20.306" cy="20.311" rx="20.306" ry="20.311" transform="translate(104.149 190.457)" fill="#ffb8b8"/>
    <path id="Path_489" data-name="Path 489" d="M67.543,545.046l5.142,8.738L108.824,538.1l-7.589-12.895Z" transform="translate(-11.701 -90.885)" fill="#ffb8b8"/>
    <path id="Path_490" data-name="Path 490" d="M203.724,694.43l10.125,17.206h0a12.725,12.725,0,0,1-4.51,17.419l-.356.21L192.4,701.094Z" transform="translate(-146.342 -244.176)" fill="#2f2e41"/>
    <path id="Path_491" data-name="Path 491" d="M139.6,579.077h10.136l4.822-39.1H139.6Z" transform="translate(-24.185 -93.439)" fill="#ffb8b8"/>
    <path id="Path_492" data-name="Path 492" d="M273.162,733.215h19.962a12.722,12.722,0,0,1,12.721,12.724v.413H273.163Z" transform="translate(-160.332 -250.887)" fill="#2f2e41"/>
    <path id="Path_493" data-name="Path 493" d="M224.173,683.836a3.714,3.714,0,0,1-3-1.516L211.4,669.04a3.722,3.722,0,0,1,.93-5.3l43.5-29.06-26.247-69.03,56.127,4.633,1.89,59.32a29.81,29.81,0,0,1-14.919,26.813l-46.651,26.92a3.708,3.708,0,0,1-1.858.5Z" transform="translate(-149.507 -221.891)" fill="#2f2e41"/>
    <path id="Path_494" data-name="Path 494" d="M275.45,714.492a3.721,3.721,0,0,1-3.711-3.589l-2.057-57.789,25.471-1.342-2.028,58.2a3.71,3.71,0,0,1-3.472,3.583l-13.95.925C275.619,714.49,275.535,714.492,275.45,714.492Z" transform="translate(-159.73 -236.794)" fill="#2f2e41"/>
    <path id="Path_495" data-name="Path 495" d="M295.233,559.289c-6.48,0-29.116-7.291-36.973-9.89-1.176.941-7.634,5.771-15.172,4.888-4.651-.546-8.746-3.179-12.171-7.828-7.562-10.266,1.778-54.291,10.945-89.415A28.331,28.331,0,0,1,275.37,436.47h0a28.585,28.585,0,0,1,21.568,20.986c1.726,7.027.241,15.294-.843,21.33a29,29,0,0,0-.775,6.181c.532,4.258,3.488,71.029,1.587,73.88C296.7,559.152,296.119,559.289,295.233,559.289Z" transform="translate(-152.534 -199.422)" fill="#0f3d3e"/>
    <path id="Path_496" data-name="Path 496" d="M276.871,565.495a8.885,8.885,0,0,0,.778-13.6l.4-80.912L259,474.156l5.6,78.536a8.931,8.931,0,0,0,12.276,12.8Z" transform="translate(-157.879 -205.509)" fill="#ffb8b8"/>
    <path id="Path_497" data-name="Path 497" d="M280.761,518.359H260.239a3.732,3.732,0,0,1-3.72-3.687l-.5-55.647a14.553,14.553,0,1,1,29.106.036l-.64,55.621A3.734,3.734,0,0,1,280.761,518.359Z" transform="translate(-157.362 -200.924)" fill="#0f3d3e"/>
    <path id="Path_498" data-name="Path 498" d="M276.783,419.249A20.6,20.6,0,0,1,257.1,402.757a23.715,23.715,0,0,1,.76-10.762,28.9,28.9,0,0,1,39.631-18.154c2.487,1.126,4.937,2.743,6.076,5.224s.426,5.95-2.065,7.067c-1.628.73-3.671.371-5.115,1.419-2.075,1.5-1.541,4.706-.614,7.1s1.974,5.282.421,7.321c-1.447,1.9-4.339,1.841-6.618,1.126s-4.527-1.913-6.9-1.669c-3.464.355-5.954,3.8-6.415,7.255s.624,6.9,1.695,10.219Z" transform="translate(-157.499 -188.255)" fill="#2f2e41"/>
    <path id="Path_499" data-name="Path 499" d="M350.819,749.7h-213.3a.827.827,0,0,1,0-1.654h213.3a.827.827,0,0,1,0,1.654Z" transform="translate(-136.689 -253.453)" fill="#ccc"/>
    <path id="Path_500" data-name="Path 500" d="M932.93,511.179H403.113a13.659,13.659,0,0,1-13.641-13.645V170.76a10.006,10.006,0,0,1,9.994-10H936.4a10.179,10.179,0,0,1,10.167,10.169v326.6A13.659,13.659,0,0,1,932.93,511.179Z" transform="translate(-180.482 -151.827)" fill="#f2f2f2"/>
    <path id="Path_501" data-name="Path 501" d="M919.87,499.646H426.1c-7.238,0-13.127-5.516-13.127-12.3V202.792c0-5.028,4.364-9.119,9.727-9.119H923.111c5.453,0,9.889,4.158,9.889,9.269V487.351C933,494.131,927.112,499.646,919.87,499.646Z" transform="translate(-184.553 -157.522)" fill="#fff"/>
    <path id="Path_502" data-name="Path 502" d="M946.341,170.59h-557.1v-6.947a13.7,13.7,0,0,1,13.691-13.686H932.65a13.7,13.7,0,0,1,13.691,13.686Z" transform="translate(-180.442 -149.958)" fill="#3f3d56"/>
    <ellipse id="Ellipse_52" data-name="Ellipse 52" cx="3.541" cy="3.542" rx="3.541" ry="3.542" transform="translate(230.139 6.795)" fill="#fff"/>
    <ellipse id="Ellipse_53" data-name="Ellipse 53" cx="3.541" cy="3.542" rx="3.541" ry="3.542" transform="translate(243.581 6.795)" fill="#fff"/>
    <ellipse id="Ellipse_54" data-name="Ellipse 54" cx="3.541" cy="3.542" rx="3.541" ry="3.542" transform="translate(257.023 6.795)" fill="#fff"/>
    <path id="Path_503" data-name="Path 503" d="M691.926,266.639H595.354a5.43,5.43,0,0,1,0-10.86h96.572a5.43,5.43,0,0,1,0,10.86Z" transform="translate(-215.21 -168.269)" fill="#ccc"/>
    <path id="Path_504" data-name="Path 504" d="M837.072,266.639H740.5a5.43,5.43,0,0,1,0-10.86h96.572a5.43,5.43,0,0,1,0,10.86Z" transform="translate(-240.356 -168.269)" fill="#ccc"/>
    <path id="Path_505" data-name="Path 505" d="M822.1,291.522h-168a5.43,5.43,0,0,1,0-10.86h168a5.43,5.43,0,0,1,0,10.86Z" transform="translate(-225.388 -172.575)" fill="#ccc"/>
    <path id="Path_506" data-name="Path 506" d="M691.926,241.412H595.354a5.43,5.43,0,0,1,0-10.86h96.572a5.43,5.43,0,0,1,0,10.86Z" transform="translate(-215.21 -163.904)" fill="#ccc"/>
    <path id="Path_507" data-name="Path 507" d="M770.694,241.758H743.264a5.43,5.43,0,0,1,0-10.86h27.429a5.43,5.43,0,0,1,0,10.86Z" transform="translate(-240.835 -163.964)" fill="#ccc"/>
    <path id="Path_508" data-name="Path 508" d="M622.783,291.522H595.354a5.43,5.43,0,0,1,0-10.86h27.429a5.43,5.43,0,0,1,0,10.86Z" transform="translate(-215.21 -172.575)" fill="#ccc"/>
    <path id="Path_509" data-name="Path 509" d="M691.926,499.639H595.354a5.43,5.43,0,0,1,0-10.86h96.572a5.43,5.43,0,0,1,0,10.86Z" transform="translate(-215.21 -208.589)" fill="#ccc"/>
    <path id="Path_510" data-name="Path 510" d="M837.072,499.639H740.5a5.43,5.43,0,0,1,0-10.86h96.572a5.43,5.43,0,0,1,0,10.86Z" transform="translate(-240.356 -208.589)" fill="#ccc"/>
    <path id="Path_511" data-name="Path 511" d="M822.1,524.521h-168a5.43,5.43,0,0,1,0-10.86h168a5.43,5.43,0,0,1,0,10.86Z" transform="translate(-225.388 -212.895)" fill="#ccc"/>
    <path id="Path_512" data-name="Path 512" d="M691.926,474.411H595.354a5.43,5.43,0,0,1,0-10.86h96.572a5.43,5.43,0,0,1,0,10.86Z" transform="translate(-215.21 -204.223)" fill="#ccc"/>
    <path id="Path_513" data-name="Path 513" d="M770.694,474.758H743.264a5.43,5.43,0,0,1,0-10.86h27.429a5.43,5.43,0,0,1,0,10.86Z" transform="translate(-240.835 -204.283)" fill="#ccc"/>
    <path id="Path_514" data-name="Path 514" d="M622.783,524.521H595.354a5.43,5.43,0,0,1,0-10.86h27.429a5.43,5.43,0,0,1,0,10.86Z" transform="translate(-215.21 -212.895)" fill="#ccc"/>
    <path id="Path_515" data-name="Path 515" d="M673.567,413.239A7.768,7.768,0,0,1,668.091,411l-36.3-35.856a7.569,7.569,0,0,1,0-10.77l36.155-35.711a8.02,8.02,0,0,1,11.28.036h0a8.014,8.014,0,0,1,0,11.318l-26.866,26.873a4.477,4.477,0,0,0,0,6.323l26.721,26.727a7.788,7.788,0,0,1-5.512,13.3Z" transform="translate(-222.073 -180.483)" fill="#0f3d3e"/>
    <path id="Path_516" data-name="Path 516" d="M751.082,413.239a7.788,7.788,0,0,1-5.512-13.3l26.72-26.727a4.477,4.477,0,0,0,0-6.323l-26.866-26.873a8,8,0,0,1,0-11.318h0a8.02,8.02,0,0,1,11.28-.036l36.155,35.712a7.569,7.569,0,0,1,0,10.77L756.558,411A7.77,7.77,0,0,1,751.082,413.239Z" transform="translate(-241.743 -180.483)" fill="#0f3d3e"/>
  </g>
</svg>
