<svg xmlns="http://www.w3.org/2000/svg" xmlns:xlink="http://www.w3.org/1999/xlink" width="1044.31" height="490.269" viewBox="0 0 1044.31 490.269">
  <defs>
    <linearGradient id="linear-gradient" y1="0.5" x2="1" y2="0.5" gradientUnits="objectBoundingBox">
      <stop offset="0" stop-color="gray" stop-opacity="0.251"/>
      <stop offset="0.54" stop-color="gray" stop-opacity="0.122"/>
      <stop offset="1" stop-color="gray" stop-opacity="0.102"/>
    </linearGradient>
    <linearGradient id="linear-gradient-2" x1="-8.171" y1="1" x2="-8.171" y2="0" xlink:href="#linear-gradient"/>
  </defs>
  <g id="pic3_ui_ux_services" data-name="pic3_ui/ux_services" transform="translate(-0.005 0.03)">
    <path id="Path_517" data-name="Path 517" d="M1054.31,583a74.057,74.057,0,0,1-20.633,24.337c-1.22.961-2.467,1.887-3.732,2.8q-2.557,1.764-5.239,3.465c-13.9,8.668-30.17,14.593-46.058,18.914q-6.5,1.763-13.035,3.315-5.517,1.314-11.043,2.451c-1.4.3-2.8.582-4.2.882s-3.005.591-4.486.882l-2.126.4c-41.106,7.451-82.749,8.871-124.7,7l-1.992-.1-3.185-.159q-12.775-.652-25.577-1.667l-3.23-.256-1.426-.115q-7.177-.591-14.354-1.3-9.456-.882-18.938-1.949l-.816-.088-.664-.079h0c-22.562-2.5-45.178-5.493-67.821-8.571l-3.2-.441-5.75-.785-4.844-.661h0l-1.435-.194q-11.465-1.578-22.93-3.121l-1.238-.168C627.3,625.861,612.87,624,598.48,622.308l-1.875-.22h0q-8.837-1.032-17.664-1.966l-4.486-.467-5.966-.591c-16.534-1.614-33.058-2.9-49.547-3.7q-11.9-.582-23.845-.882-9.868-.22-19.736-.256-13.385-.062-26.824.15H446.51c-12.622.2-25.272.556-37.93.979l-2.279.071h-.754c-26.913.935-53.827,2.178-80.668,3.069l-6.558.212h-.951q-13.995.441-27.963.679h-5.544l-4.163.053q-6.486.062-12.945.071h-5.284c-15.807-.044-31.551-.388-47.2-1.19l-1.74-.1c-30.4-1.614-60.465-4.947-89.989-11q-4.584-.943-9.151-1.975a425.654,425.654,0,0,1-59.927-17.909c-9.186-3.527-18.427-7.6-25.415-14.5-17.727-17.636-11.07-52.175,11.994-62.218,18.041-7.857,39.177-1.464,58.581-5.008a30.357,30.357,0,0,0,3.526-.882,49.474,49.474,0,0,0,7.177-2.91c.789-.388,1.579-.8,2.377-1.234a60.754,60.754,0,0,0,5.311-3.192,81.4,81.4,0,0,0,8.074-6.023q1.7-1.428,3.319-2.963a62.668,62.668,0,0,0,9.8-11.525A40.5,40.5,0,0,0,140.9,471.9a25.989,25.989,0,0,0,1.112-2.751,25.268,25.268,0,0,0,1.068-4.074c1.13-6.543-.7-12.927-7.069-18.323a18.776,18.776,0,0,0-1.794-1.331,27.54,27.54,0,0,0-3.893-2.213c-.547-.256-1.112-.5-1.687-.741-8.2-3.395-18.777-4.7-27.694-7.054h0a49.472,49.472,0,0,1-7.93-2.707c-1.624-.741-3.239-1.517-4.826-2.328h0l-.422-.229h0a107.632,107.632,0,0,1-34.987-28.217,91.891,91.891,0,0,1-6.513-9.294c-.6-.97-1.184-1.966-1.74-2.963-15.762-27.952-17.386-63.77-.987-91.255a86.291,86.291,0,0,1,6.639-9.576q1.184-1.508,2.449-2.963c15.61-18.1,38.037-30.368,60.68-39.451,30.394-12.186,62.215-19.884,94.645-24.954q9.868-1.543,19.736-2.769c27.541-3.457,55.405-5.291,83.072-6.684q38.818-1.931,77.977-2.5,13.268-.176,26.563-.15,29.954,0,59.909,1.137,9.868.37,19.736.882,25.307,1.287,50.516,3.527Q557.572,216,569.629,217.3c61.219,6.578,121.549,17.733,179.8,35.077q9.913,2.945,19.736,6.172a770.288,770.288,0,0,1,72.119,27.4q3.337,1.472,6.656,2.963,22.06,9.946,43.492,21.436A485.044,485.044,0,0,1,945.8,343.851q10.155,7.319,19.736,15.272a281.59,281.59,0,0,1,31.5,30.545q1.292,1.473,2.557,2.963,6.567,7.751,12.47,16.057c19.2,27.124,32.081,58.145,41.59,89.836C1062.034,526.176,1067.614,557.224,1054.31,583Z" transform="translate(-17.96 -176.449)" fill="#0f3d3e" opacity="0.1"/>
    <path id="Path_518" data-name="Path 518" d="M1045.286,488.393h-76.64V392.57h34.09q-1.265-1.49-2.557-2.963h-31.5V359.063q-9.563-7.936-19.736-15.272v45.853H772.26v-100.8h78.775q-3.328-1.49-6.657-2.963H772.26v-27.4q-9.868-3.2-19.736-6.172v33.508H500.364l-.6-.564,72.944-68.056q-12.057-1.305-24.168-2.372l-50.516,47.122V211.329q-9.868-.511-19.736-.882V265.2L418.377,209.31q-13.286,0-26.563.15l81.242,75.789-.6.564H230.747V218.736q-9.868,1.226-19.736,2.769v64.37H55.667q-1.265,1.455-2.449,2.963H210.992v100.77H47.53c.556,1,1.139,1.993,1.74,2.963H210.992v95.823H131.446q-1.615,1.534-3.319,2.963h82.866V589.41q9.868,1.384,19.736,2.892V491.356H478.268V614.214q9.868,0,19.736.256V491.356h254.5v150.4l.816.088q9.473,1.041,18.938,1.949V491.356H948.891V639.988c1.507-.273,3.014-.564,4.486-.882s2.8-.555,4.2-.882q5.526-1.155,11.043-2.451V491.356h77.259Zm-567.018,0H230.747V392.57H478.268Zm0-98.759H230.747v-100.8H474.76l3.481,2.7Zm274.237,98.759H498.022V392.57H752.505Zm0-98.759H498.022v-100.8H752.505Zm196.386,98.759H772.26V392.57H948.891Z" transform="translate(-21.002 -176.441)" fill="#0f3d3e" opacity="0.1"/>
    <path id="Path_519" data-name="Path 519" d="M315.139,679.24a1.241,1.241,0,0,1-.1.291h0a.77.77,0,0,1,.108-.291Z" transform="translate(-48.526 -231.997)" fill="#eaecf0"/>
    <path id="Path_520" data-name="Path 520" d="M318.862,669.254h-5.544l-4.163.053-.458-4.647-.422-4.409-1.956-20.113-.063-.617v-.273l-.547-5.661,8.379-3.086,1.023,8.209.072.608v.071l2.072,16.666.637,5.114.368,2.972.314,2.548v.088Z" transform="translate(-47.566 -226.234)" fill="#eaecf0"/>
    <path id="Path_521" data-name="Path 521" d="M335.864,507.2l.1.291H335.3l-.1-.291Z" transform="translate(-34.488 -59.965)" fill="#3a3768"/>
    <path id="Path_522" data-name="Path 522" d="M439.4,679.55Z" transform="translate(-61.322 -232.033)" fill="#3a3768"/>
    <path id="Path_523" data-name="Path 523" d="M480.1,546.145v.379s-7.823,21.013-10.371,38.948q-.26,1.763-.431,3.527c-.126,1.243-.224,2.46-.278,3.642-.072,1.384-.09,2.725-.054,4v.882c0,.591.063,1.2.1,1.825s.09,1.252.144,1.9.108,1.226.17,1.852c1.929,19.4,9.258,47.8,9.258,47.8s.242.767.556,2.072h-2.027c-12.622.2-25.272.556-37.93.979l-2.279.071h-.754c-26.913.935-53.827,2.178-80.668,3.069l-6.558.212h-.951q-13.995.441-27.963.679H317.6a14.94,14.94,0,0,1,2.171-2.407,15.759,15.759,0,0,1,2.2-1.675A49.922,49.922,0,0,1,335.74,648.1a11.159,11.159,0,0,1,3.149-.379l6.28.123h.969l9.635.185,82.642,1.614h.206l.583-.115a15.657,15.657,0,0,0,2.79-.97,9.656,9.656,0,0,0,5.885-7.477c0-.273.072-.564.09-.882a10.232,10.232,0,0,0,0-1.287,4.3,4.3,0,0,0-.072-.943c-.072-.326-.09-.653-.152-.988-1.992-10.943-5.383-44.627-5.383-44.627v.106s0-1.437.081-3.853v-1.111c0-.538.063-1.12.1-1.764,0-.379.054-.767.081-1.173.045-.591.1-1.2.153-1.834a.509.509,0,0,1,0-.115q.054-.6.108-1.217v-.132c1.337-13.006,5.544-33.6,18.839-41.223,6.235-3.589,10.362-4.312,13.08-3.607,3.965,1.023,4.961,5.079,5.176,7.716v.511a12.672,12.672,0,0,1,.126,1.49Z" transform="translate(-48.79 -215.084)" fill="#3a3768"/>
    <path id="Path_524" data-name="Path 524" d="M315.139,679.24a1.241,1.241,0,0,1-.1.291h0a.77.77,0,0,1,.108-.291Z" transform="translate(-48.526 -231.997)" opacity="0.1"/>
    <path id="Path_525" data-name="Path 525" d="M335.864,507.2l.1.291H335.3l-.1-.291Z" transform="translate(-34.488 -59.965)" opacity="0.1"/>
    <path id="Path_526" data-name="Path 526" d="M439.4,679.55Z" transform="translate(-61.322 -232.033)" opacity="0.1"/>
    <path id="Path_527" data-name="Path 527" d="M480.1,546.1v.273a236.829,236.829,0,0,0-9.527,33.94h0q-.323,1.763-.592,3.412c-.09.564-.17,1.129-.251,1.693q-.26,1.764-.431,3.527c-.126,1.243-.224,2.46-.278,3.642-.072,1.384-.09,2.725-.054,4v.882c0,.591.063,1.2.1,1.825s.09,1.261.144,1.9.108,1.226.17,1.852.126,1.226.2,1.843c.287,2.5.646,5.114,1.059,7.777,2.808,17.962,8,38.084,8,38.084s.26.811.574,2.169H477.18c-12.622.2-25.272.556-37.93.979l-2.279.071h-.754c-26.913.935-53.827,2.178-80.668,3.069l-6.558.212h-.951q-13.995.441-27.963.679H317.53a15.236,15.236,0,0,1,2.243-2.5,14.826,14.826,0,0,1,2.207-1.693,50.467,50.467,0,0,1,13.771-5.811,11.482,11.482,0,0,1,3.149-.37l6.28.124h.969l9.662.185,82.7,1.6h.144a2.308,2.308,0,0,0,.646-.132,14.658,14.658,0,0,0,2.808-1,9.649,9.649,0,0,0,5.8-7.328c0-.273.072-.564.09-.882a10.221,10.221,0,0,0,0-1.287,4.3,4.3,0,0,0-.072-.944c-.072-.326-.09-.714-.153-1.085C445.79,625.883,442.4,592.2,442.4,592.2s0-1.437.081-3.853v-1.111c0-.538.063-1.12.1-1.764,0-.379.054-.767.081-1.173.045-.591.1-1.2.152-1.834a.512.512,0,0,1,0-.115q.054-.6.108-1.217V581c.161-1.622.377-3.368.646-5.194,1.866-12.768,6.531-29.443,18.158-36.153,6.073-3.527,10.137-4.268,12.865-3.659,4.2.943,5.194,5.194,5.383,7.874v.511A12.658,12.658,0,0,1,480.1,546.1Z" transform="translate(-48.782 -215.039)" opacity="0.1"/>
    <path id="Path_528" data-name="Path 528" d="M315.139,679.24a1.241,1.241,0,0,1-.1.291h0a.77.77,0,0,1,.108-.291Z" transform="translate(-48.526 -231.997)" fill="#3a3768"/>
    <path id="Path_529" data-name="Path 529" d="M335.864,507.2l.1.291H335.3l-.1-.291Z" transform="translate(-34.488 -59.965)" fill="#3a3768"/>
    <path id="Path_530" data-name="Path 530" d="M439.4,679.55Z" transform="translate(-61.322 -232.033)" fill="#3a3768"/>
    <path id="Path_531" data-name="Path 531" d="M477.455,545.255s-11.707,31.444-11.142,50.261,9.707,54.177,9.707,54.177.395,1.243.816,3.227c-12.622.2-25.272.556-37.93.979l-2.279.071h-.754c-26.913.935-53.827,2.178-80.668,3.069l-6.558.212H347.7q-13.995.441-27.963.679H314.19a15.992,15.992,0,0,1,4.925-5.088l.242-.168a50.409,50.409,0,0,1,13.762-5.687,11.478,11.478,0,0,1,3.149-.37l8.289.159h.969l9.985.194,80.516,1.578a13.706,13.706,0,0,0,3.328-1.067,9.613,9.613,0,0,0,1.023-.538h0a10.731,10.731,0,0,0,2.691-2.16c1.7-1.9,2.826-4.718,2.072-8.818-2-10.943-5.383-44.627-5.383-44.627s-.574-40.985,19.413-52.492c8.074-4.647,12.613-4.488,15.152-2.645a1.677,1.677,0,0,1,.215.159C478.038,539.126,477.455,545.255,477.455,545.255Z" transform="translate(-48.439 -214.944)" fill="#3a3768"/>
    <path id="Path_532" data-name="Path 532" d="M135.769,633.716l-.323,3.289-1.956,20.184q-4.584-.943-9.151-1.975l2.288-18.35.772-6.234Z" transform="translate(-28.905 -226.25)" fill="#eaecf0"/>
    <path id="Path_533" data-name="Path 533" d="M55.12,441,103.977,338.79l196.8,15.087L318.915,441Z" transform="translate(-5.671 -40.056)" fill="#efc6cd"/>
    <path id="Path_534" data-name="Path 534" d="M55.12,463.615V454.7H318.915v13.033Z" transform="translate(-5.671 -53.759)" fill="#d48a9b"/>
    <path id="Path_535" data-name="Path 535" d="M155.775,603.094,273.8,605.458a1.643,1.643,0,0,0,1.349-.649,1.582,1.582,0,0,0,.238-1.458l-18.4-48.78-79.493-1.49L153.981,600.4a1.894,1.894,0,0,0,.152,1.828A1.965,1.965,0,0,0,155.775,603.094Z" transform="translate(-31.938 -217.082)" fill="#dfe6f5"/>
    <path id="Path_536" data-name="Path 536" d="M155.775,603.094,273.8,605.458a1.643,1.643,0,0,0,1.349-.649,1.582,1.582,0,0,0,.238-1.458l-18.4-48.78-79.493-1.49L153.981,600.4a1.894,1.894,0,0,0,.152,1.828A1.965,1.965,0,0,0,155.775,603.094Z" transform="translate(-31.938 -217.082)" opacity="0.15"/>
    <path id="Path_537" data-name="Path 537" d="M154.94,600.793l119.244,2.469L257.973,555a4.039,4.039,0,0,0-3.759-2.734l-76.631-1.428Z" transform="translate(-32.053 -216.817)" fill="#dfe6f5"/>
    <path id="Path_538" data-name="Path 538" d="M165.881,590.663l14.291-30.906a3.817,3.817,0,0,1,3.463-2.187h35.517a3.763,3.763,0,0,1,3.795,3.73v33.393a3.709,3.709,0,0,1-1.18,2.7,3.842,3.842,0,0,1-2.8,1.028l-49.816-2.5a3.806,3.806,0,0,1-3.049-1.783A3.674,3.674,0,0,1,165.881,590.663Z" transform="translate(-33.144 -217.613)" fill="#4c4c56"/>
    <path id="Path_539" data-name="Path 539" d="M244,587.941l.61-17.636a2.732,2.732,0,0,1,2.745-2.645h10.5a2.732,2.732,0,0,1,2.691,2.24l3.086,17.539a2.674,2.674,0,0,1-.6,2.195,2.773,2.773,0,0,1-2.09.971l-14.2.123a2.768,2.768,0,0,1-1.968-.824A2.673,2.673,0,0,1,244,587.941Z" transform="translate(-41.217 -218.805)" fill="#d1d9ec"/>
    <path id="Path_540" data-name="Path 540" d="M88.511,460.142l39.571-3.245a2.7,2.7,0,0,1,2.817,1.561l37.418,83.249-20.885,46.082c.655-1.446,1.139,9.805-3.588.053L84.375,465.9C83.577,464.269,86.654,460.371,88.511,460.142Z" transform="translate(-24.78 -205.708)" fill="#4c4c56"/>
    <path id="Path_541" data-name="Path 541" d="M88.511,460.142l39.571-3.245a2.7,2.7,0,0,1,2.817,1.561l37.418,83.249-20.885,46.082c.655-1.446,1.139,9.805-3.588.053L84.375,465.9C83.577,464.269,86.654,460.371,88.511,460.142Z" transform="translate(-24.78 -205.708)" opacity="0.15"/>
    <path id="Path_542" data-name="Path 542" d="M88.725,459.877l41.581-5.22a2.7,2.7,0,0,1,2.817,1.561l37.427,83.249-22.643,49.953L86.6,463.66a2.605,2.605,0,0,1,.066-2.433A2.693,2.693,0,0,1,88.725,459.877Z" transform="translate(-24.994 -205.443)" fill="#4c4c56"/>
    <path id="Path_543" data-name="Path 543" d="M100.306,466.6l30.062-4.6a2.7,2.7,0,0,1,2.916,1.623l31.489,75.709a2.361,2.361,0,0,1-.054,1.94L150.3,570.878a2.449,2.449,0,0,1-4.4,0L98.27,470.355a2.6,2.6,0,0,1,.054-2.383,2.69,2.69,0,0,1,1.983-1.373Z" transform="translate(-26.196 -206.31)" fill="#0f3d3e"/>
    <path id="Path_544" data-name="Path 544" d="M439.4,679.55Z" transform="translate(-61.322 -232.033)" fill="#fff"/>
    <path id="Path_545" data-name="Path 545" d="M430.212,628.973s-.619,1.005-1.525,2.645l-.081.15c-.807,1.411-1.794,3.263-2.8,5.291l-2.279.071h-.754c-26.913.935-53.827,2.178-80.668,3.069l-6.558.212H334.6q-13.995.441-27.963.679h-5.544l-4.163.053q-6.486.062-12.945.071h-5.131c-15.807-.044-31.551-.388-47.2-1.19l-1.74-.1c3.077-6.578,8.576-17.362,13.044-20.81,3.454-2.645,28.259-5.582,51.072-7.733l2.4-.229h.054l6.369-.582c8.729-.785,16.65-1.42,22.3-1.852l.52-.044-2.943-9.7-4.261-14.108,1.211-11.851.1-.952h-.135a8.05,8.05,0,0,1-3.588-.441l-42.6-1.446h-.771l-16.363-.573h0c-8.774-.309-15.009-.538-15.251-.582a3.927,3.927,0,0,1-.754-.2,3.4,3.4,0,0,1-1.041-.617,4.109,4.109,0,0,1-.9-1.058h-.574l-2.315.15-1.175.079c-.045-.123-.081-.247-.126-.362-.108-.344-.215-.67-.314-1.005h-.619l-8.074-.168h-.144S204.212,567.4,193.33,563.5h0c-3.992-1.428-6.648-3.589-6.441-6.825a7.274,7.274,0,0,1,.466-2.152c-3.5-6.428,13.591-18.156,26.617-14.92a23.443,23.443,0,0,0,10.819.441,14.038,14.038,0,0,0,5.383-2.407c.161-.115.3-.229.44-.344-.215-.132-.44-.247-.646-.353a10.144,10.144,0,0,0-2.844-.97l3.535-1.014h.054s12.56-1.129,20.732-1.578h.054c2.431-.123,4.486-.2,5.706-.168,5.383.15,15.87-3.633,16.318-4.8s5.239,0,5.239,0l4.19-1.6c4.19-1.6,6.585-3.774,6.585-5.379s3.741-3.342,3.741-3.342c1.687-2.786,5-5.776,8.469-8.421,3.005-2.284,6.127-4.321,8.442-5.74a164.8,164.8,0,0,1,3.588-16.965c1.588-5.211,6.513-9.073,8.28-10.326l.646-.423a45.132,45.132,0,0,0-1.974-6.455,4.924,4.924,0,0,0-.215-.529c-.179-.414-.368-.82-.556-1.2l-.278-.529c-.458.088-.9.168-1.382.229a31.931,31.931,0,0,1-4.486.326,30.709,30.709,0,0,1-29.739-22.044s0,0,0-.053A29.379,29.379,0,0,1,283,438.024a28.563,28.563,0,0,1,1.023-7.619h0c.135-.529.3-1.049.466-1.57a1.39,1.39,0,0,1,.063-.176c.081-.238.161-.485.251-.723a32.087,32.087,0,0,1-4.01.344h-.9a19.28,19.28,0,0,1-7.509-1.226h0a10.25,10.25,0,0,1-1.66-.882.215.215,0,0,1-.072-.053,8.393,8.393,0,0,1-1.848-1.437,9.313,9.313,0,0,0,3.651-6.243c.242-1.9-.081-4.03,1.077-5.582a8.109,8.109,0,0,1,2.1-1.764c4.773-3.2,8.558-7.592,12.874-11.375s9.536-7.054,15.341-7.231c7.787-.238,14.641,5.088,22.356,6.093,2.368.309,4.8.2,7.114.785a24.656,24.656,0,0,1,7.222,3.6,18.053,18.053,0,0,1,5.149,4.3,15.037,15.037,0,0,1,2.1,4.929,53.648,53.648,0,0,1,1.794,11.3c.206,3.994,0,8.015.431,11.983a20.329,20.329,0,0,0,3.445,9.638h.117a13.279,13.279,0,0,0,1.112,1.34c-.763.238-1.525.45-2.306.635a36.94,36.94,0,0,1-3.938.767,11.671,11.671,0,0,1-1.839.15,5.577,5.577,0,0,1-1.274-.115l.789.52,2.189,1.446h0l.825.538,1.66,1.085c.377-1.085.9-1.376,1.5-1.305,1.22-1.129,3.041,1.314,3.041,1.314,1.068,2.01,3.938,4.012,6.477,5.493a51.494,51.494,0,0,0,4.6,2.363c33.525,19.637,31.4,49.018,33.372,51.346s2.1,10.758,2.1,10.758,4.943,28.649,7.177,31.127.144,3.342,2.09,6.111,1.5,10.176,1.5,10.176,1.346,17.45,6.136,21.233c4.3,3.395,10.039,31.956,11.178,37.793Z" transform="translate(-35.34 -198.096)" fill="url(#linear-gradient)"/>
    <path id="Path_546" data-name="Path 546" d="M234,556.44s-4.656,7.2-17.843,3.889-30.636,9.223-25.657,15.413,37.086-1.764,37.086-1.764l12.317-2.451-.807-10.079Z" transform="translate(-35.623 -217.479)" fill="#d38884"/>
    <path id="Path_547" data-name="Path 547" d="M234,556.44s-4.656,7.2-17.843,3.889-30.636,9.223-25.657,15.413,37.086-1.764,37.086-1.764l12.317-2.451-.807-10.079Z" transform="translate(-35.623 -217.479)" opacity="0.1"/>
    <path id="Path_548" data-name="Path 548" d="M242.811,555.961l-5.715-.291-3.517,1.005s11.142,1.587,8.074,16.427l12.012-.714Z" transform="translate(-40.145 -217.388)" fill="#a36468"/>
    <path id="Path_549" data-name="Path 549" d="M242.811,555.961l-5.715-.291-3.517,1.005s11.142,1.587,8.074,16.427l12.012-.714Z" transform="translate(-40.145 -217.388)" opacity="0.1"/>
    <path id="Path_550" data-name="Path 550" d="M318.859,518.36s-15.681,8.818-20.086,16.145c0,0-3.66,1.764-3.66,3.315s-2.35,3.739-6.45,5.291l-4.109,1.587s-4.692-1.155-5.131,0-10.694,4.894-15.978,4.753-25.944,1.764-25.944,1.764a17.974,17.974,0,0,1,10.406,20.025l48.821-2.01,18.462-4.039,10.855-10.661Z" transform="translate(-40.548 -212.977)" fill="#444053"/>
    <path id="Path_551" data-name="Path 551" d="M318.859,518.36s-15.681,8.818-20.086,16.145c0,0-3.66,1.764-3.66,3.315s-2.35,3.739-6.45,5.291l-4.109,1.587s-4.692-1.155-5.131,0-10.694,4.894-15.978,4.753-25.944,1.764-25.944,1.764a17.974,17.974,0,0,1,10.406,20.025l48.821-2.01,18.462-4.039,10.855-10.661Z" transform="translate(-40.548 -212.977)" opacity="0.1"/>
    <path id="Path_552" data-name="Path 552" d="M241.993,587.535l-6.908-.132-8.074-.168s-38.127,2.883-37.383-9.1,30.071-16.189,34.153-12.751c3.1,2.6,10.254,4.7,13.519,5.555,1.041.273,1.678.423,1.678.423Z" transform="translate(-35.622 -218.399)" fill="#d38884"/>
    <path id="Path_553" data-name="Path 553" d="M247.084,588.439l-6.908-.132c-2.754-9.3.44-14.426,2.252-16.436,1.041.273,1.678.423,1.678.423Z" transform="translate(-40.713 -219.303)" opacity="0.1"/>
    <path id="Path_554" data-name="Path 554" d="M251.8,588.806l-7.177.494-3.409.229c-4.692-13.544,2.889-18.879,2.889-18.879h2.243l3.669.432Z" transform="translate(-40.773 -219.159)" fill="#a36468"/>
    <path id="Path_555" data-name="Path 555" d="M348.091,484.608l-8.5,15.872s-1.3-16.075-5.087-23.649c-.969-1.94-2.1-3.315-3.418-3.73-3.588-1.111,17.045-23.341,17.045-23.341.691.141,4.638,2.645,9.473,5.881,5.32,3.527,11.725,7.83,16.031,10.581C381.8,471.346,348.091,484.608,348.091,484.608Z" transform="translate(-50.134 -204.867)" fill="#d38884"/>
    <path id="Path_556" data-name="Path 556" d="M336.507,489.62s-6.836,4.312-8.738,10.652A175.214,175.214,0,0,0,324.1,518s3.086,27.229,4.692,28.526,7.715,28.526,7.715,28.526l5.921-3.889-7.769-34.292S339.826,492.8,336.507,489.62Z" transform="translate(-49.458 -209.579)" fill="#444053"/>
    <path id="Path_557" data-name="Path 557" d="M336.507,489.62s-6.836,4.312-8.738,10.652A175.214,175.214,0,0,0,324.1,518s3.086,27.229,4.692,28.526,7.715,28.526,7.715,28.526l5.921-3.889-7.769-34.292S339.826,492.8,336.507,489.62Z" transform="translate(-49.458 -209.579)" opacity="0.1"/>
    <path id="Path_558" data-name="Path 558" d="M349.211,379.376H315.04l5.535-52.986h28.636Z" transform="translate(-32.414 -38.59)" fill="#a36468"/>
    <path id="Path_559" data-name="Path 559" d="M282.8,679.24h.413l-.772.291Z" transform="translate(-45.172 -231.997)" fill="#67647e"/>
    <path id="Path_560" data-name="Path 560" d="M342.389,650.112l-6.683,2.522-.9.326-24.06,9.091-9.177,3.465-12.488,4.718h-5.1c-15.807-.044-31.551-.388-47.2-1.19,3.032-6.534,8.334-16.992,12.658-20.369,3.373-2.645,27.505-5.5,49.781-7.654,2.781-.265,5.526-.52,8.2-.758l.637-.062c8.845-.794,16.848-1.437,22.428-1.878l.9-.071,7.015-.529.736-.723.9,3.774.745,3.016Z" transform="translate(-40.475 -227.003)" fill="#67647e"/>
    <path id="Path_561" data-name="Path 561" d="M282.8,679.24h.413l-.772.291Z" transform="translate(-45.172 -231.997)" opacity="0.1"/>
    <path id="Path_562" data-name="Path 562" d="M342.389,650.112l-6.683,2.522-.9.326-24.06,9.091-9.177,3.465-12.488,4.718h-5.1c-15.807-.044-31.551-.388-47.2-1.19,3.032-6.534,8.334-16.992,12.658-20.369,3.373-2.645,27.505-5.5,49.781-7.654,2.781-.265,5.526-.52,8.2-.758l.637-.062c8.845-.794,16.848-1.437,22.428-1.878l.9-.071,7.015-.529.736-.723.9,3.774.745,3.016Z" transform="translate(-40.475 -227.003)" opacity="0.1"/>
    <path id="Path_563" data-name="Path 563" d="M282.8,679.24h.413l-.772.291Z" transform="translate(-45.172 -231.997)" fill="#67647e"/>
    <path id="Path_564" data-name="Path 564" d="M315.139,679.24a1.241,1.241,0,0,1-.1.291h0a.77.77,0,0,1,.108-.291Z" transform="translate(-48.526 -231.997)" fill="#67647e"/>
    <path id="Path_565" data-name="Path 565" d="M335.963,507.491H335.3l-.1-.291h.664Z" transform="translate(-34.488 -59.965)" fill="#67647e"/>
    <path id="Path_566" data-name="Path 566" d="M353.516,641.4l-.556,18.147v1.076l-.278,8.985-6.558.212h-.951q-13.995.441-27.963.679h-5.544l-4.163.053q-6.486.062-12.945.071H289.4c4.665-2.839,10.7-5.97,17.2-9.1,2.916-1.411,5.939-2.813,8.971-4.2,8.074-3.686,16.247-7.169,22.912-9.946l.852-.353c2.584-1.076,4.925-2.037,6.926-2.848,4.324-1.764,7.069-2.822,7.258-2.892Z" transform="translate(-45.888 -227.51)" fill="#67647e"/>
    <path id="Path_567" data-name="Path 567" d="M293.954,556.34c1.678,3.439,3.409,6.948,6.181,9.629.44.423,1.2.811,1.6.344a1.1,1.1,0,0,0,.17-.652,8.321,8.321,0,0,0-1.615-4.5c-.9-1.358-1.956-2.592-2.754-4s-1.713-4.127-3.508-4.5C291.72,552.187,293.443,555.3,293.954,556.34Z" transform="translate(-46.244 -217.027)" opacity="0.1"/>
    <path id="Path_568" data-name="Path 568" d="M357.565,455.611c-.126.441-.26.882-.4,1.305A30.05,30.05,0,0,1,334.5,476.8c-.969-1.94-2.1-3.315-3.418-3.73-3.588-1.111,17.045-23.341,17.045-23.341C348.782,449.871,352.729,452.419,357.565,455.611Z" transform="translate(-50.134 -204.864)" opacity="0.1"/>
    <path id="Path_569" data-name="Path 569" d="M354.923,442.811c0,16.392-13.52,29.681-30.2,29.681s-30.2-13.289-30.2-29.681,13.52-29.681,30.2-29.681a30.4,30.4,0,0,1,21.371,8.675,29.364,29.364,0,0,1,8.826,21.006Z" transform="translate(-46.416 -200.537)" fill="#d38884"/>
    <path id="Path_570" data-name="Path 570" d="M340.483,496.79s-6.28,7.5-5.275,12.4h7.616l5.571-6.172Z" transform="translate(-50.59 -210.427)" fill="#67647e"/>
    <path id="Path_571" data-name="Path 571" d="M363.253,460.9,339.3,493.27s6.154,8.65,9.088,9.082,19.665-38.287,19.665-38.287Z" transform="translate(-51.022 -206.184)" opacity="0.1"/>
    <path id="Path_572" data-name="Path 572" d="M363.592,460.24,339.63,492.654s6.154,8.641,9.088,9.074,19.665-38.278,19.665-38.278Z" transform="translate(-51.056 -206.106)" fill="#a36468"/>
    <path id="Path_573" data-name="Path 573" d="M335.871,507.26s-1.175,18.147-2.35,21.753,0,36.735,0,36.735l11-4.462-1.911-50.861Z" transform="translate(-50.374 -211.665)" fill="#67647e"/>
    <path id="Path_574" data-name="Path 574" d="M335.864,507.2l.1.291H335.3l-.1-.291Z" transform="translate(-34.488 -59.965)" opacity="0.1"/>
    <path id="Path_575" data-name="Path 575" d="M439.4,679.55Z" transform="translate(-61.322 -232.033)" opacity="0.1"/>
    <path id="Path_576" data-name="Path 576" d="M441.892,637.732s-.206.335-.547.882-.709,1.226-1.184,2.09a.661.661,0,0,0-.063.106c-.664,1.208-1.453,2.689-2.252,4.3-26.913.935-53.827,2.178-80.668,3.069l-6.558.212h-.951l-2.817-9.347v-.1l-.3-.988-1.794-5.873-1.794-5.97-1.857-6.367-.682-2.31-.179-.582-2.925-9.788-3.965-13.288,1.283-12.68h0l.09-.961,1.157-11.357.161-3.368h0l.09-1.764v-.5h0l.2-4.091.592-12.169.305-6.225h0l.054-.943h0l.61-12.495,1.731-5.105.9-2.54,1.992-5.9.431-1.455h0c.628-2.213,1.893-6.587,3.077-10.793h0l.108-.362h0l.081-.273.843-2.989,1.05-3.836c.395-1.473.655-2.522.718-2.883.1-.626,1.794-3.395,4.019-7.054h0c4.486-7.292,11.232-18.024,12-21.621a.381.381,0,0,0,0-.088,4.355,4.355,0,0,1,.188-.644c.368-1.076.9-1.367,1.453-1.3a1.812,1.812,0,0,1,.709.273,5.6,5.6,0,0,1,1.4,1.323c1.05,1.984,3.858,3.968,6.343,5.441l.484.273.287.168c2.063,1.155,3.732,1.9,3.732,1.9,32.834,19.452,30.789,48.56,32.691,50.861s2.054,10.669,2.054,10.669,4.835,28.384,7.033,30.862.153,3.315,2.054,6.058,1.462,9.991,1.462,9.991,1.319,17.283,6.011,21.03S441.892,637.732,441.892,637.732Z" transform="translate(-50.411 -206.122)" opacity="0.1"/>
    <path id="Path_577" data-name="Path 577" d="M442.873,637.407l-.395.67h0c-.314.547-.816,1.411-1.417,2.5L441,640.7c-.682,1.243-1.489,2.751-2.288,4.409h-.754c-26.913.935-53.827,2.178-80.668,3.069l-6.558.212L347.923,639v-.1l-.3-.988-1.857-6.172-1.794-6-1.794-5.987-.709-2.4h0l-3.068-10.3-4.055-13.571,1.121-11.031.153-1.473,1.238-12.53h0l.475-9.77.583-11.807.152-3.1.17-3.58.072-1.508.583-11.8,1.731-5.1.745-2.2,1.74-5.158.368-1.093s1.678-5.793,3.3-11.534c.063-.212.126-.423.179-.635.144-.494.278-.988.422-1.473h0c.144-.494.278-.979.4-1.464.458-1.6.9-3.1,1.2-4.338.44-1.614.736-2.786.8-3.166.1-.626,1.794-3.474,4.1-7.178,4.243-6.9,10.433-16.754,11.743-20.845a6.524,6.524,0,0,0,.179-.644h0a3.331,3.331,0,0,1,.78-1.764c1.2-1.138,2.987,1.305,2.987,1.305,1.05,1.984,3.858,3.977,6.343,5.441a47.84,47.84,0,0,0,4.486,2.337c32.834,19.452,30.789,48.56,32.691,50.87s2.054,10.661,2.054,10.661,4.835,28.384,7.033,30.862.153,3.315,2.054,6.049,1.462,10.088,1.462,10.088,1.319,17.292,6.011,21.039S442.873,637.407,442.873,637.407Z" transform="translate(-50.513 -206.08)" fill="#444053"/>
    <path id="Path_578" data-name="Path 578" d="M376.644,467.712c-3.221,4.6-8.469,12.7-9.868,18.517,0,0-5.131,5.194-7.042,4.9s1.794,3.889,1.794,3.889L341.37,522.479l2.862-8.439s6.011-20.748,6.28-22.618,14.865-23.288,16.022-28.675c.9-4.312,3.768-.432,3.768-.432C371.342,464.255,374.15,466.257,376.644,467.712Z" transform="translate(-51.235 -206.162)" opacity="0.1"/>
    <path id="Path_579" data-name="Path 579" d="M376.644,467.055c-3.221,4.594-8.469,12.7-9.868,18.473,0,0-5.131,5.185-7.042,4.9s1.794,3.889,1.794,3.889L341.37,521.778l2.862-8.439s6.011-20.748,6.28-22.626,14.865-23.279,16.022-28.667c.9-4.321,3.768-.432,3.768-.432C371.342,463.6,374.15,465.583,376.644,467.055Z" transform="translate(-51.235 -206.079)" fill="#444053"/>
    <path id="Path_580" data-name="Path 580" d="M403.122,527.464c.153,6.3-9.231,14.893-9.671,15.4s-29.174,23.808-29.174,23.808l-20.634,15.555a17.668,17.668,0,0,1-8.074,3.668l1.408-13.914,1.391-28.217c3.221-3.527,6.343-7.231,6.414-8.412.144-2.443,5.383-5.044,5.383-5.044s3.669-3.024,3.077-4.753,1.947-10.008,1.947-10.008c1.319-23.491,25.944-25.792,25.944-25.792a170.152,170.152,0,0,1,20.23,9.506C409.716,504.149,402.979,521.177,403.122,527.464Z" transform="translate(-50.639 -209.595)" opacity="0.1"/>
    <path id="Path_581" data-name="Path 581" d="M252.24,588.806l-7.177.494c-3.032-5.07,1.139-18.65,1.139-18.65h.583l3.669.432Z" transform="translate(-41.213 -219.159)" opacity="0.1"/>
    <path id="Path_582" data-name="Path 582" d="M371.787,488.13s-24.626,2.31-25.944,25.792c0,0-2.494,8.218-1.911,9.946s-3.077,4.753-3.077,4.753-5.275,2.592-5.383,5.044-13.457,15.819-13.457,15.819-5.562,6.225-18.462,6.878-18.911,4.532-18.911,4.532-6.28-4.321-10.855-3.024-26.824,3.024-26.824,3.024-5.912,19.258,1.462,20.466c.9.141,73.473,2.592,73.473,2.592s4.961,2.3,12.434-3.315,20.634-15.563,20.634-15.563,28.707-23.341,29.174-23.808,9.868-9.109,9.671-15.4,6.6-23.3-1.794-28.217A170.461,170.461,0,0,0,371.787,488.13Z" transform="translate(-41.291 -209.403)" fill="#444053"/>
    <path id="Path_583" data-name="Path 583" d="M355.089,442.8a29.156,29.156,0,0,1-1.48,9.2,12.415,12.415,0,0,1-1.112-1.508q-2.1-3.174-4.207-6.349a17.24,17.24,0,0,0-4.279-4.956,6.06,6.06,0,0,0-6.28-.653,6.154,6.154,0,0,0-2.691,4.947,55.214,55.214,0,0,0,.152,5.837,3.176,3.176,0,0,1-.547,2.107,3.551,3.551,0,0,1-2.315.882l-2.691.362a1.959,1.959,0,0,1-1.5-.09,1.906,1.906,0,0,1-.979-1.118c-2.234-3.977-3.777-8.915-7.966-10.828-2.584-1.182-5.993-1.1-7.652-3.377-1.13-1.552-.978-3.659-.646-5.546a43.167,43.167,0,0,1,1.57-6.278c.475-1.446,1.534-4.33-.816-4.62-1.6-.2-3.8,1.464-4.611,2.645s-1,2.76-1.579,4.109a9.919,9.919,0,0,1-5.517,5.035,16.024,16.024,0,0,1-3.8,1.014,30.236,30.236,0,0,1,33.438-20.223,29.841,29.841,0,0,1,25.5,29.34Z" transform="translate(-46.582 -200.524)" opacity="0.1"/>
    <path id="Path_584" data-name="Path 584" d="M305.3,420.642c-.816,1.226-1,2.751-1.579,4.1a9.928,9.928,0,0,1-5.508,5.035,21.527,21.527,0,0,1-7.563,1.323c-4.181.123-8.845-.5-11.537-3.651a9.251,9.251,0,0,0,3.588-6.172c.233-1.887-.081-3.995,1.059-5.538a8.039,8.039,0,0,1,2.045-1.7c4.683-3.174,8.379-7.53,12.613-11.269s9.339-6.992,15.027-7.169c7.616-.229,14.354,5.044,21.889,6.04,2.315.309,4.7.2,6.962.776a23.9,23.9,0,0,1,7.078,3.527,18.031,18.031,0,0,1,5.051,4.268,15.208,15.208,0,0,1,2.054,4.885,53.692,53.692,0,0,1,1.794,11.19c.206,3.95,0,7.936.431,11.869s1.7,7.936,4.441,10.846a40.053,40.053,0,0,1-6.109,1.384,6.464,6.464,0,0,1-3.884-.3,6.775,6.775,0,0,1-2.368-2.513l-4.207-6.349a17.239,17.239,0,0,0-4.279-4.956,6.06,6.06,0,0,0-6.28-.652,6.177,6.177,0,0,0-2.691,4.947,55.2,55.2,0,0,0,.153,5.837,3.177,3.177,0,0,1-.547,2.108,3.561,3.561,0,0,1-2.324.882l-2.691.361a1.959,1.959,0,0,1-1.5-.09,1.906,1.906,0,0,1-.979-1.118c-2.234-3.986-3.777-8.915-7.966-10.828-2.584-1.182-5.993-1.1-7.652-3.377-1.13-1.552-.978-3.659-.646-5.546a43.17,43.17,0,0,1,1.57-6.278c.475-1.446,1.534-4.33-.816-4.629C308.311,417.714,306.1,419.381,305.3,420.642Z" transform="translate(-44.829 -198.463)" fill="#444053"/>
    <path id="Path_585" data-name="Path 585" d="M382.972,502.948a13.36,13.36,0,0,1,6.782.344c-5.535-2.231-14.542-1.376-19.584,1.693C370.628,506.017,381.213,503.186,382.972,502.948Z" transform="translate(-54.199 -211.047)" opacity="0.1"/>
    <path id="Path_586" data-name="Path 586" d="M385.667,510.913c5.517.362,11.214,1.12,16.444-.644-4.378-1.481-9.2-.547-13.807-1-3.678-.362-7.419-1.614-11.008-.7-1.5.379-7.015,2.875-6.639,4.7A30.275,30.275,0,0,1,385.667,510.913Z" transform="translate(-54.247 -211.782)" opacity="0.1"/>
    <path id="Path_587" data-name="Path 587" d="M371.1,524.586a8.426,8.426,0,0,1,3.427.353,53.289,53.289,0,0,0,12.631,1.367c3.248,0,6.746-.485,9.115-2.645Z" transform="translate(-54.294 -213.604)" opacity="0.1"/>
    <path id="Path_588" data-name="Path 588" d="M351.29,555.618a25.665,25.665,0,0,0,12.335,2.2,55.288,55.288,0,0,0,12.416-2.346c1.794-.52,3.75-1.173,4.8-2.707Z" transform="translate(-52.256 -217.045)" opacity="0.1"/>
    <path id="Path_589" data-name="Path 589" d="M395.24,560.242a66.726,66.726,0,0,0,27.38,8.333q-7.293-2.875-14.695-5.441a107.906,107.906,0,0,0-15.475-4.074A7.939,7.939,0,0,1,395.24,560.242Z" transform="translate(-56.491 -217.789)" opacity="0.1"/>
    <path id="Path_590" data-name="Path 590" d="M409.788,554.3a23.533,23.533,0,0,0,5.1.273,2.94,2.94,0,0,0,2.494-.882c-3.849.159-7.643-.811-11.4-1.649-1.068-.247-2.987-.829-3.884-.2C403.8,553.042,407.635,553.879,409.788,554.3Z" transform="translate(-57.484 -216.902)" opacity="0.1"/>
    <path id="Path_591" data-name="Path 591" d="M435.771,642.015a36.647,36.647,0,0,0,11.994,14.038c-3.328-8.342-6.71-16.754-12.039-24.046-1.346-1.834-3.355-4.462-5.8-4.8-.7,2.037,1.068,5.643,1.92,7.557a72.326,72.326,0,0,0,3.929,7.248Z" transform="translate(-60.33 -225.845)" opacity="0.1"/>
    <path id="Path_592" data-name="Path 592" d="M327.118,572.763c-.153,1.411-.269,2.972.565,4.127a3.033,3.033,0,0,0,1.7,1.155c-.431-.106-.9-4.25-1-4.815-.2-1.155,0-3.315-.834-4.171C327.333,570.277,327.252,571.529,327.118,572.763Z" transform="translate(-49.758 -218.971)" opacity="0.1"/>
    <path id="Path_593" data-name="Path 593" d="M332.244,571.113a9.415,9.415,0,0,0,4.486,5.97c-1.57-1.9-2.081-4.409-3.445-6.5-.44-.67-.951-1.631-1.794-1.764a23.95,23.95,0,0,0,.754,2.293Z" transform="translate(-50.219 -218.943)" opacity="0.1"/>
    <path id="Path_594" data-name="Path 594" d="M326.691,542.45a11.375,11.375,0,0,1-8.881,1.1c-.673-.194-2.243-.882-1.866-1.852s2.2-.3,2.943-.212l3.9.485C323.506,542.062,326.108,542.785,326.691,542.45Z" transform="translate(-48.613 -215.675)" opacity="0.1"/>
    <path id="Path_595" data-name="Path 595" d="M313.21,549.717c1.839-.229,3.49,1.023,5.212,1.7a16.135,16.135,0,0,0,5.921.776,3.342,3.342,0,0,0,2.763-.882C322.432,550.264,318.063,549.109,313.21,549.717Z" transform="translate(-48.338 -216.664)" opacity="0.1"/>
    <path id="Path_596" data-name="Path 596" d="M319.97,317.58h.3l2.2,7.769-2.494,2.61Z" transform="translate(-32.921 -37.548)" fill="#a36468"/>
    <g id="Group_126" data-name="Group 126" transform="translate(234.406 217.666)" opacity="0.1">
      <path id="Path_597" data-name="Path 597" d="M283.7,419.76a17.9,17.9,0,0,0-.4,3.836,8.347,8.347,0,0,0,.242-1.235C283.65,421.515,283.641,420.624,283.7,419.76Z" transform="translate(-279.667 -418.986)"/>
      <path id="Path_598" data-name="Path 598" d="M310.048,420.661a1.588,1.588,0,0,1,1.128.565,1.533,1.533,0,0,1,.343,1.2c.422-1.464.655-3.263-1.175-3.527-1.6-.194-3.8,1.473-4.611,2.689s-1,2.76-1.579,4.109a9.9,9.9,0,0,1-5.508,5.035,21.525,21.525,0,0,1-7.563,1.323c-3.8.115-8.011-.406-10.765-2.875a9.074,9.074,0,0,1-1.068.952c2.691,3.148,7.356,3.774,11.546,3.651a21.519,21.519,0,0,0,7.554-1.323,9.946,9.946,0,0,0,5.517-5.035c.574-1.349.754-2.875,1.57-4.1S308.451,420.467,310.048,420.661Z" transform="translate(-279.25 -418.882)"/>
      <path id="Path_599" data-name="Path 599" d="M363.676,453.7a6.464,6.464,0,0,1-3.884-.3,6.855,6.855,0,0,1-2.368-2.513q-2.1-3.174-4.207-6.349a17.1,17.1,0,0,0-4.27-4.956,6.043,6.043,0,0,0-6.28-.652,6.293,6.293,0,0,0-2.736,4.947v.238a5.574,5.574,0,0,1,2.449-3.457c1.911-1.111,4.486-.6,6.28.653a17.381,17.381,0,0,1,4.279,4.956q2.1,3.174,4.207,6.349a6.7,6.7,0,0,0,2.368,2.513,6.436,6.436,0,0,0,3.876.3,40.364,40.364,0,0,0,6.118-1.384,12.956,12.956,0,0,1-1.094-1.331,39.1,39.1,0,0,1-4.737.988Z" transform="translate(-285.493 -421.18)"/>
      <path id="Path_600" data-name="Path 600" d="M336.725,451.111a3.624,3.624,0,0,1-2.315.882l-2.691.362a1.959,1.959,0,0,1-1.5-.09,1.906,1.906,0,0,1-.979-1.118c-2.234-3.986-3.777-8.915-7.966-10.828-2.584-1.182-5.984-1.1-7.643-3.377a6.4,6.4,0,0,1-.8-4.62c-.045.273-.108.538-.152.8-.323,1.887-.484,3.994.655,5.546,1.66,2.275,5.069,2.2,7.643,3.377,4.2,1.913,5.742,6.843,7.975,10.828a2.533,2.533,0,0,0,1.032,1.208,2.673,2.673,0,0,0,1.444.062l2.691-.361a3.551,3.551,0,0,0,2.315-.882,3.124,3.124,0,0,0,.547-2.107h0A2.652,2.652,0,0,1,336.725,451.111Z" transform="translate(-282.665 -420.471)"/>
    </g>
    <path id="Path_601" data-name="Path 601" d="M752.74,678.138l-5.75-.785V593.91l1.175.353,3.588,1.085v8.033L751.8,607l.081,7.46V624.64l.431,37.573v1.005l.152,13.227v.2Z" transform="translate(-92.97 -221.909)" fill="#eaecf0"/>
    <path id="Path_602" data-name="Path 602" d="M756.551,678.769l-3.2-.441v-1.711l-.152-13.227v-1.005l-.431-37.573V614.637l-.081-7.46-.045-3.624V595.52h3.454V606.3l.072,8.059v8.527h0l.332,39.433v1.014l.108,13.112v.212Z" transform="translate(-93.551 -222.099)" fill="#d3dae1"/>
    <path id="Path_603" data-name="Path 603" d="M757,695.27Z" transform="translate(-94 -233.892)" fill="#d3dae1"/>
    <path id="Path_604" data-name="Path 604" d="M1145.391,582.18V654.2q-2.557,1.764-5.239,3.465l-.072-59.961v-6.366Z" transform="translate(-133.415 -220.522)" fill="#eaecf0"/>
    <path id="Path_605" data-name="Path 605" d="M1149.732,581v70.278c-1.22.961-2.467,1.887-3.732,2.8V582.04Z" transform="translate(-134.024 -220.382)" fill="#d3dae1"/>
    <path id="Path_606" data-name="Path 606" d="M1056.529,687.448c-2.207.441-4.423.882-6.639,1.261l-.081-65.172v-2.822l6.4-2.645v5.978Z" transform="translate(-124.127 -224.765)" fill="#eaecf0"/>
    <path id="Path_607" data-name="Path 607" d="M1061.484,615.73v70.542c-1.4.3-2.8.582-4.2.882l-.3-63.373V617.8l.422-.194h0Z" transform="translate(-124.866 -224.488)" fill="#d3dae1"/>
    <path id="Path_608" data-name="Path 608" d="M637.378,664.209l-5.966-.591-.763-73.487v-3.5h5.858v3.995Z" transform="translate(-81 -221.048)" fill="#eaecf0"/>
    <path id="Path_609" data-name="Path 609" d="M642.483,664.676,638,664.209l-.9-73.584V586.63h4.53v4.382Z" transform="translate(-81.663 -221.048)" fill="#d3dae1"/>
    <path id="Path_610" data-name="Path 610" d="M1039.45,445.586l4.1-1.9v8.9l-3.992,1.314Z" transform="translate(-106.949 -52.457)" opacity="0.1"/>
    <path id="Path_611" data-name="Path 611" d="M1131.152,408.95v13.615l-3.723,1.226-5.32,1.737-.009-6.366,5.329-9.162Z" transform="translate(-115.453 -48.35)" opacity="0.1"/>
    <path id="Path_612" data-name="Path 612" d="M1122.6,379.27v37.7l-83.09,27.221-.538-40.315Z" transform="translate(-106.9 -44.841)" fill="#d48a9b"/>
    <path id="Path_613" data-name="Path 613" d="M611.46,373.562l109.2-20.422,357.955,23.041-83.629,24.6Z" transform="translate(-62.913 -41.752)" fill="#efc6cd"/>
    <path id="Path_614" data-name="Path 614" d="M623.039,414.6l.036,4.374-4.521-.388-5.876-.494-.027-3.492Z" transform="translate(-63.036 -49.018)" opacity="0.1"/>
    <path id="Path_615" data-name="Path 615" d="M737.328,428.476l-3.454-.3-4.844-.406v-5.89l4.791,1.428h3.463Z" transform="translate(-75.01 -49.879)" opacity="0.1"/>
    <path id="Path_616" data-name="Path 616" d="M611.46,376.3v35.077l384.061,32.458-.538-40.315Z" transform="translate(-62.913 -44.49)" fill="#d48a9b"/>
    <path id="Path_617" data-name="Path 617" d="M945.146,421.2H894.98V403.31l50.166,3.474Z" transform="translate(-92.085 -47.683)" fill="#d48a9b"/>
    <path id="Path_618" data-name="Path 618" d="M945.146,421.2H894.98V403.31l50.166,3.474Z" transform="translate(-92.085 -47.683)" opacity="0.1"/>
    <path id="Path_619" data-name="Path 619" d="M819.87,398.86v28.27l192.565,14.4v-30.1l-75.106-4.188-7.464,6.543-30.627-2.09-10.918-7.857Z" transform="translate(-84.357 -47.157)" opacity="0.1"/>
    <path id="Path_620" data-name="Path 620" d="M818.68,397.67v28.279l192.564,14.391v-30.1l-75.106-4.188-7.455,6.552-30.636-2.1-10.918-7.857Z" transform="translate(-84.234 -47.017)" fill="#fff"/>
    <path id="Path_621" data-name="Path 621" d="M685.741,389.06l45.546,3.148-.529,14.223H701.019l-19.889-7.68Z" transform="translate(-70.082 -45.999)" fill="#d48a9b"/>
    <path id="Path_622" data-name="Path 622" d="M685.741,389.06l45.546,3.148-.529,14.223H701.019l-19.889-7.68Z" transform="translate(-70.082 -45.999)" opacity="0.1"/>
    <path id="Path_623" data-name="Path 623" d="M618.59,384.61v25.4L793.3,423.62V396.655l-67.382-3.933-7.195,5.238-27.164-1.57-11.187-6.807Z" transform="translate(-63.647 -45.473)" opacity="0.1"/>
    <path id="Path_624" data-name="Path 624" d="M617.4,383.42v25.4L792.112,422.43V395.465l-67.382-3.924-7.186,5.229-27.173-1.57-11.187-6.807Z" transform="translate(-63.524 -45.332)" fill="#fff"/>
    <path id="Path_625" data-name="Path 625" d="M1030.325,383.53l24.491,1.578-40.576,11.939-20.669-1.464Z" transform="translate(-102.229 -45.345)" opacity="0.1"/>
    <path id="Path_626" data-name="Path 626" d="M1030.325,382.35l24.491,1.57-40.576,11.939L993.57,394.4Z" transform="translate(-102.229 -45.205)" fill="#fff"/>
    <path id="Path_627" data-name="Path 627" d="M1049.24,557.434c.969-.414,2,.353,3.032.547.583.115,1.193,0,1.794.115,1.2.159,2.386.944,3.535.547Z" transform="translate(-124.069 -217.582)" fill="#d3dae1"/>
    <path id="Path_628" data-name="Path 628" d="M1047.83,558.244c.96-.406,1.992.361,3.023.555.592.106,1.2,0,1.794.106,1.193.159,2.386.952,3.535.556Z" transform="translate(-123.924 -217.678)" fill="#d3dae1"/>
    <path id="Path_629" data-name="Path 629" d="M1044.59,559.884c.96-.406,1.992.353,3.023.547.592.115,1.193,0,1.794.115,1.2.159,2.4.952,3.535.547Z" transform="translate(-123.59 -217.872)" fill="#d3dae1"/>
    <path id="Path_630" data-name="Path 630" d="M848.393,368.55,903,372.068,891.365,388.5l-60.035-6.3Z" transform="translate(-85.536 -43.574)" opacity="0.1"/>
    <path id="Path_631" data-name="Path 631" d="M847.2,367.36l54.607,3.509-11.636,16.436L830.13,381Z" transform="translate(-85.412 -43.433)" fill="#3a3768"/>
    <path id="Path_632" data-name="Path 632" d="M850.133,368.73l47.628,2.866-10.146,13.385L835.25,379.84Z" transform="translate(-85.939 -43.595)" fill="#d5e1f4"/>
    <path id="Path_633" data-name="Path 633" d="M757,695.27Z" transform="translate(-94 -233.892)" fill="#3a3768"/>
    <path id="Path_634" data-name="Path 634" d="M757,695.27Z" transform="translate(-94 -233.892)" opacity="0.1"/>
    <path id="Path_635" data-name="Path 635" d="M756.54,695.27Z" transform="translate(-93.953 -233.892)" fill="#3a3768"/>
    <path id="Path_636" data-name="Path 636" d="M816.486,676.489a4.2,4.2,0,0,1-.045.75,4.974,4.974,0,0,1-.072.661,14.7,14.7,0,0,1-1.3,4.488h0c-22.562-2.5-45.178-5.493-67.821-8.571l-3.2-.441-5.75-.785-4.844-.661h0a118.665,118.665,0,0,1-15.825-1.455,83.109,83.109,0,0,1-9.779-2.028c-14.354-1.931-28.788-3.792-43.178-5.485l-1.875-.22c.341-1.5.628-2.407.628-2.407s3.086-11.922,5.652-25.245c.565-2.892,1.1-5.837,1.57-8.756.377-2.337.718-4.647,1-6.869.161-1.226.3-2.425.413-3.6.063-.582.117-1.164.161-1.764s.1-1.252.143-1.861.063-1.146.09-1.7v-.829c0-1.19,0-2.434-.045-3.712a107.617,107.617,0,0,0-3.05-18.879c-.251-1.058-.511-2.116-.781-3.148-.081-.335-.17-.661-.26-.988-2.9-11.031-6.28-20.043-6.28-20.043a.991.991,0,0,1,0-.15.5.5,0,0,0,0-.106,2.075,2.075,0,0,0,0-.22V560.9a13.3,13.3,0,0,1,.484-2.734,9.8,9.8,0,0,1,.341-.935,5.873,5.873,0,0,1,4.037-3.668h0c2.539-.644,6.378,0,12.174,3.377a20.977,20.977,0,0,1,2.691,1.816,11.322,11.322,0,0,1,1.256,1.067c6.639,6.076,10.173,16.1,12.057,25.254.072.326.135.652.2.979.224,1.129.413,2.231.583,3.315.305,1.9.547,3.739.727,5.441,0,.459.1.882.143,1.349s.09.882.117,1.3c.117,1.376.2,2.645.251,3.721.152,2.857.126,4.612.126,4.612v.088a2.374,2.374,0,0,1-.045.379.165.165,0,0,0,0,.071c0,.106,0,.238,0,.388v.406q-.054.556-.135,1.3c-.081.758-.17,1.649-.278,2.645-.072.741-.161,1.543-.251,2.39-.2,1.764-.413,3.809-.646,5.961-.054.406-.1.811-.143,1.217-.206,1.843-.422,3.765-.646,5.705h0c-.242,2.2-.511,4.409-.772,6.587-.063.476-.126.952-.179,1.42-.664,5.291-1.328,10.1-1.866,13.086a12.221,12.221,0,0,0-.179,1.34,4.031,4.031,0,0,0,0,.458,8.894,8.894,0,0,0,0,1.2c.44,7.53,8.72,8.818,8.72,8.818l37.6-.732,5.58-.106,3.247-.062,29.309-.573h0l2.691-.053,14.578-.282a10.6,10.6,0,0,1,2.934.344,47,47,0,0,1,12.739,5.476,14.9,14.9,0,0,1,3.292,2.822.946.946,0,0,1,.126.141,15.12,15.12,0,0,1,3.526,8.253q0,.3,0,.609A7.8,7.8,0,0,1,816.486,676.489Z" transform="translate(-84.229 -217.112)" fill="#3a3768"/>
    <path id="Path_637" data-name="Path 637" d="M756.54,695.27Z" transform="translate(-93.953 -233.892)" opacity="0.1"/>
    <path id="Path_638" data-name="Path 638" d="M816.486,676.479a4.2,4.2,0,0,1-.045.75,4.974,4.974,0,0,1-.072.661,15.231,15.231,0,0,1-1.346,4.488c-22.562-2.5-45.178-5.493-67.821-8.571l-3.2-.441-5.75-.785-4.844-.661h0a118.664,118.664,0,0,1-15.825-1.455,83.107,83.107,0,0,1-9.779-2.028c-14.354-1.931-28.788-3.792-43.178-5.485l-1.875-.22h0c.341-1.552.646-2.5.646-2.5s2.521-9.7,4.916-21.454h0c.17-.811.332-1.622.493-2.443l.242-1.243c.556-2.883,1.094-5.846,1.57-8.756.377-2.337.718-4.647,1-6.869.161-1.226.3-2.425.413-3.6.063-.582.117-1.164.161-1.764s.1-1.252.143-1.861.063-1.146.09-1.7v-.829c0-1.19,0-2.434-.045-3.712a106.744,106.744,0,0,0-3.023-18.879q-.377-1.6-.781-3.148c-.09-.335-.17-.661-.26-.988-2.907-11.066-6.28-20.131-6.28-20.131a.282.282,0,0,0,0-.062.5.5,0,0,0,0-.106,2.074,2.074,0,0,0,0-.22V560.9a13.319,13.319,0,0,1,.458-2.734c.1-.309.206-.626.332-.935a5.894,5.894,0,0,1,4.252-3.8c2.539-.582,6.334.141,12,3.4a21.728,21.728,0,0,1,2.8,1.922h0c.422.344.825.688,1.22,1.058,6.585,6.111,10.092,16.119,11.958,25.245.072.326.135.661.2.988.224,1.12.413,2.231.583,3.307.305,1.9.538,3.73.718,5.423.045.467.1.926.135,1.367s.09.882.117,1.3c.117,1.376.2,2.645.251,3.721.153,2.857.126,4.612.126,4.612v.467a.166.166,0,0,0,0,.071v.794q-.054.556-.135,1.3c-.081.758-.17,1.649-.278,2.645-.09.732-.17,1.534-.26,2.39-.2,1.764-.413,3.809-.646,5.961-.054.406-.1.811-.143,1.217-.206,1.843-.431,3.783-.646,5.723h0c-.26,2.2-.52,4.409-.789,6.578-.063.476-.117.952-.179,1.42-.655,5.291-1.31,10.026-1.848,13a12.074,12.074,0,0,0-.18,1.437,4.033,4.033,0,0,0,0,.459,8.884,8.884,0,0,0,0,1.2c.511,7.442,8.72,8.686,8.72,8.686l37.6-.723,5.571-.115,3.257-.062,29.362-.564,2.745-.053,14.524-.282a9.977,9.977,0,0,1,2.934.344,46.471,46.471,0,0,1,12.838,5.423,14.708,14.708,0,0,1,3.337,2.875.946.946,0,0,1,.126.141,14.969,14.969,0,0,1,3.481,8.289q0,.3,0,.608A10.064,10.064,0,0,0,816.486,676.479Z" transform="translate(-84.229 -217.102)" opacity="0.1"/>
    <path id="Path_639" data-name="Path 639" d="M756.54,695.27Z" transform="translate(-93.953 -233.892)" fill="#3a3768"/>
    <path id="Path_640" data-name="Path 640" d="M816.788,682.374l-1.48-.168h0c-22.562-2.5-45.178-5.493-67.821-8.571l-3.2-.441-5.75-.785-4.844-.661h0a118.654,118.654,0,0,1-15.825-1.455,83.085,83.085,0,0,1-9.779-2.028c-14.354-1.931-28.788-3.792-43.178-5.485a35.559,35.559,0,0,1,.9-3.668s8.523-32.987,9.052-50.526c.188-6.269-1.077-14.029-2.79-21.427h0c-.251-1.067-.5-2.125-.772-3.166l-.242-.988c-3.041-11.6-6.657-21.3-6.657-21.3a14.086,14.086,0,0,1,.206-3.589,9.486,9.486,0,0,1,.215-.944,7.173,7.173,0,0,1,2.315-3.809h0a1.186,1.186,0,0,1,.17-.123c2.359-1.764,6.594-1.887,14.129,2.451a22.061,22.061,0,0,1,4.207,3.166c.359.335.718.688,1.059,1.049,6.055,6.446,9.267,16.322,10.954,25.157l.188.979c.2,1.1.368,2.187.529,3.236v.088h0c.206,1.393.377,2.725.52,3.995h0a103.41,103.41,0,0,1,.646,11.26s-.35,3.483-.9,8.5c-.206,1.966-.449,4.171-.709,6.5v.353l-.135,1.234c-.458,4.065-.96,8.4-1.471,12.424-.054.494-.117.979-.179,1.455-.574,4.523-1.148,8.544-1.624,11.163-1.866,10.211,8.523,11.781,8.523,11.781l35.472-.688,5.562-.106,3.257-.071h1.8l28.133-.547h2.691l16.148-.317a10.246,10.246,0,0,1,2.934.353,46.7,46.7,0,0,1,12.847,5.414,15.187,15.187,0,0,1,3.023,2.522,1.441,1.441,0,0,1,.153.176A15.066,15.066,0,0,1,816.788,682.374Z" transform="translate(-84.468 -216.966)" fill="#3a3768"/>
    <path id="Path_641" data-name="Path 641" d="M957.242,347.05l10.972,23.1h-1.839L953.51,347.323Z" transform="translate(-98.107 -41.032)" fill="#4c4c56"/>
    <path id="Path_642" data-name="Path 642" d="M957.242,347.05l10.972,23.1h-1.839L953.51,347.323Z" transform="translate(-98.107 -41.032)" opacity="0.1"/>
    <path id="Path_643" data-name="Path 643" d="M957.67,373.25h10.972v2.416l-10.972.273Z" transform="translate(-98.535 -44.13)" fill="#4c4c56"/>
    <path id="Path_644" data-name="Path 644" d="M957.67,373.25h10.972v2.416l-10.972.273Z" transform="translate(-98.535 -44.13)" opacity="0.1"/>
    <path id="Path_645" data-name="Path 645" d="M880.5,421.867v80.674a6.04,6.04,0,0,0,6.091,5.987H1023.4a6.109,6.109,0,0,0,4.324-1.784,5.9,5.9,0,0,0,1.731-4.282l-1.552-80.744a6.007,6.007,0,0,0-6.056-5.837H886.591A6.04,6.04,0,0,0,880.5,421.867Z" transform="translate(-106.707 -200.862)" fill="#4c4c56"/>
    <path id="Path_646" data-name="Path 646" d="M880.5,421.867v80.674a6.04,6.04,0,0,0,6.091,5.987H1023.4a6.109,6.109,0,0,0,4.324-1.784,5.9,5.9,0,0,0,1.731-4.282l-1.552-80.744a6.007,6.007,0,0,0-6.056-5.837H886.591A6.04,6.04,0,0,0,880.5,421.867Z" transform="translate(-106.707 -200.862)" opacity="0.1"/>
    <path id="Path_647" data-name="Path 647" d="M875,421.867v80.674a6.04,6.04,0,0,0,6.091,5.987H1017.9a6.1,6.1,0,0,0,4.322-1.785,5.888,5.888,0,0,0,1.725-4.282l-1.552-80.745a6.007,6.007,0,0,0-6.047-5.837H881.127a6.146,6.146,0,0,0-4.33,1.741,5.936,5.936,0,0,0-1.8,4.246Z" transform="translate(-106.141 -200.862)" fill="#4c4c56"/>
    <path id="Path_648" data-name="Path 648" d="M881,427.587v71.027a6.04,6.04,0,0,0,6.091,5.987h126.681a6,6,0,0,0,6.055-5.952V427.543a6,6,0,0,0-6.055-5.943H887.091A6.04,6.04,0,0,0,881,427.587Z" transform="translate(-106.758 -201.538)" fill="#0f3d3e"/>
    <path id="Path_649" data-name="Path 649" d="M924.14,346.98l12.03,22.776h27.182L949.761,343.7Z" transform="translate(-95.085 -40.636)" fill="#4c4c56"/>
    <path id="Path_650" data-name="Path 650" d="M913.229,373.25l-2.01,2.416h41.671V373.25Z" transform="translate(-93.756 -44.13)" fill="#4c4c56"/>
    <path id="Path_651" data-name="Path 651" d="M730.721,442.534c-2.987-8.253-2.969-17.415-6.594-25.413a30.662,30.662,0,0,1-1.516-3.527,10.171,10.171,0,0,1-.413-2.3l-.224.053-.224.062-.224.088h0l-.206.123a7.6,7.6,0,0,0,.206.776,29.418,29.418,0,0,0,1.534,3.527c3.7,8.042,3.669,17.239,6.71,25.572a2.389,2.389,0,0,0,.565.979,1.341,1.341,0,0,0,.457.273C730.766,442.649,730.739,442.6,730.721,442.534Zm0,0c-2.987-8.253-2.969-17.415-6.594-25.413a30.662,30.662,0,0,1-1.516-3.527,10.171,10.171,0,0,1-.413-2.3l-.224.053-.224.062-.224.088h0l-.206.123a7.6,7.6,0,0,0,.206.776,29.418,29.418,0,0,0,1.534,3.527c3.7,8.042,3.669,17.239,6.71,25.572a2.389,2.389,0,0,0,.565.979,1.341,1.341,0,0,0,.457.273C730.766,442.649,730.739,442.6,730.721,442.534Zm0,0c-2.987-8.253-2.969-17.415-6.594-25.413a30.662,30.662,0,0,1-1.516-3.527,10.171,10.171,0,0,1-.413-2.3l-.224.053-.224.062-.224.088h0l-.206.123a7.6,7.6,0,0,0,.206.776,29.418,29.418,0,0,0,1.534,3.527c3.7,8.042,3.669,17.239,6.71,25.572a2.389,2.389,0,0,0,.565.979,1.341,1.341,0,0,0,.457.273C730.766,442.649,730.739,442.6,730.721,442.534Zm0,0c-2.987-8.253-2.969-17.415-6.594-25.413a30.662,30.662,0,0,1-1.516-3.527,10.171,10.171,0,0,1-.413-2.3l-.224.053-.224.062-.224.088h0l-.206.123a7.6,7.6,0,0,0,.206.776,29.418,29.418,0,0,0,1.534,3.527c3.7,8.042,3.669,17.239,6.71,25.572a2.389,2.389,0,0,0,.565.979,1.341,1.341,0,0,0,.457.273C730.766,442.649,730.739,442.6,730.721,442.534Zm0,0c-2.987-8.253-2.969-17.415-6.594-25.413a30.662,30.662,0,0,1-1.516-3.527,10.171,10.171,0,0,1-.413-2.3l-.224.053-.224.062-.224.088h0l-.206.123a7.6,7.6,0,0,0,.206.776,29.418,29.418,0,0,0,1.534,3.527c3.7,8.042,3.669,17.239,6.71,25.572a2.389,2.389,0,0,0,.565.979,1.341,1.341,0,0,0,.457.273C730.766,442.649,730.739,442.6,730.721,442.534Zm0,0c-2.987-8.253-2.969-17.415-6.594-25.413a30.662,30.662,0,0,1-1.516-3.527,10.171,10.171,0,0,1-.413-2.3l-.224.053-.224.062-.224.088h0l-.206.123a7.6,7.6,0,0,0,.206.776,29.418,29.418,0,0,0,1.534,3.527c3.7,8.042,3.669,17.239,6.71,25.572a2.389,2.389,0,0,0,.565.979,1.341,1.341,0,0,0,.457.273C730.766,442.649,730.739,442.6,730.721,442.534Zm0,0c-2.987-8.253-2.969-17.415-6.594-25.413a30.662,30.662,0,0,1-1.516-3.527,10.171,10.171,0,0,1-.413-2.3l-.224.053-.224.062-.224.088h0l-.206.123a7.6,7.6,0,0,0,.206.776,29.418,29.418,0,0,0,1.534,3.527c3.7,8.042,3.669,17.239,6.71,25.572a2.389,2.389,0,0,0,.565.979,1.341,1.341,0,0,0,.457.273C730.766,442.649,730.739,442.6,730.721,442.534Zm155.873,82.182h0l-.691-.123.9-.194h0a1.388,1.388,0,0,0,.26-.062h0c1-.212,1.983-.45,2.951-.705h0l1.014-.282h0l.143-.044c8.361-2.425-1.391-4.656-13.789-6.314h-.036c-13.385-1.764-29.8-2.919-29.8-2.919l-5.14.67h-.045c-6.28.811-16.193,2.152-17.772,2.645-1.92.626-18.211,1.393-23.89,1.64a2.451,2.451,0,0,0-.843-.882l-16.749-.758v2.266h0l-.126-.053a22.274,22.274,0,0,0-2.27-8.818l-.126-.247c-4.324-8.059-5.194-10.079-5.194-10.079h0a1.633,1.633,0,0,0-.117-.432c-1.453-4.956-6.809-13.571-15.888-25.933l-.314-.432-1.139-5.485-.2-.961h-5.715a72.466,72.466,0,0,1,3.965-13.941c.117-.282.233-.564.359-.838l.072-.159c.126-.291.269-.582.4-.882h1a27.088,27.088,0,0,0,26.231-24.954.166.166,0,0,0,0-.071q.054-.82.054-1.64a25.9,25.9,0,0,0-3.588-13.227c-.072-.124-.144-.247-.224-.37l-.143-.238-.323-.494c2.045-.476,4.486.441,6.28-.688a4.533,4.533,0,0,0,1.534-1.816,9.33,9.33,0,0,0,.9-2.645h0a.866.866,0,0,0,0-.15.113.113,0,0,0,0-.053,10.248,10.248,0,0,0,.135-1.816,9.639,9.639,0,0,0-.628-3.668,10.194,10.194,0,0,0-5.777-5.7,39.688,39.688,0,0,0-4.2-1.12c-5.742-1.508-10.595-5.229-16.148-7.3a29.754,29.754,0,0,0-12.1-1.834,17.557,17.557,0,0,0-7.177,1.764,30.715,30.715,0,0,0-4.791,3.413c-3.992,3.095-8.523,5.74-11.994,9.435a21.166,21.166,0,0,0-1.74,2.116c-.305.432-.583.882-.9,1.323a2.424,2.424,0,0,0-2.162-.882h0a3.581,3.581,0,0,0-.44,0,8.85,8.85,0,0,0-1.112.115c-.9.15-7.581,1.887-7.581,2.786a31.667,31.667,0,0,0-7.679,4.638c-5.383,4.841-6.585,12.512-7.267,19.584a178.416,178.416,0,0,0-.9,24.69c.126,3,.368,6,.224,8.994a65.844,65.844,0,0,1-1.588,10.476q-1.157,5.379-2.5,10.722c-.431,1.764-1.121,3.73-2.88,4.285l.655.088a3.173,3.173,0,0,1-.655.309,19.921,19.921,0,0,0,2.279.22h.529a6.292,6.292,0,0,0,1.283-.15,4.829,4.829,0,0,0,1.624-.741c.072-.176.135-.353.2-.538a2.976,2.976,0,0,0,1.077-1.64,11.475,11.475,0,0,1-.179,2.98,1.857,1.857,0,0,1-.09.432,12.1,12.1,0,0,1-3.086,5.749l.9-.67a13.02,13.02,0,0,1-.9,1.067q1.938-1.428,3.875-2.919h0a1.85,1.85,0,0,0,.224-.168h0l2.207-1.711v1.711h0v.4c-.179,6.084-.44,21.03.969,24.6.081.212.17.423.242.626,1.606,4.065,2.3,5.82,2.09,7.936-.143,1.473.978,5.688,1.6,9.038a11.03,11.03,0,0,1,.287,4.083,5.724,5.724,0,0,0,.161,2.434c.081.388.179.8.287,1.235a1.876,1.876,0,0,0,.117.467c.816,3.21,1.974,7.178.763,8.756a6.945,6.945,0,0,0-.9,1.764c-1,2.645-1.157,6.261-2.306,7.724-1.346,1.7-.9,4.726-.789,5.114a.154.154,0,0,1,0,.044s-.063.344-.188.882c-.153.741-.395,1.878-.7,3.139v.088a44.263,44.263,0,0,1-1.552,5.229h0c-.458,1.2-.9,2.063-1.408,2.231-1.794.644-2.691,8.924-2.691,8.924s-4.109,6.552-3.328,8.165a10.767,10.767,0,0,0,.583,1.085l-.395.6c-2.2,3.465-5.383,9.761-2.3,13.147a15.228,15.228,0,0,0,3.678,2.76c-.161.353-.332.732-.511,1.146-3.391,7.813-8.612,25.96,11.474,33.613q2.993,1.133,6.091,1.966a83.092,83.092,0,0,0,9.779,2.028,121.884,121.884,0,0,0,14.354,1.261c2.135.071,4.243.088,6.28.071s3.885-.062,5.733-.141q1.642-.062,3.2-.159a170.343,170.343,0,0,0,18.418-1.984l28.707-5.053s12.057.423,16.5,2.927l.135.079s.727-.414,1.947-1.226h0c.529-.353,1.157-.776,1.848-1.279,4.548-3.289,12.138-9.7,17.108-18.711l.1-.168.978-.123h.224l.7-.1,1.453-.2h.26c3.633-.52,7.069-1.093,7.069-1.093s.135,3.942.3,8.509c.054,1.393.1,2.848.153,4.259.17,4.832.323,9.223.323,9.373s3.7,9.7,7.832,19.329l3.23.256q12.793,1.005,25.577,1.667l3.185.159,1.992.1c-1.435-8.544-2.566-16.692-2.566-16.692l-5.329-24.4s-.556-5.053-4.548-27.511c-3.23-18.2-22.248-16.586-29.371-15.308-.727.132-1.319.256-1.794.353v-1.367s-13.663,1.129-26.016,1.675l-3.005.123c-2.862.106-5.58.168-7.966.168a59.3,59.3,0,0,1-6.28-.247c-9.536-1.076-20.409,2.143-20.409,2.143s-13.9,2.213-15.753,1.4a4.852,4.852,0,0,0-1.57-.318h-.9a1.407,1.407,0,0,0,.9-1.57c-.556-2.257-.78-5.379.78-7.53.682-.952,1.794-2.451,2.79-3.818l2.422-3.271v-.256l.063-.961.583-8.571,1.4-7.936.09-.5.126-.705.09-.511.269.088h0c3.974,1.358,8.478,2.31,11.662,1.217h.063a5.4,5.4,0,0,0,.736-.309h.144v.591l.054,1.032,14.973-.8h.224s.583-2.839,1.211-6.754c.045-.317.1-.644.153-.979s.135-.882.2-1.287a5.268,5.268,0,0,1,.09-.626h.9c6.944-.247,16.632-.829,20.58-2.24h0a4.51,4.51,0,0,0,1.355-.714c1.678-1.428,7.7-3.474,13.609-5.238h0l2.359-.688c1.713-.494,3.364-.952,4.826-1.358,3.391-.882,5.813-1.534,5.813-1.534s23.325,2.125,40.747-2.822h0l.287-.079C898.463,527.9,894.39,526.171,886.594,524.716ZM721.086,410.085a4.694,4.694,0,0,0,.1.785h0a2.177,2.177,0,0,0,.054.335.6.6,0,0,0,.072.344,7.6,7.6,0,0,0,.206.776,29.408,29.408,0,0,0,1.534,3.527c3.7,8.042,3.669,17.239,6.71,25.572a2.388,2.388,0,0,0,.565.979,1.341,1.341,0,0,0,.457.273l.215.071h.251l-.1.168a.888.888,0,0,1-.072.123l-.063.1c-1.2,1.993-2.485,3.95-3.777,5.679a8.515,8.515,0,0,0-3.113,1.252l-.5.326-.215.159c-.314-1.517-.745-3.016-1.139-4.515a102.538,102.538,0,0,1-3.463-24.461v-1.667c0-2.134.054-4.259.188-6.393a5.222,5.222,0,0,1,.763-2.8h0a1.978,1.978,0,0,1,1.328-.635Zm9.635,32.458c-2.987-8.253-2.969-17.415-6.594-25.413a30.664,30.664,0,0,1-1.516-3.527,10.172,10.172,0,0,1-.413-2.3l-.224.053-.224.062-.224.088h0l-.206.123a7.6,7.6,0,0,0,.206.776,29.418,29.418,0,0,0,1.534,3.527c3.7,8.042,3.669,17.239,6.71,25.572a2.389,2.389,0,0,0,.565.979,1.341,1.341,0,0,0,.458.273c-.027-.106-.054-.159-.072-.22Zm0,0c-2.987-8.253-2.969-17.415-6.594-25.413a30.664,30.664,0,0,1-1.516-3.527,10.172,10.172,0,0,1-.413-2.3l-.224.053-.224.062-.224.088h0l-.206.123a7.6,7.6,0,0,0,.206.776,29.418,29.418,0,0,0,1.534,3.527c3.7,8.042,3.669,17.239,6.71,25.572a2.389,2.389,0,0,0,.565.979,1.341,1.341,0,0,0,.458.273c-.027-.106-.054-.159-.072-.22Zm0,0c-2.987-8.253-2.969-17.415-6.594-25.413a30.664,30.664,0,0,1-1.516-3.527,10.172,10.172,0,0,1-.413-2.3l-.224.053-.224.062-.224.088h0l-.206.123a7.6,7.6,0,0,0,.206.776,29.418,29.418,0,0,0,1.534,3.527c3.7,8.042,3.669,17.239,6.71,25.572a2.389,2.389,0,0,0,.565.979,1.341,1.341,0,0,0,.458.273c-.027-.106-.054-.159-.072-.22Zm0,0c-2.987-8.253-2.969-17.415-6.594-25.413a30.664,30.664,0,0,1-1.516-3.527,10.172,10.172,0,0,1-.413-2.3l-.224.053-.224.062-.224.088h0l-.206.123a7.6,7.6,0,0,0,.206.776,29.418,29.418,0,0,0,1.534,3.527c3.7,8.042,3.669,17.239,6.71,25.572a2.389,2.389,0,0,0,.565.979,1.341,1.341,0,0,0,.458.273c-.027-.106-.054-.159-.072-.22Zm0,0c-2.987-8.253-2.969-17.415-6.594-25.413a30.664,30.664,0,0,1-1.516-3.527,10.172,10.172,0,0,1-.413-2.3l-.224.053-.224.062-.224.088h0l-.206.123a7.6,7.6,0,0,0,.206.776,29.418,29.418,0,0,0,1.534,3.527c3.7,8.042,3.669,17.239,6.71,25.572a2.389,2.389,0,0,0,.565.979,1.341,1.341,0,0,0,.458.273c-.027-.106-.054-.159-.072-.22Zm0,0c-2.987-8.253-2.969-17.415-6.594-25.413a30.664,30.664,0,0,1-1.516-3.527,10.172,10.172,0,0,1-.413-2.3l-.224.053-.224.062-.224.088h0l-.206.123a7.6,7.6,0,0,0,.206.776,29.418,29.418,0,0,0,1.534,3.527c3.7,8.042,3.669,17.239,6.71,25.572a2.389,2.389,0,0,0,.565.979,1.341,1.341,0,0,0,.458.273c-.027-.106-.054-.159-.072-.22Z" transform="translate(-86.955 -197.042)" fill="url(#linear-gradient-2)"/>
    <path id="Path_652" data-name="Path 652" d="M764.709,453.518a20.529,20.529,0,0,0-3.445,5.238c-.135.291-.269.573-.395.882-3.965,8.818-5.311,21.295-5.311,21.295s-2.458-1.085-5.939-2.778c-6.486-3.157-16.5-8.412-20.544-12.6-1.794-1.9-2.44-3.571-.951-4.744a10.968,10.968,0,0,0,.987-.882,28.169,28.169,0,0,0,3.131-3.651c1.292-1.764,2.566-3.73,3.768-5.749.709-1.182,1.382-2.372,2.01-3.527l.251-.459c2.691-5.017,4.656-9.3,4.656-9.3s.9.282,2.35.785C751.979,440.379,770.433,447.53,764.709,453.518Z" transform="translate(-90.944 -203.387)" fill="#efb7b9"/>
    <path id="Path_653" data-name="Path 653" d="M899.867,678.328s1.094,7.989,2.485,16.419l-3.185-.159q-12.775-.652-25.577-1.667c-4.844-11.031-9.868-24.125-9.868-24.328s-.153-4.515-.323-9.329c-.054-1.693-.117-3.439-.17-5.079h0c-.09-2.487-.17-4.726-.215-6.12,0-.952-.054-1.517-.054-1.517s-4.611.794-8.756,1.349l-1.839.238c-.951.115-1.794.2-2.557.256a6.689,6.689,0,0,1-1.983,0c-1.417-.538,1.525-14.108,1.525-14.108l7.32-17.415,2.045-4.85.9-.22c.44-.106,1.032-.229,1.74-.362,6.988-1.261,25.657-2.866,28.824,15.246,3.92,22.371,4.486,27.4,4.486,27.4Z" transform="translate(-103.305 -223.898)" fill="#efb7b9"/>
    <path id="Path_654" data-name="Path 654" d="M913.516,728h-.027Z" transform="translate(-109.876 -237.761)" fill="#efb7b9"/>
    <path id="Path_655" data-name="Path 655" d="M899.867,678.328s1.094,7.989,2.485,16.419l-3.185-.159q-12.775-.652-25.577-1.667c-4.844-11.031-9.868-24.125-9.868-24.328s-.153-4.515-.323-9.329c-.054-1.693-.117-3.439-.17-5.079h0c-.09-2.487-.17-4.726-.215-6.12,0-.952-.054-1.517-.054-1.517s-4.611.794-8.756,1.349l-1.839.238c-.951.115-1.794.2-2.557.256a6.689,6.689,0,0,1-1.983,0c-1.417-.538,1.525-14.108,1.525-14.108l7.32-17.415,2.045-4.85.9-.22c.44-.106,1.032-.229,1.74-.362,6.988-1.261,25.657-2.866,28.824,15.246,3.92,22.371,4.486,27.4,4.486,27.4Z" transform="translate(-103.305 -223.898)" opacity="0.05"/>
    <path id="Path_656" data-name="Path 656" d="M913.516,728h-.027Z" transform="translate(-109.876 -237.761)" opacity="0.05"/>
    <path id="Path_657" data-name="Path 657" d="M898.893,695.242q-12.775-.652-25.577-1.667l-3.23-.256-1.426-.115c-4.019-9.532-7.59-18.852-7.59-19.02s-.152-4.515-.323-9.329c-.206-6.014-.44-12.715-.44-12.715l-.6.1-.251.044h-.323l-1.444.238-.789.123c-1.426.229-3.149.485-4.835.723l-.377.053-.987.123-.9.106h0c-.691.088-1.346.159-1.938.212l-.727.062a6.39,6.39,0,0,1-1.983,0c-1.417-.538,1.525-14.108,1.525-14.108l9.366-22.265.323-.088c.493-.123,1.534-.362,2.943-.6.529-.088,1.112-.176,1.74-.256,8.128-1.023,23.594-.732,26.456,15.607,3.92,22.371,4.486,27.4,4.486,27.4l5.23,24.319S897.906,688.954,898.893,695.242Z" transform="translate(-103.031 -224.552)" fill="#efb7b9"/>
    <path id="Path_658" data-name="Path 658" d="M861.021,669.2c-.206-6.014-.44-12.724-.44-12.724s-8.971,1.543-13.152,1.843l.843-2.8s15.358-4.171,15.681-1.816C864.188,655.342,862.214,664.107,861.021,669.2Z" transform="translate(-103.304 -228.891)" opacity="0.1"/>
    <path id="Path_659" data-name="Path 659" d="M861.072,611.48v6.375s-.763,11.463-6.755,29c-.126.379-.26.75-.4,1.12a39.664,39.664,0,0,1-2.225,4.92c-1.687.229-3.319.423-4.531.511a6.671,6.671,0,0,1-1.983,0c-1.417-.538,1.516-14.108,1.516-14.108l9.366-22.256.332-.088,2.036-4.859A23.993,23.993,0,0,1,861.072,611.48Z" transform="translate(-103.033 -223.986)" opacity="0.1"/>
    <path id="Path_660" data-name="Path 660" d="M843.59,610.34v7.38s-.763,11.463-6.755,29.011c-.152.458-.323.882-.493,1.349s-.395,1.023-.619,1.517c-.493,1.173-1.05,2.31-1.633,3.4h0c-4.692,8.738-11.842,14.99-16.381,18.429-.664.5-1.283.944-1.794,1.314h-.045c-.9.6-1.543,1.032-1.956,1.287s-.449.273-.449.273c-4.252-2.566-16.336-3-16.336-3l-28.205,5.035a166.2,166.2,0,0,1-18.633,2.081l-3.2.15c-1.848.071-3.768.115-5.733.123-1.588,0-3.2,0-4.844-.062h0a118.665,118.665,0,0,1-15.825-1.455,80.2,80.2,0,0,1-8.54-1.861,60.837,60.837,0,0,1-5.912-1.94c-19.736-7.619-14.6-25.686-11.268-33.508.179-.414.35-.794.511-1.146.736-1.6,1.283-2.531,1.283-2.531l1.31-3.113h0l2.144-5.106.475-1.12.135-.326,1.588-3.783,22.428-2.857,16.48-2.1,5.015-.635,3.4-.432,6.486-.829,2.44-.309a30.888,30.888,0,0,1,4.548-.353,6.461,6.461,0,0,1,2.422.353c1.794.8,15.466-1.393,15.466-1.393s10.667-3.21,20.032-2.143a113.374,113.374,0,0,0,13.914.088h0l1.148-.053,1.489-.062H818C830.133,611.469,843.59,610.34,843.59,610.34Z" transform="translate(-87.29 -223.851)" fill="#444053"/>
    <path id="Path_661" data-name="Path 661" d="M769.726,635.331s-10.765,24.081-11.214,24.5-.431,7.936,0,7.5,15.359-32.961,15.359-32.961Z" transform="translate(-94.122 -226.692)" opacity="0.1"/>
    <path id="Path_662" data-name="Path 662" d="M825.082,612.346s-5.445,3.457-7.078,6.243-16.552,30.5-20.248,34.566a88.8,88.8,0,0,0-8.28,11.578c-.431.732-.431,5.335,2.18.944s1.965-5.132,7.078-10.581,10.765-17.768,12.954-20.228,5.23-9.849,9.043-14.241l7.3-8.386Z" transform="translate(-97.319 -224.076)" opacity="0.1"/>
    <path id="Path_663" data-name="Path 663" d="M829.719,666.19s-3.813-2.566-7.4,1.816S829.719,666.19,829.719,666.19Z" transform="translate(-100.646 -230.365)" opacity="0.1"/>
    <path id="Path_664" data-name="Path 664" d="M835.305,667.79s-3.158,5.414-4.683,5.846S835.305,667.79,835.305,667.79Z" transform="translate(-101.55 -230.643)" opacity="0.1"/>
    <path id="Path_665" data-name="Path 665" d="M830.113,669.32s-2.5,4.285-4.683,3.853Z" transform="translate(-101.041 -230.824)" opacity="0.1"/>
    <path id="Path_666" data-name="Path 666" d="M810.451,537.436s23.083-.961,25.37-1.711,22.535-3.315,22.535-3.315,60,4.171,42.909,9.206-40.289,2.883-40.289,2.883-22.652,5.784-26.133,8.818-29.183,3.1-29.183,3.1Z" transform="translate(-99.007 -214.638)" fill="#efb7b9"/>
    <path id="Path_667" data-name="Path 667" d="M810.451,537.436s23.083-.961,25.37-1.711,22.535-3.315,22.535-3.315,60,4.171,42.909,9.206-40.289,2.883-40.289,2.883-22.652,5.784-26.133,8.818-29.183,3.1-29.183,3.1Z" transform="translate(-99.007 -214.638)" opacity="0.05"/>
    <path id="Path_668" data-name="Path 668" d="M717.9,479.424s-21.127,7.054-10.891,25.042,23.415,26.453,23.415,26.453L764.4,554.04s14.264,8.024,20.795,4.709l10.667-.882,1.794-27.512s-8.971,6.851-18.732-2.645-21.782-15.951-22.76-21.083S730.2,475.033,717.9,479.424Z" transform="translate(-88.568 -208.316)" fill="#a36468"/>
    <path id="Path_669" data-name="Path 669" d="M793.87,544.415s11,3.853,10.568,4.065-10.568,3.959-10.568,3.959l.763,14.664,14.919-.8s5.445-26.7.763-29.381l-16.444-.75Z" transform="translate(-97.794 -215.083)" fill="#67647e"/>
    <path id="Path_670" data-name="Path 670" d="M793.87,544.415s11,3.853,10.568,4.065-10.568,3.959-10.568,3.959l.763,14.664,14.919-.8s5.445-26.7.763-29.381l-16.444-.75Z" transform="translate(-97.794 -215.083)" opacity="0.1"/>
    <path id="Path_671" data-name="Path 671" d="M765.939,453.521a20.529,20.529,0,0,0-3.445,5.238c-.135.291-.269.573-.395.882-8.011,0-13.771-6.12-18.687-11.6-.9-1.014-3.167.52-3.911-.617-.081-.132-.161-.264-.251-.4l.251-.459c2.691-5.017,4.656-9.3,4.656-9.3s.9.282,2.35.785C753.209,440.383,771.663,447.534,765.939,453.521Z" transform="translate(-92.174 -203.391)" opacity="0.1"/>
    <path id="Path_672" data-name="Path 672" d="M788.8,427.987a26.77,26.77,0,0,1-26.752,26.533h-.26a27.052,27.052,0,0,1-22.733-12.213,26.184,26.184,0,0,1,1.511-30.767,27.3,27.3,0,0,1,30.075-8.658,26.586,26.586,0,0,1,18.159,25.1Z" transform="translate(-91.714 -199.152)" fill="#efb7b9"/>
    <path id="Path_673" data-name="Path 673" d="M757.268,618.22s-2.054,2.469-4.324,4.77c-1.714,1.764-3.544,3.377-4.719,3.792-2.691.97-15.027,10.167-15.027,10.167s-9.8,6.534-12.3,8.456-11.546.75-11.546.75-8.7-1.869-14.094-5.291a34.2,34.2,0,0,1,1.794-3.668l5.661-13.491,22.428-2.848Z" transform="translate(-87.647 -224.783)" opacity="0.1"/>
    <path id="Path_674" data-name="Path 674" d="M756.327,616.28s-2.045,2.469-4.315,4.77c-1.713,1.764-3.588,3.377-4.719,3.792-2.691.961-15.027,10.167-15.027,10.167s-9.805,6.534-12.308,8.456-11.537.75-11.537.75-12.416-2.645-16.776-7.5c-3.05-3.377.108-9.638,2.261-13.086a26.429,26.429,0,0,1,1.66-2.434Z" transform="translate(-87.145 -224.553)" fill="#67647e"/>
    <path id="Path_675" data-name="Path 675" d="M778.212,517.157c-7.41-.644-31.8-29.98-31.8-29.98l.556-.75,5.114-6.957h11.958l1.319,6.419c9.1,12.539,14.452,21.26,15.906,26.251C782.312,515.773,781.316,517.431,778.212,517.157Z" transform="translate(-92.91 -208.379)" fill="#67647e"/>
    <path id="Path_676" data-name="Path 676" d="M778.212,518.09c-7.41-.644-31.8-29.981-31.8-29.981l.556-.75a136.431,136.431,0,0,1,12.3,12.627c17.852,20.651,21.387,14.884,22,13.086C782.312,516.706,781.316,518.363,778.212,518.09Z" transform="translate(-92.91 -209.312)" opacity="0.1"/>
    <path id="Path_677" data-name="Path 677" d="M756.731,616.28s-2.045,2.469-4.315,4.77a12.42,12.42,0,0,1-3.741.794c-2.835-.106-9.366,4.285-9.366,4.285s-11.537-.644-13.717.529-10.568,1.393-10.568,1.393c-15.349,4.3-19.593-2.231-20.714-4.409a26.439,26.439,0,0,1,1.66-2.434Z" transform="translate(-87.55 -224.553)" opacity="0.1"/>
    <path id="Path_678" data-name="Path 678" d="M783.36,535.814a9.152,9.152,0,0,1-.135,1.226c-.054.4-.108.8-.17,1.182a19.157,19.157,0,0,1-1.965,6.252c-1.956,3.21-7.948,15.731-7.948,15.731l-.4,2.31-.206,1.208-.215,1.19-1.462,8.439L770.2,583.1s-3.588,4.92-5.114,7.054-1.31,5.247-.763,7.5-5.006,2.566-5.006,2.566-7.841,3.748-10.676,3.642-9.366,4.268-9.366,4.268-11.537-.644-13.717.538-10.568,1.393-10.568,1.393c-16.435,4.594-20.14-3.219-20.9-4.823s3.266-8.13,3.266-8.13.9-8.245,2.61-8.888,3.813-11.551,3.813-11.551-.655-3.324.763-5.141,1.31-6.957,3.158-9.417-1.956-10.7-1.3-12.848-2.072-10.811-1.857-13.059-.538-4.065-2.288-8.562c-1.489-3.836-1.068-20.881-.9-25.766,0-.829.045-1.305.045-1.305s1.525-4.823,5.553-14.452c3.05-7.292,9.913-10.052,13.062-10.952a16.636,16.636,0,0,1,1.642-.4,11.691,11.691,0,0,1,2.315.573c3.176,1.049,9.527,4.021,18.588,12.345a137.982,137.982,0,0,1,11.331,11.745c20.427,23.6,22.1,12.583,22.1,12.583s.9,2.01,5.1,10.035C783.342,526.309,783.755,531.405,783.36,535.814Z" transform="translate(-87.517 -207.823)" fill="#a36468"/>
    <path id="Path_679" data-name="Path 679" d="M752.573,475.846l-20.49-16.066s-7.383.882-10.433,13.068L742.741,491Z" transform="translate(-90.363 -206.052)" opacity="0.1"/>
    <path id="Path_680" data-name="Path 680" d="M752.526,475.738l-3.588,4.929L745.3,485.72l-2.745,3.959-16.839-13.941-2.9-2.469-1.624-1.358c1.642-6.587,4.557-9.876,6.881-11.463a8.621,8.621,0,0,1,3.588-1.578Z" transform="translate(-90.315 -205.944)" fill="#67647e"/>
    <path id="Path_681" data-name="Path 681" d="M902.23,548.9c-17.1,5.026-40.289,2.892-40.289,2.892s-22.652,5.776-26.133,8.818c-2.243,1.931-13.7,2.645-21.531,2.936-4.351.159-7.607.168-7.607.168l4.782-18.985,2.763-.123c6.2-.282,20.813-1.005,22.607-1.6,2.288-.75,22.535-3.315,22.535-3.315S919.32,543.861,902.23,548.9Z" transform="translate(-99.111 -215.499)" fill="#efb7b9"/>
    <path id="Path_682" data-name="Path 682" d="M784.206,539.7a19.158,19.158,0,0,1-1.965,6.252c-1.956,3.21-7.948,15.731-7.948,15.731l-.825,4.753a59.51,59.51,0,0,1-8.074-3.651l-34-23.147s-13.179-8.456-23.414-26.453,10.891-25.043,10.891-25.043c12.3-4.409,37.239,22.044,38.217,27.185s12.963,11.56,22.76,21.083A19.884,19.884,0,0,0,784.206,539.7Z" transform="translate(-88.668 -209.347)" opacity="0.1"/>
    <path id="Path_683" data-name="Path 683" d="M784.511,536.993c-.081.838-.179,1.64-.3,2.407a19.158,19.158,0,0,1-1.965,6.252c-1.956,3.21-7.948,15.731-7.948,15.731l-.4,2.31a58.685,58.685,0,0,1-8.523-3.809l-33.974-23.156s-13.179-8.456-23.414-26.453,10.891-25.051,10.891-25.051c12.3-4.409,37.239,22.044,38.217,27.185s12.963,11.56,22.76,21.092a19.611,19.611,0,0,0,4.665,3.492Z" transform="translate(-88.668 -209.001)" opacity="0.1"/>
    <path id="Path_684" data-name="Path 684" d="M798.578,537.651l-1.74,27.5-10.676.882a5.277,5.277,0,0,1-.727.309c-6.8,2.451-20.068-5.017-20.068-5.017L731.393,538.18s-13.179-8.456-23.414-26.453,10.891-25.043,10.891-25.043c12.3-4.409,37.239,22.044,38.217,27.185s12.963,11.56,22.76,21.083a19.537,19.537,0,0,0,4.9,3.527A13.573,13.573,0,0,0,798.578,537.651Z" transform="translate(-88.668 -209.174)" fill="#a36468"/>
    <path id="Path_685" data-name="Path 685" d="M807.7,544.55l-1.74,27.5-10.676.882a5.277,5.277,0,0,1-.727.309l-.691-13.368s10.128-3.748,10.568-3.959-10.568-4.065-10.568-4.065v-6.393A13.572,13.572,0,0,0,807.7,544.55Z" transform="translate(-97.794 -216.073)" opacity="0.1"/>
    <path id="Path_686" data-name="Path 686" d="M814.227,564.156c-4.351.159-7.607.168-7.607.168l4.826-18.941,2.763-.123C815.986,548.267,815.223,557.1,814.227,564.156Z" transform="translate(-99.105 -216.157)" opacity="0.1"/>
    <path id="Path_687" data-name="Path 687" d="M794.84,551.695s11,3.853,10.568,4.065-10.568,3.959-10.568,3.959l.763,14.664,14.919-.8s5.445-26.7.763-29.381l-16.444-.749Z" transform="translate(-97.893 -215.943)" fill="#67647e"/>
    <path id="Path_688" data-name="Path 688" d="M721.365,572.71s-3.705,3.421-6.755,4.329Z" transform="translate(-89.638 -219.402)" opacity="0.1"/>
    <path id="Path_689" data-name="Path 689" d="M712.31,583.889s9.034-.326,10.119-2.143S712.31,583.889,712.31,583.889Z" transform="translate(-89.402 -220.414)" opacity="0.1"/>
    <path id="Path_690" data-name="Path 690" d="M707.33,598.292c.547,0,11.429-1.5,11.869-2.892Z" transform="translate(-88.889 -222.085)" opacity="0.1"/>
    <path id="Path_691" data-name="Path 691" d="M703.57,607.335c3.92-.115,10.559-4.285,10.559-4.285Z" transform="translate(-88.502 -222.989)" opacity="0.1"/>
    <path id="Path_692" data-name="Path 692" d="M731.85,609.6s23.63,0,24.715-4.277S731.85,609.6,731.85,609.6Z" transform="translate(-91.412 -223.116)" opacity="0.1"/>
    <path id="Path_693" data-name="Path 693" d="M751.63,542.058c.44,0,18.624,0,20.364-2.46S751.63,542.058,751.63,542.058Z" transform="translate(-93.447 -215.406)" opacity="0.1"/>
    <path id="Path_694" data-name="Path 694" d="M726.519,462.723a16.8,16.8,0,0,1,.233,2.645,16.116,16.116,0,0,1-.269,2.936,25.108,25.108,0,0,1-1.686,5.352l-.188.432c-.269.617-.556,1.217-.852,1.816a49.79,49.79,0,0,1-4.7,7.619,83.967,83.967,0,0,1-14.1,14.417q-1.373,1.138-2.772,2.249c0-.829.045-1.305.045-1.305s1.525-4.823,5.553-14.452c3.05-7.292,9.913-10.052,13.062-10.952l-1.624-1.358c1.642-6.587,4.557-9.876,6.881-11.463C726.24,461.313,726.411,462,726.519,462.723Z" transform="translate(-88.359 -206.156)" opacity="0.1"/>
    <path id="Path_695" data-name="Path 695" d="M784.87,414.243a3.189,3.189,0,0,0-.789.309c-1.7.926-2.2,3.121-3.589,4.506-1.606,1.631-4.118,1.878-6.405,2.16s-4.844.838-6.055,2.769c-.9,1.437-.816,3.245-1.139,4.9a1.547,1.547,0,0,1-.35.811,1.633,1.633,0,0,1-1.094.353c-4.485.309-7.751-1.208-11.949-2.275-1.974-.494-4.27-.432-5.777.882a6.39,6.39,0,0,0-1.7,4.991v.159a33.49,33.49,0,0,1,.161,5.291,8.738,8.738,0,0,1-4.692,6.463,8.407,8.407,0,0,1-3.391.952,2.788,2.788,0,0,1-1.346-.194c.8-1.34,1.561-2.645,2.261-3.977a26.281,26.281,0,0,1,8.61-36.579,27.288,27.288,0,0,1,37.217,8.466Z" transform="translate(-91.727 -199.19)" opacity="0.1"/>
    <path id="Path_696" data-name="Path 696" d="M787.781,408.877a4.5,4.5,0,0,1-1.5,1.808c-2.045,1.305-4.979-.132-7.114,1.032-1.713.926-2.2,3.121-3.588,4.506-1.6,1.631-4.109,1.878-6.405,2.16s-4.835.838-6.055,2.769c-.9,1.437-.807,3.236-1.139,4.9a1.478,1.478,0,0,1-.35.811,1.661,1.661,0,0,1-1.094.353c-4.486.309-7.751-1.217-11.949-2.275-1.965-.494-4.261-.432-5.768.882s-1.74,3.192-1.713,5a37.981,37.981,0,0,1,.171,5.432,8.909,8.909,0,0,1-8.074,7.416,2.236,2.236,0,0,1-1.66-.414,2.326,2.326,0,0,1-.547-.97c-2.987-8.253-2.96-17.415-6.585-25.422a28.462,28.462,0,0,1-1.516-3.527c-.072-.247-.143-.5-.2-.758a11.417,11.417,0,0,1-.215-1.543,2.264,2.264,0,0,0-1.023.414,1.871,1.871,0,0,0-.287.3,5.16,5.16,0,0,0-.754,2.8,104.078,104.078,0,0,0,3.23,32.776,33.74,33.74,0,0,1,1.552,8.227,21.678,21.678,0,0,1-2.153,8.721c-5.625,12.751-16.928,22.089-28.169,30.527a12.159,12.159,0,0,0,3.337-9.109,3.639,3.639,0,0,1-2.844,2.5,11.151,11.151,0,0,1-4.01-.062c1.722-.556,2.4-2.548,2.826-4.277q1.319-5.291,2.449-10.678a66.153,66.153,0,0,0,1.579-10.423c.135-2.98-.1-5.97-.224-8.959a178.254,178.254,0,0,1,.9-24.557c.664-7.054,1.866-14.682,7.132-19.5a31.076,31.076,0,0,1,7.536-4.621c0-.882,6.576-2.645,7.446-2.769a7.191,7.191,0,0,1,1.094-.123,2.262,2.262,0,0,1,2.341,1.208c.323-.573.682-1.137,1.059-1.675a19.594,19.594,0,0,1,1.7-2.107c3.418-3.7,7.85-6.314,11.806-9.453a30.337,30.337,0,0,1,4.7-3.4,17.155,17.155,0,0,1,7.042-1.764,29.024,29.024,0,0,1,11.887,1.834c5.454,2.063,10.218,5.767,15.861,7.266a38.253,38.253,0,0,1,4.118,1.12,9.888,9.888,0,0,1,5.667,5.665,9.654,9.654,0,0,1-.463,7.932Z" transform="translate(-87.246 -197.21)" fill="#444053"/>
    <g id="Group_127" data-name="Group 127" transform="translate(604.078 204.64)" opacity="0.1">
      <path id="Path_697" data-name="Path 697" d="M696.927,500.952a12,12,0,0,0,.816-5.2,3.657,3.657,0,0,1-2.853,2.5,5.916,5.916,0,0,1-1.041.15c-.449,1.411-1.157,2.769-2.53,3.21a11.159,11.159,0,0,0,4.01.071,4.521,4.521,0,0,0,1.6-.732Z" transform="translate(-691.32 -414.944)"/>
      <path id="Path_698" data-name="Path 698" d="M791.686,404.11a9.728,9.728,0,0,1-1.077,4,4.561,4.561,0,0,1-1.507,1.764c-2.036,1.305-4.979-.124-7.114,1.032-1.7.926-2.2,3.13-3.588,4.506-1.606,1.631-4.118,1.887-6.405,2.16s-4.844.882-6.056,2.769c-.9,1.437-.816,3.245-1.139,4.9a1.227,1.227,0,0,1-.455.9,1.272,1.272,0,0,1-.989.269c-4.486.309-7.751-1.217-11.949-2.284-1.974-.494-4.27-.432-5.777.882a6.41,6.41,0,0,0-1.7,5,36.553,36.553,0,0,1,.162,5.423,8.855,8.855,0,0,1-8.074,7.425,2.263,2.263,0,0,1-1.66-.414,2.359,2.359,0,0,1-.547-.979c-2.987-8.253-2.969-17.415-6.594-25.413a30.57,30.57,0,0,1-1.507-3.527,10.193,10.193,0,0,1-.422-2.3,1.983,1.983,0,0,0-1.31.714,5.344,5.344,0,0,0-.754,2.8,104.623,104.623,0,0,0,.9,21.163,104.878,104.878,0,0,1-.44-17.759,5.161,5.161,0,0,1,.754-2.8,1.892,1.892,0,0,1,1.31-.714,10.266,10.266,0,0,0,.413,2.3,29.9,29.9,0,0,0,1.516,3.527c3.588,8.007,3.588,17.159,6.585,25.413a2.423,2.423,0,0,0,.556.979,2.2,2.2,0,0,0,1.651.485,8.909,8.909,0,0,0,8.074-7.416,37.982,37.982,0,0,0-.171-5.432c0-1.816.35-3.783,1.714-5,1.507-1.34,3.8-1.393,5.768-.882,4.2,1.058,7.446,2.584,11.949,2.275a1.661,1.661,0,0,0,1.094-.353,1.512,1.512,0,0,0,.35-.82c.332-1.658.233-3.465,1.139-4.894,1.22-1.931,3.768-2.5,6.056-2.778s4.808-.52,6.414-2.152c1.355-1.384,1.839-3.58,3.588-4.515,2.126-1.155,5.069.282,7.114-1.023a4.5,4.5,0,0,0,1.5-1.808,9.844,9.844,0,0,0,.637-7.433Z" transform="translate(-694.583 -404.11)"/>
      <path id="Path_699" data-name="Path 699" d="M725.173,461.55a21.738,21.738,0,0,1-2.144,8.721c-5.033,11.4-14.614,20.078-24.617,27.811a12.265,12.265,0,0,1-3.122,6.172c11.232-8.43,22.553-17.768,28.169-30.518a21.678,21.678,0,0,0,2.153-8.721,19,19,0,0,0-.458-3.836C725.164,461.268,725.173,461.409,725.173,461.55Z" transform="translate(-691.728 -410.857)"/>
    </g>
    <path id="Path_700" data-name="Path 700" d="M729.393,404c-.807,3.651-1.92,8.395-2.754,10.837a13.031,13.031,0,0,1-.215-1.543,2.236,2.236,0,0,0-1.014.414c0-2.566.314-6.384.583-9.241a2.271,2.271,0,0,1,2.35,1.208A15.282,15.282,0,0,1,729.393,404Z" transform="translate(-90.75 -199.457)" opacity="0.1"/>
    <path id="Path_701" data-name="Path 701" d="M728.912,404c-.807,3.651-1.92,8.395-2.754,10.837a11.4,11.4,0,0,1-.215-1.543,2.263,2.263,0,0,0-1.023.414c0-2.566.314-6.384.592-9.241a2.261,2.261,0,0,1,2.341,1.208C728.176,405.111,728.58,404.547,728.912,404Z" transform="translate(-90.699 -199.457)" fill="#67647e"/>
    <g id="Group_128" data-name="Group 128" transform="translate(814.172 -0.03)" opacity="0.7">
      <path id="Path_702" data-name="Path 702" d="M933,179.57h148.624V321.66H933Z" transform="translate(-926.281 -172.895)" fill="#2e001e"/>
      <path id="Path_703" data-name="Path 703" d="M925.51,172V327.4h162.135V172Zm6.755,6.649h148.624V320.765H932.229Z" transform="translate(-925.51 -172)" fill="#ff2bc2"/>
      <path id="Path_704" data-name="Path 704" d="M1046.758,242.254a9.374,9.374,0,0,0-3.92-.67c-8.5,0-14.183,6.446-14.183,17.133,0,12.221,5.813,17.133,13.376,17.133a12.811,12.811,0,0,0,4.665-.732V242.254Zm-30.286,17c0-15.475,10.128-27.564,26.752-27.564a28.572,28.572,0,0,1,3.508.141V214.566a.676.676,0,0,1,.682-.67h10.873c.538,0,.673.2.673.538v60.684a45.994,45.994,0,0,0,.341,6.507c0,.467,0,.538-.4.732a40.892,40.892,0,0,1-17.3,3.853c-14.659,0-25.119-8.9-25.119-26.956ZM993.434,248.5l18.938,36.029c.341.529.135,1.058-.4,1.058h-11.752a1.32,1.32,0,0,1-1.417-.882q-6.486-13.147-13.241-27.291h-.135c-4.055,8.9-8.514,18.6-12.838,27.335a1.3,1.3,0,0,1-1.22.732H960.151c-.673,0-.736-.538-.4-.935l18.507-34.989-17.9-34.689a.583.583,0,0,1-.108-.658.6.6,0,0,1,.584-.339h11.618c.673,0,1.014.132,1.211.732,4.261,8.818,8.585,17.53,12.64,26.453h.135c3.911-8.765,8.235-17.636,12.362-26.295.332-.538.538-.882,1.211-.882h10.882c.538,0,.736.4.4,1l-17.835,33.666Z" transform="translate(-929.013 -176.95)" fill="#ff2bc2"/>
    </g>
    <g id="Group_129" data-name="Group 129" transform="translate(170.281 9.714)" opacity="0.7">
      <path id="a" d="M242.345,244.46l50.794,97.71L207.77,244.46Z" transform="translate(-207.77 -190.31)" fill="#ea6c00"/>
      <path id="b" d="M353.734,244.46,302.94,342.17l85.369-97.71Z" transform="translate(-217.562 -190.31)" fill="#ea6c00"/>
      <path id="c" d="M246.31,244.46H347.89L297.1,342.17Z" transform="translate(-211.735 -190.31)" fill="#fdad00"/>
      <path id="d" d="M297.1,183.05l-48.121,5L246.29,237.2Z" transform="translate(-211.733 -183.05)" fill="#fdd231"/>
      <path id="e" d="M302.93,183.05l48.112,5,2.691,49.15Z" transform="translate(-217.561 -183.05)" fill="#fdd231"/>
      <path id="f" d="M393.828,237.87,356.58,188.72l2.691,49.15Z" transform="translate(-223.081 -183.72)" fill="#fdad00"/>
      <path id="g" d="M207.77,237.87l37.248-49.15-2.691,49.15Z" transform="translate(-207.77 -183.72)" fill="#fdad00"/>
      <path id="h" d="M297.1,183.05,246.31,237.2H347.89Z" transform="translate(-211.735 -183.05)" fill="#feeeb7"/>
    </g>
  </g>
</svg>
