<svg xmlns="http://www.w3.org/2000/svg" width="689" height="507.68" viewBox="0 0 689 507.68">
  <g id="pic4_security_services" transform="translate(0 0)">
    <path id="Path_363" data-name="Path 363" d="M1087.181,366.851h-1.163V329.482c0-11.945-8.26-21.629-18.45-21.629h-67.537c-10.189,0-18.45,9.683-18.45,21.629V534.494c0,11.945,8.26,21.629,18.45,21.629h67.536c10.19,0,18.45-9.684,18.45-21.629V393.452h1.164Z" transform="translate(-398.181 -158.342)" fill="#3f3d56"/>
    <path id="Path_364" data-name="Path 364" d="M1085.134,333.2V537.914c0,8.921-6.169,16.153-13.779,16.154h-67.861c-7.607,0-13.775-7.232-13.774-16.152V333.2c0-8.917,6.167-16.147,13.774-16.147h8.233a8.82,8.82,0,0,0,.632,7.174,6.352,6.352,0,0,0,5.429,3.394h38.692a6.337,6.337,0,0,0,5.437-3.388,8.8,8.8,0,0,0,.623-7.181h8.815c7.609,0,13.777,7.229,13.78,16.148Z" transform="translate(-401.224 -160.79)" fill="#d0cde1"/>
    <rect id="Rectangle_213" data-name="Rectangle 213" width="78.886" height="24.954" transform="translate(592.177 261.072)" fill="#f1f1f1"/>
    <path id="Path_365" data-name="Path 365" d="M1079.86,478.275h-76.382a2.062,2.062,0,0,1-1.878-2.2V454.055a2.062,2.062,0,0,1,1.878-2.2h76.382a2.062,2.062,0,0,1,1.878,2.2v22.019A2.062,2.062,0,0,1,1079.86,478.275Zm-76.382-24.954a.687.687,0,0,0-.626.734v22.019a.687.687,0,0,0,.626.734h76.382a.687.687,0,0,0,.626-.734V454.055a.687.687,0,0,0-.626-.734Z" transform="translate(-405.667 -196.653)" fill="#3f3d56"/>
    <rect id="Rectangle_214" data-name="Rectangle 214" width="10.017" height="1.468" transform="translate(600.943 275.017)" fill="#3f3d56"/>
    <rect id="Rectangle_215" data-name="Rectangle 215" width="10.017" height="1.468" transform="translate(614.716 275.017)" fill="#3f3d56"/>
    <rect id="Rectangle_216" data-name="Rectangle 216" width="10.017" height="1.468" transform="translate(628.489 275.017)" fill="#3f3d56"/>
    <rect id="Rectangle_217" data-name="Rectangle 217" width="10.017" height="1.468" transform="translate(642.263 275.017)" fill="#3f3d56"/>
    <rect id="Rectangle_218" data-name="Rectangle 218" width="10.017" height="1.468" transform="translate(656.037 275.017)" fill="#3f3d56"/>
    <path id="Path_366" data-name="Path 366" d="M1085.134,562.45v20.815c0,8.921-6.169,16.154-13.779,16.154h-67.861c-7.607,0-13.775-7.232-13.774-16.152V487.513Z" transform="translate(-401.224 -206.14)" opacity="0.1"/>
    <rect id="Rectangle_219" data-name="Rectangle 219" width="296.135" height="170.277" transform="translate(62.515 337.403)" fill="#d0cde1"/>
    <path id="Path_367" data-name="Path 367" d="M370.45,734.13h-219.6a1.377,1.377,0,0,1-1.252-1.468V565.321a1.377,1.377,0,0,1,1.252-1.468h2.78Z" transform="translate(-87.086 -226.45)" opacity="0.1"/>
    <rect id="Rectangle_220" data-name="Rectangle 220" width="458.916" height="1.468" transform="translate(199.626 360.156)" fill="#3f3d56"/>
    <path id="Path_368" data-name="Path 368" d="M402.537,107.315H271.38v-3.169H211.908v3.169H80.21c-4.9,0-8.872,4.656-8.872,10.4V328.255c0,5.744,3.972,10.4,8.872,10.4H402.537c4.9,0,8.872-4.656,8.872-10.4V117.716c0-5.745-3.972-10.4-8.872-10.4Z" transform="translate(-57.822 -104.147)" fill="#3f3d56"/>
    <rect id="Rectangle_221" data-name="Rectangle 221" width="316.276" height="209.162" transform="translate(25.413 21.546)" fill="#d0cde1"/>
    <ellipse id="Ellipse_36" data-name="Ellipse 36" cx="3.244" cy="3.803" rx="3.244" ry="3.803" transform="translate(180.037 8.239)" fill="#f1f1f1"/>
    <path id="Path_369" data-name="Path 369" d="M234.992,235.064h-7.513a2.062,2.062,0,0,1-1.878-2.2v-8.807a2.062,2.062,0,0,1,1.878-2.2h7.513a2.062,2.062,0,0,1,1.878,2.2v8.807a2.062,2.062,0,0,1-1.878,2.2Zm-7.513-11.743a.687.687,0,0,0-.626.734v8.807a.687.687,0,0,0,.626.734h7.513a.687.687,0,0,0,.626-.734v-8.807a.687.687,0,0,0-.626-.734Z" transform="translate(-115.504 -135.462)" fill="#3f3d56"/>
    <rect id="Rectangle_222" data-name="Rectangle 222" width="142.746" height="1.468" transform="translate(110.723 98.135)" fill="#3f3d56"/>
    <rect id="Rectangle_223" data-name="Rectangle 223" width="33.182" height="11.743" transform="translate(216.53 138.502)" fill="#f1f1f1"/>
    <path id="Path_370" data-name="Path 370" d="M433.157,300.064H402.479a2.062,2.062,0,0,1-1.878-2.2v-8.807a2.062,2.062,0,0,1,1.878-2.2h30.678a2.062,2.062,0,0,1,1.878,2.2v8.807A2.062,2.062,0,0,1,433.157,300.064Zm-30.678-11.743a.687.687,0,0,0-.626.734v8.807a.687.687,0,0,0,.626.734h30.678a.687.687,0,0,0,.626-.734v-8.807a.687.687,0,0,0-.626-.734Z" transform="translate(-180.94 -152.755)" fill="#3f3d56"/>
    <rect id="Rectangle_224" data-name="Rectangle 224" width="62.608" height="51.377" transform="translate(440.666 151.713)" fill="#f1f1f1"/>
    <path id="Path_371" data-name="Path 371" d="M826.209,355.665h-60.1a2.749,2.749,0,0,1-2.5-2.936V304.289a2.749,2.749,0,0,1,2.5-2.936h60.1a2.749,2.749,0,0,1,2.5,2.936V352.73a2.749,2.749,0,0,1-2.5,2.936Zm-60.1-51.377V352.73h60.105l0-48.441Z" transform="translate(-316.674 -156.613)" fill="#3f3d56"/>
    <path id="Path_372" data-name="Path 372" d="M824.931,293.009h-2.5c0-13.377-9.25-24.22-20.661-24.22s-20.661,10.844-20.661,24.22h-2.5c0-15,10.371-27.156,23.165-27.156s23.165,12.158,23.165,27.156Z" transform="translate(-322.283 -147.168)" fill="#3f3d56"/>
    <path id="Path_373" data-name="Path 373" d="M818.122,327.689c0-3.531-2.139-6.565-5.1-7.22s-5.9,1.253-6.994,4.542a8.033,8.033,0,0,0,2.518,8.9v7.878a3.634,3.634,0,0,0,3.315,3.886h0a3.634,3.634,0,0,0,3.315-3.886v-7.878A7.687,7.687,0,0,0,818.122,327.689Z" transform="translate(-332.378 -161.664)" fill="#3f3d56"/>
    <rect id="Rectangle_225" data-name="Rectangle 225" width="10.017" height="1.468" transform="translate(178.026 413)" fill="#3f3d56"/>
    <rect id="Rectangle_226" data-name="Rectangle 226" width="10.017" height="1.468" transform="translate(191.8 413)" fill="#3f3d56"/>
    <rect id="Rectangle_227" data-name="Rectangle 227" width="10.017" height="1.468" transform="translate(205.574 413)" fill="#3f3d56"/>
    <rect id="Rectangle_228" data-name="Rectangle 228" width="10.017" height="1.468" transform="translate(219.347 413)" fill="#3f3d56"/>
    <rect id="Rectangle_229" data-name="Rectangle 229" width="10.017" height="1.468" transform="translate(233.121 413)" fill="#3f3d56"/>
    <path id="Path_374" data-name="Path 374" d="M466.736,716.067H173.105a2.749,2.749,0,0,1-2.5-2.936V545.79a2.749,2.749,0,0,1,2.5-2.936H466.736a2.749,2.749,0,0,1,2.5,2.936V713.131A2.749,2.749,0,0,1,466.736,716.067ZM173.105,545.79V713.131H466.738l0-167.341Z" transform="translate(-94.939 -220.864)" fill="#3f3d56"/>
    <ellipse id="Ellipse_37" data-name="Ellipse 37" cx="3.756" cy="4.404" rx="3.756" ry="4.404" transform="translate(87.558 341.073)" fill="#3f3d56"/>
    <ellipse id="Ellipse_38" data-name="Ellipse 38" cx="3.756" cy="4.404" rx="3.756" ry="4.404" transform="translate(100.705 341.073)" fill="#3f3d56"/>
    <ellipse id="Ellipse_39" data-name="Ellipse 39" cx="3.756" cy="4.404" rx="3.756" ry="4.404" transform="translate(113.853 341.073)" fill="#3f3d56"/>
    <path id="Path_375" data-name="Path 375" d="M402,670.211H317.479a2.062,2.062,0,0,1-1.878-2.2V643.055a2.062,2.062,0,0,1,1.878-2.2H402a2.062,2.062,0,0,1,1.878,2.2v24.954a2.062,2.062,0,0,1-1.878,2.2Zm-84.521-27.89a.687.687,0,0,0-.626.734v24.954a.687.687,0,0,0,.626.734H402a.687.687,0,0,0,.626-.734V643.055a.687.687,0,0,0-.626-.734Z" transform="translate(-149.157 -246.936)" fill="#3f3d56"/>
    <ellipse id="Ellipse_40" data-name="Ellipse 40" cx="11.269" cy="13.211" rx="11.269" ry="13.211" transform="translate(262.86 397.587)" fill="#f1f1f1"/>
    <path id="Path_376" data-name="Path 376" d="M486.5,669.743c-6.57,0-11.9-6.243-11.9-13.945s5.326-13.945,11.9-13.945,11.9,6.243,11.9,13.945S493.063,669.734,486.5,669.743Zm0-26.422c-5.878,0-10.643,5.586-10.643,12.477s4.765,12.477,10.643,12.477,10.643-5.586,10.643-12.477S492.372,643.329,486.5,643.321Z" transform="translate(-208.611 -247.202)" fill="#3f3d56"/>
    <path id="Path_377" data-name="Path 377" d="M440.5,555.49l-6.061-7.106,1.771-2.076,3.956,4.637,11.039-18.39,2.048,1.69Z" transform="translate(-162.445 -141.685)" fill="#3f3d56"/>
    <path id="Path_378" data-name="Path 378" d="M286.746,244.263H40.591V50.947Z" transform="translate(-15.178 -13.554)" opacity="0.1"/>
    <path id="Path_379" data-name="Path 379" d="M412.216,412.166H381.349v-2.607a.483.483,0,0,0-.441-.517H370.325a.483.483,0,0,0-.441.517v2.607H363.27v-2.607a.484.484,0,0,0-.441-.517H352.246a.483.483,0,0,0-.441.517v2.607h-6.614v-2.607a.483.483,0,0,0-.441-.517H334.167a.484.484,0,0,0-.441.517v2.607h-6.614v-2.607a.483.483,0,0,0-.441-.517H316.088a.483.483,0,0,0-.441.517v2.607h-6.615v-2.607a.484.484,0,0,0-.441-.517H298.009a.484.484,0,0,0-.441.517v2.607h-6.615v-2.607a.484.484,0,0,0-.441-.517H279.93a.484.484,0,0,0-.441.517v2.607h-6.614v-2.607a.483.483,0,0,0-.441-.517h-82.9a.484.484,0,0,0-.441.517v2.607h-6.614v-2.607a.484.484,0,0,0-.441-.517H171.454a.483.483,0,0,0-.441.517v2.607H164.4v-2.607a.484.484,0,0,0-.441-.517H153.375a.483.483,0,0,0-.441.517v2.607h-6.614v-2.607a.484.484,0,0,0-.441-.517H135.3a.484.484,0,0,0-.441.517v2.607H128.24v-2.607a.484.484,0,0,0-.441-.517H117.216a.484.484,0,0,0-.441.517v2.607h-6.614v-2.607a.484.484,0,0,0-.441-.517H99.137a.484.484,0,0,0-.441.517v2.607H92.082v-2.607a.484.484,0,0,0-.441-.517H81.058a.484.484,0,0,0-.441.517v2.607H60.333c-5.845,0-10.583,5.555-10.583,12.407v5.61c0,6.852,4.738,12.406,10.583,12.406H412.216c5.845,0,10.583-5.555,10.583-12.407v-5.609c0-6.852-4.738-12.407-10.584-12.407Z" transform="translate(-49.75 -185.263)" fill="#3f3d56"/>
    <path id="Path_380" data-name="Path 380" d="M374.764,290.992H209.479a2.062,2.062,0,0,1-1.878-2.2V208.055a2.062,2.062,0,0,1,1.878-2.2H374.764a2.062,2.062,0,0,1,1.878,2.2V288.79A2.062,2.062,0,0,1,374.764,290.992ZM209.479,207.321a.687.687,0,0,0-.626.734V288.79a.687.687,0,0,0,.626.734H374.764a.687.687,0,0,0,.626-.734V208.055a.687.687,0,0,0-.626-.734Z" transform="translate(-108.774 -131.205)" fill="#3f3d56"/>
    <path id="Path_381" data-name="Path 381" d="M234.992,265.064h-7.513a2.062,2.062,0,0,1-1.878-2.2v-8.807a2.062,2.062,0,0,1,1.878-2.2h7.513a2.062,2.062,0,0,1,1.878,2.2v8.807a2.062,2.062,0,0,1-1.878,2.2Zm-7.513-11.743a.687.687,0,0,0-.626.734v8.807a.687.687,0,0,0,.626.734h7.513a.687.687,0,0,0,.626-.734v-8.807a.687.687,0,0,0-.626-.734Z" transform="translate(-115.504 -143.444)" fill="#3f3d56"/>
    <rect id="Rectangle_230" data-name="Rectangle 230" width="142.746" height="1.468" transform="translate(110.723 120.153)" fill="#3f3d56"/>
    <rect id="Rectangle_231" data-name="Rectangle 231" width="458.916" height="1.468" transform="translate(165.818 197.952)" fill="#3f3d56"/>
    <ellipse id="Ellipse_41" data-name="Ellipse 41" cx="8.765" cy="10.275" rx="8.765" ry="10.275" transform="translate(157.053 187.677)" fill="#3f3d56"/>
    <ellipse id="Ellipse_42" data-name="Ellipse 42" cx="6.887" cy="8.073" rx="6.887" ry="8.073" transform="translate(617.847 191.347)" fill="#3f3d56"/>
    <ellipse id="Ellipse_43" data-name="Ellipse 43" cx="6.887" cy="8.073" rx="6.887" ry="8.073" transform="translate(651.654 353.55)" fill="#3f3d56"/>
    <ellipse id="Ellipse_44" data-name="Ellipse 44" cx="6.887" cy="8.073" rx="6.887" ry="8.073" transform="translate(194.617 353.55)" fill="#3f3d56"/>
  </g>
</svg>
