<svg xmlns="http://www.w3.org/2000/svg" width="826.775" height="559.276" viewBox="0 0 826.775 559.276">
  <g id="pic5_join_us" transform="translate(0 0.035)">
    <path id="Path_705" data-name="Path 705" d="M846.786,626.973h0A232.118,232.118,0,0,1,845,578.815l1.783-26.6h0c-9.827,20.439-7.606,47.34,0,74.758Z" transform="translate(-222.304 -181.627)" fill="#cacaca"/>
    <path id="Path_706" data-name="Path 706" d="M856.38,635.714h0a170.656,170.656,0,0,1-.858-28.665l.858-15.834h0C851.652,603.381,852.721,619.393,856.38,635.714Z" transform="translate(-224.236 -185.918)" fill="#cacaca"/>
    <path id="Path_707" data-name="Path 707" d="M884.158,662.887v8.9a2.628,2.628,0,0,1-2.554,2.67h-4.257a.83.83,0,0,0-.6.26.908.908,0,0,0-.249.63v72.978a2.628,2.628,0,0,1-2.554,2.67H822a2.616,2.616,0,0,1-2.554-2.67V675.347a.874.874,0,0,0-.851-.89H813.49a2.616,2.616,0,0,1-2.554-2.67v-8.9a2.728,2.728,0,0,1,.747-1.889,2.5,2.5,0,0,1,1.807-.781H881.6a2.622,2.622,0,0,1,2.554,2.67Z" transform="translate(-217.953 -193.51)" fill="#f2f2f2"/>
    <rect id="Rectangle_249" data-name="Rectangle 249" width="57.045" height="2.67" transform="translate(601.574 482.816)" fill="#e6e6e6"/>
    <path id="Path_708" data-name="Path 708" d="M877.833,719.525c-19.089,8.257-38.385,8.348-57.9,0v-18.81a87.194,87.194,0,0,1,57.9,0Z" transform="translate(-219.29 -197.422)" fill="#e6e6e6"/>
    <ellipse id="Ellipse_55" data-name="Ellipse 55" cx="30.988" cy="32.391" rx="30.988" ry="32.391" transform="translate(353.413 158.047)" fill="#2f2e41"/>
    <path id="Path_709" data-name="Path 709" d="M571.873,313.8a30.745,30.745,0,0,1,26.6,15.786,33.675,33.675,0,0,1,.674,31.978,33.579,33.579,0,0,0,3.922-33.8,30.4,30.4,0,0,0-55.395-1.78A30.431,30.431,0,0,1,571.873,313.8Z" transform="translate(-178.839 -154.864)" fill="#2f2e41"/>
    <ellipse id="Ellipse_56" data-name="Ellipse 56" cx="91.027" cy="95.149" rx="91.027" ry="95.149" transform="translate(235.468 0.071)" fill="#2f2e41"/>
    <path id="Path_710" data-name="Path 710" d="M409.218,171.993c32.6-38.327,88.4-42.74,126.153-9.977-.744-.74-1.481-1.485-2.254-2.2-37.573-34.915-95.109-31.38-128.511,7.894s-30.02,99.416,7.553,134.331c.774.718,1.569,1.4,2.358,2.082-35.55-35.349-37.894-93.791-5.3-132.126Z" transform="translate(-154.164 -135.809)" fill="#2f2e41"/>
    <ellipse id="Ellipse_57" data-name="Ellipse 57" cx="58.628" cy="61.283" rx="58.628" ry="61.283" transform="translate(267.096 66.997)" fill="#ffb8b8"/>
    <path id="Path_711" data-name="Path 711" d="M501.37,367.505l-62.74,2.948s5.237,33.915-28.706,37.141-64.8-6.451-77.142,17.74-7.023,110.327-7.023,110.327,23.143,87.086,41.657,99.988,180.513-4.838,180.513-4.838l67.8-89.482-2.3-69.008c-1.2-36.036-32.675-63.092-66.576-56.423q-1,.2-2.011.423s-7.448-5.818-27.882-16.5C504.465,393.291,501.37,367.505,501.37,367.505Z" transform="translate(-145.697 -161.305)" fill="#cacaca"/>
    <path id="Path_712" data-name="Path 712" d="M372.26,410.206s14.912,28.282,8.74,68.6,19.722,125.588,19.722,125.588l18.514-4.838s-12.343-83.861-9.257-103.213,3.937-76.46-11.491-86.136S372.26,410.206,372.26,410.206Z" transform="translate(-152.775 -165.53)" fill="#2f2e41"/>
    <path id="Path_713" data-name="Path 713" d="M582,426.247,588.482,604.8l12.343,8.063s17.743-195.944,8.486-195.944H590.475a8.688,8.688,0,0,0-8.489,8.873Q581.986,426.02,582,426.247Z" transform="translate(-183.936 -166.742)" fill="#2f2e41"/>
    <ellipse id="Ellipse_58" data-name="Ellipse 58" cx="7.714" cy="8.064" rx="7.714" ry="8.064" transform="translate(248.719 418.705)" fill="#0f3d3e"/>
    <ellipse id="Ellipse_59" data-name="Ellipse 59" cx="7.714" cy="8.064" rx="7.714" ry="8.064" transform="translate(403.003 426.768)" fill="#0f3d3e"/>
    <path id="Path_714" data-name="Path 714" d="M323.672,58.069v61.283H337.25L354.529,100l-2.314,19.353h60.016L408.528,100l7.406,19.353H425.5V58.069Z" transform="translate(-48.09 -6.393)" fill="#2f2e41"/>
    <ellipse id="Ellipse_60" data-name="Ellipse 60" cx="4.629" cy="8.87" rx="4.629" ry="8.87" transform="translate(261.696 106.509)" fill="#ffb8b8"/>
    <ellipse id="Ellipse_61" data-name="Ellipse 61" cx="4.629" cy="8.87" rx="4.629" ry="8.87" transform="translate(380.494 106.509)" fill="#ffb8b8"/>
    <path id="Path_715" data-name="Path 715" d="M647.288,742.4v5.4a12.408,12.408,0,0,1-1.6,6.114,11.35,11.35,0,0,1-9.834,5.838h-380.2a11.351,11.351,0,0,1-9.834-5.838,12.408,12.408,0,0,1-1.6-6.114v-5.4a11.7,11.7,0,0,1,11.428-11.952h21.922v-2.519a.487.487,0,0,1,.475-.5h11.436a.487.487,0,0,1,.477.5v2.52H297.1v-2.519a.487.487,0,0,1,.475-.5h11.436a.487.487,0,0,1,.477.5v2.52h7.152v-2.519a.487.487,0,0,1,.475-.5h11.436a.487.487,0,0,1,.477.5v2.52h7.143v-2.519a.487.487,0,0,1,.475-.5h11.436a.487.487,0,0,1,.477.5v2.52H355.7v-2.519a.487.487,0,0,1,.475-.5h11.436a.487.487,0,0,1,.477.5v2.52h7.152v-2.519a.487.487,0,0,1,.475-.5h11.436a.487.487,0,0,1,.477.5v2.52h7.143v-2.519a.487.487,0,0,1,.475-.5h89.571a.487.487,0,0,1,.477.5v2.52h7.152v-2.519a.487.487,0,0,1,.475-.5H504.36a.493.493,0,0,1,.477.5v2.519h7.143v-2.519a.487.487,0,0,1,.475-.5h11.436a.487.487,0,0,1,.477.5v2.52h7.143v-2.519a.487.487,0,0,1,.475-.5h11.436a.487.487,0,0,1,.477.5v2.52h7.152v-2.519a.487.487,0,0,1,.475-.5h11.436a.486.486,0,0,1,.468.5v2.519h7.152v-2.519a.487.487,0,0,1,.475-.5h11.436a.487.487,0,0,1,.477.5v2.52h7.143v-2.519a.487.487,0,0,1,.475-.5h11.436a.487.487,0,0,1,.477.5v2.52h33.35A11.7,11.7,0,0,1,647.288,742.4Z" transform="translate(-133.751 -200.906)" fill="#3f3d56"/>
    <rect id="Rectangle_250" data-name="Rectangle 250" width="826.775" height="1.78" transform="translate(0 557.461)" fill="#3f3d56"/>
    <path id="Path_716" data-name="Path 716" d="M619.221,488.621H270.952a9.81,9.81,0,0,0-9.586,10.02V701.477a9.81,9.81,0,0,0,9.586,10.02H619.221a9.81,9.81,0,0,0,9.586-10.02V498.641a9.81,9.81,0,0,0-9.586-10.02Z" transform="translate(-136.299 -174.631)" fill="#3f3d56"/>
    <ellipse id="Ellipse_62" data-name="Ellipse 62" cx="21.286" cy="22.249" rx="21.286" ry="22.249" transform="translate(287.781 362.556)" fill="#0f3d3e"/>
    <path id="Path_717" data-name="Path 717" d="M517.552,253,625.006,139.8h50.73v-1.78H624.3l-.249.264-107.7,113.472Z" transform="translate(-76.717 -15.189)" fill="#3f3d56"/>
    <rect id="Rectangle_251" data-name="Rectangle 251" width="124.498" height="11.596" transform="translate(660.983 78.129)" fill="#0f3d3e"/>
    <path id="Path_718" data-name="Path 718" d="M868.382,241.464H842.026V213.915h26.356Zm-24.653-1.78h22.95V215.695h-22.95Z" transform="translate(-222.572 -144.407)" fill="#3f3d56"/>
    <rect id="Rectangle_252" data-name="Rectangle 252" width="124.498" height="11.596" transform="translate(660.983 116.783)" fill="#0f3d3e"/>
    <path id="Path_719" data-name="Path 719" d="M868.382,284.9H842.026V257.348h26.356Zm-24.653-1.78h22.95V259.128h-22.95Z" transform="translate(-222.572 -149.185)" fill="#3f3d56"/>
    <rect id="Rectangle_253" data-name="Rectangle 253" width="124.498" height="11.596" transform="translate(660.983 155.438)" fill="#0f3d3e"/>
    <path id="Path_720" data-name="Path 720" d="M868.382,328.33H842.026V300.781h26.356Zm-24.653-1.78h22.95V302.561h-22.95Z" transform="translate(-222.572 -153.964)" fill="#3f3d56"/>
  </g>
</svg>
