<svg xmlns="http://www.w3.org/2000/svg" width="66.705" height="67.666" viewBox="0 0 66.705 67.666">
  <g id="Shape-73-small" transform="translate(-26.09 -22.82)">
    <path id="Path_21750" data-name="Path 21750" d="M219.53,303.821l3.321,1.816.015-8.041-3.322-1.816Z" transform="translate(-176.185 -248.475)" fill="#582f7f"/>
    <path id="Path_21751" data-name="Path 21751" d="M26.78,198.971l3.322,1.816.014-8.041L26.8,190.93Z" transform="translate(-0.628 -153.03)" fill="#582f7f"/>
    <path id="Path_21752" data-name="Path 21752" d="M142.26,354.7l3.321,1.816.014-8.042-3.32-1.816Z" transform="translate(-105.808 -294.791)" fill="#582f7f"/>
    <path id="Path_21753" data-name="Path 21753" d="M180.8,375.661l3.322,1.817.014-8.041-3.321-1.817Z" transform="translate(-140.91 -313.871)" fill="#582f7f"/>
    <path id="Path_21754" data-name="Path 21754" d="M26.96,106.151l3.321,1.817.015-8.042L26.974,98.11Z" transform="translate(-0.792 -68.536)" fill="#582f7f"/>
    <path id="Path_21755" data-name="Path 21755" d="M103.71,333.731l3.321,1.816.015-8.041-3.321-1.816Z" transform="translate(-70.696 -275.702)" fill="#582f7f"/>
    <path id="Path_21756" data-name="Path 21756" d="M26.61,291.781l3.321,1.817.015-8.041-3.321-1.817Z" transform="translate(-0.474 -237.515)" fill="#582f7f"/>
    <path id="Path_21757" data-name="Path 21757" d="M65.16,312.752l3.321,1.816.015-8.041-3.321-1.817Z" transform="translate(-35.585 -256.604)" fill="#582f7f"/>
    <path id="Path_21758" data-name="Path 21758" d="M65.51,127.121l3.321,1.817.015-8.041-3.322-1.817Z" transform="translate(-35.904 -87.625)" fill="#582f7f"/>
    <path id="Path_21759" data-name="Path 21759" d="M142.44,261.881l3.32,1.816.014-8.041-3.32-1.816Z" transform="translate(-105.972 -210.297)" fill="#582f7f"/>
    <path id="Path_21760" data-name="Path 21760" d="M180.98,282.851l3.321,1.816.015-8.041-3.322-1.816Z" transform="translate(-141.074 -229.386)" fill="#582f7f"/>
    <path id="Path_21761" data-name="Path 21761" d="M103.89,240.911l3.321,1.816.014-8.041L103.9,232.87Z" transform="translate(-70.86 -191.208)" fill="#582f7f"/>
    <path id="Path_21762" data-name="Path 21762" d="M104.06,148.091l3.321,1.817.015-8.041-3.322-1.817Z" transform="translate(-71.015 -106.714)" fill="#582f7f"/>
    <path id="Path_21763" data-name="Path 21763" d="M65.33,219.941l3.322,1.816.014-8.041L65.345,211.9Z" transform="translate(-35.74 -172.119)" fill="#582f7f"/>
    <path id="Path_21764" data-name="Path 21764" d="M180.63,468.478l3.321,1.816.015-8.038-3.321-1.816Z" transform="translate(-140.755 -398.365)" fill="#582f7f"/>
    <path id="Path_21765" data-name="Path 21765" d="M219.7,211l3.321,1.817.015-8.041-3.321-1.817Z" transform="translate(-176.34 -163.981)" fill="#582f7f"/>
    <path id="Path_21766" data-name="Path 21766" d="M142.61,169.061l3.32,1.816.015-8.041-3.32-1.816Z" transform="translate(-106.126 -125.803)" fill="#582f7f"/>
    <path id="Path_21767" data-name="Path 21767" d="M181.15,190.031l3.321,1.816.015-8.041-3.322-1.816Z" transform="translate(-141.229 -144.892)" fill="#582f7f"/>
    <path id="Path_21768" data-name="Path 21768" d="M26.09,570.2l3.322,1.817.014-8.042-3.321-1.816Z" transform="translate(0 -490.961)" fill="#582f7f"/>
    <path id="Path_21769" data-name="Path 21769" d="M219.35,396.631l3.322,1.817.014-8.041-3.321-1.817Z" transform="translate(-176.021 -332.96)" fill="#582f7f"/>
    <path id="Path_21770" data-name="Path 21770" d="M103.19,612.141l3.322,1.817.014-8.041-3.321-1.817Z" transform="translate(-70.223 -529.139)" fill="#582f7f"/>
    <path id="Path_21771" data-name="Path 21771" d="M64.64,591.171l3.322,1.817.014-8.041-3.321-1.817Z" transform="translate(-35.111 -510.05)" fill="#582f7f"/>
    <path id="Path_21772" data-name="Path 21772" d="M180.29,654.081l3.321,1.816.015-8.041L180.3,646.04Z" transform="translate(-140.445 -567.317)" fill="#582f7f"/>
    <path id="Path_21773" data-name="Path 21773" d="M141.75,633.121l3.32,1.816.014-8.041-3.32-1.815Z" transform="translate(-105.343 -548.237)" fill="#582f7f"/>
    <path id="Path_21774" data-name="Path 21774" d="M219.18,489.448l3.322,1.816.014-8.038L219.2,481.41Z" transform="translate(-175.866 -417.454)" fill="#582f7f"/>
    <path id="Path_21775" data-name="Path 21775" d="M219.01,582.241l3.321,1.816.015-8.041-3.321-1.816Z" transform="translate(-175.712 -501.921)" fill="#582f7f"/>
    <path id="Path_21776" data-name="Path 21776" d="M218.84,675.051l3.321,1.817.015-8.042-3.322-1.816Z" transform="translate(-175.557 -586.406)" fill="#582f7f"/>
    <path id="Path_21777" data-name="Path 21777" d="M64.82,498.361l3.321,1.816.015-8.041-3.322-1.816Z" transform="translate(-35.275 -425.565)" fill="#582f7f"/>
    <path id="Path_21778" data-name="Path 21778" d="M26.44,384.6l3.321,1.816.015-8.038-3.321-1.816Z" transform="translate(-0.319 -322.009)" fill="#582f7f"/>
    <path id="Path_21779" data-name="Path 21779" d="M64.99,405.568l3.321,1.816.015-8.038-3.321-1.816Z" transform="translate(-35.43 -341.098)" fill="#582f7f"/>
    <path id="Path_21780" data-name="Path 21780" d="M180.46,561.262l3.321,1.816.015-8.041-3.321-1.817Z" transform="translate(-140.6 -482.823)" fill="#582f7f"/>
    <path id="Path_21781" data-name="Path 21781" d="M103.54,426.538l3.321,1.817.015-8.039-3.321-1.816Z" transform="translate(-70.542 -360.187)" fill="#582f7f"/>
    <path id="Path_21782" data-name="Path 21782" d="M26.27,477.382l3.321,1.816.014-8.041-3.321-1.817Z" transform="translate(-0.164 -406.467)" fill="#582f7f"/>
    <path id="Path_21783" data-name="Path 21783" d="M142.09,447.508l3.32,1.816.015-8.038-3.32-1.816Z" transform="translate(-105.653 -379.276)" fill="#582f7f"/>
    <path id="Path_21784" data-name="Path 21784" d="M141.92,540.3l3.32,1.816.015-8.041-3.32-1.816Z" transform="translate(-105.498 -463.743)" fill="#582f7f"/>
    <path id="Path_21785" data-name="Path 21785" d="M103.37,519.331l3.321,1.816.015-8.041-3.322-1.816Z" transform="translate(-70.387 -444.654)" fill="#582f7f"/>
    <path id="Path_21786" data-name="Path 21786" d="M431.86,660.788l7.406-1.047.014-8.041-7.405,1.047Z" transform="translate(-369.576 -572.469)" fill="#582f7f"/>
    <path id="Path_21787" data-name="Path 21787" d="M518.52,277.468l7.408-1.047.015-8.041-7.409,1.047Z" transform="translate(-448.506 -223.533)" fill="#582f7f"/>
    <path id="Path_21788" data-name="Path 21788" d="M518.35,370.278l7.408-1.047.015-8.041-7.409,1.047Z" transform="translate(-448.351 -308.018)" fill="#582f7f"/>
    <path id="Path_21789" data-name="Path 21789" d="M518,555.878l7.409-1.047.014-8.042-7.408,1.048Z" transform="translate(-448.032 -476.97)" fill="#582f7f"/>
    <path id="Path_21790" data-name="Path 21790" d="M517.83,648.7l7.408-1.047.015-8.041-7.408,1.047Z" transform="translate(-447.877 -561.464)" fill="#582f7f"/>
    <path id="Path_21791" data-name="Path 21791" d="M432.2,475.175l7.406-1.046.015-8.039-7.406,1.047Z" transform="translate(-369.885 -403.509)" fill="#582f7f"/>
    <path id="Path_21792" data-name="Path 21792" d="M518.17,463.095l7.409-1.047.015-8.038-7.409,1.047Z" transform="translate(-448.187 -392.512)" fill="#582f7f"/>
    <path id="Path_21793" data-name="Path 21793" d="M260.04,592.138l7.408-1.047.015-8.041-7.409,1.047Z" transform="translate(-213.082 -509.977)" fill="#582f7f"/>
    <path id="Path_21794" data-name="Path 21794" d="M346.38,394.448l7.409-1.047.014-8.041-7.408,1.047Z" transform="translate(-291.72 -330.02)" fill="#582f7f"/>
    <path id="Path_21795" data-name="Path 21795" d="M346.55,301.638l7.409-1.048.014-8.04-7.408,1.047Z" transform="translate(-291.875 -245.535)" fill="#582f7f"/>
    <path id="Path_21796" data-name="Path 21796" d="M346.21,487.265l7.408-1.047.015-8.038-7.409,1.047Z" transform="translate(-291.566 -414.514)" fill="#582f7f"/>
    <path id="Path_21797" data-name="Path 21797" d="M259.87,684.958l7.408-1.047.015-8.041-7.409,1.047Z" transform="translate(-212.927 -594.471)" fill="#582f7f"/>
    <path id="Path_21798" data-name="Path 21798" d="M432.55,289.548l7.406-1.047.014-8.041-7.405,1.047Z" transform="translate(-370.204 -234.53)" fill="#582f7f"/>
    <path id="Path_21799" data-name="Path 21799" d="M604.52,265.378l7.408-1.047.015-8.041-7.409,1.047Z" transform="translate(-526.834 -212.528)" fill="#582f7f"/>
    <path id="Path_21800" data-name="Path 21800" d="M346.04,580.048,353.448,579l.015-8.041-7.409,1.048Z" transform="translate(-291.411 -498.972)" fill="#582f7f"/>
    <path id="Path_21801" data-name="Path 21801" d="M345.86,672.868l7.409-1.047.014-8.041-7.408,1.047Z" transform="translate(-291.247 -583.466)" fill="#582f7f"/>
    <path id="Path_21802" data-name="Path 21802" d="M432.03,567.968l7.406-1.047.015-8.041-7.406,1.047Z" transform="translate(-369.73 -487.975)" fill="#582f7f"/>
    <path id="Path_21803" data-name="Path 21803" d="M518.69,184.648,526.1,183.6l.014-8.041-7.408,1.048Z" transform="translate(-448.66 -139.039)" fill="#582f7f"/>
    <path id="Path_21804" data-name="Path 21804" d="M346.72,208.818l7.409-1.047.015-8.041-7.409,1.047Z" transform="translate(-292.03 -161.041)" fill="#582f7f"/>
    <path id="Path_21805" data-name="Path 21805" d="M432.72,196.738l7.406-1.047.015-8.041-7.406,1.047Z" transform="translate(-370.359 -150.045)" fill="#582f7f"/>
    <path id="Path_21806" data-name="Path 21806" d="M690.7,152.437l-.015,8.041,7.409-1.047.015-8.041Z" transform="translate(-605.309 -117.037)" fill="#582f7f"/>
    <path id="Path_21807" data-name="Path 21807" d="M604.69,172.568l7.408-1.047.015-8.041-7.409,1.047Z" transform="translate(-526.989 -128.043)" fill="#582f7f"/>
    <path id="Path_21808" data-name="Path 21808" d="M260.21,499.346l7.409-1.048.014-8.038-7.408,1.047Z" transform="translate(-213.237 -425.51)" fill="#582f7f"/>
    <path id="Path_21809" data-name="Path 21809" d="M260.73,220.908l7.408-1.047.015-8.041-7.409,1.047Z" transform="translate(-213.71 -172.047)" fill="#582f7f"/>
    <path id="Path_21810" data-name="Path 21810" d="M260.56,313.718l7.408-1.047.015-8.041-7.409,1.048Z" transform="translate(-213.555 -256.532)" fill="#582f7f"/>
    <path id="Path_21811" data-name="Path 21811" d="M689.82,624.528l7.409-1.047.014-8.041-7.408,1.047Z" transform="translate(-604.526 -539.462)" fill="#582f7f"/>
    <path id="Path_21812" data-name="Path 21812" d="M690.51,253.3l7.409-1.048.014-8.04-7.408,1.047Z" transform="translate(-605.154 -201.531)" fill="#582f7f"/>
    <path id="Path_21813" data-name="Path 21813" d="M603.83,636.608l7.408-1.047.015-8.042-7.409,1.048Z" transform="translate(-526.206 -550.458)" fill="#582f7f"/>
    <path id="Path_21814" data-name="Path 21814" d="M604.34,358.2l7.409-1.047.014-8.041-7.408,1.047Z" transform="translate(-526.67 -297.022)" fill="#582f7f"/>
    <path id="Path_21815" data-name="Path 21815" d="M604.17,451.006l7.409-1.048.014-8.038-7.408,1.047Z" transform="translate(-526.516 -381.507)" fill="#582f7f"/>
    <path id="Path_21816" data-name="Path 21816" d="M604,543.8l7.408-1.047.015-8.041-7.409,1.047Z" transform="translate(-526.361 -465.973)" fill="#582f7f"/>
    <path id="Path_21817" data-name="Path 21817" d="M690,531.708l7.408-1.048.015-8.041-7.409,1.047Z" transform="translate(-604.69 -454.968)" fill="#582f7f"/>
    <path id="Path_21818" data-name="Path 21818" d="M690.34,346.108l7.408-1.047.015-8.041-7.408,1.047Z" transform="translate(-604.999 -286.016)" fill="#582f7f"/>
    <path id="Path_21819" data-name="Path 21819" d="M690.17,438.916l7.408-1.047.015-8.039-7.409,1.048Z" transform="translate(-604.844 -370.501)" fill="#582f7f"/>
    <path id="Path_21820" data-name="Path 21820" d="M432.38,382.368l7.405-1.047.015-8.041-7.406,1.046Z" transform="translate(-370.049 -319.024)" fill="#582f7f"/>
    <path id="Path_21821" data-name="Path 21821" d="M260.38,406.528l7.409-1.047.014-8.042-7.408,1.048Z" transform="translate(-213.391 -341.016)" fill="#582f7f"/>
    <path id="Path_21822" data-name="Path 21822" d="M192.85,114.157l3.321,1.816,7.408-1.047-3.321-1.816Z" transform="translate(-151.885 -82.191)" fill="#582f7f"/>
    <path id="Path_21823" data-name="Path 21823" d="M68.3,105.267l3.321,1.817,7.409-1.048-3.322-1.816Z" transform="translate(-38.445 -74.098)" fill="#582f7f"/>
    <path id="Path_21824" data-name="Path 21824" d="M280.67,156.857l-3.322-1.817-7.408,1.047,3.321,1.817Z" transform="translate(-222.099 -120.36)" fill="#582f7f"/>
    <path id="Path_21825" data-name="Path 21825" d="M126.479,72.977l-3.321-1.817-7.408,1.047,3.321,1.817Z" transform="translate(-81.662 -44.004)" fill="#582f7f"/>
    <path id="Path_21826" data-name="Path 21826" d="M40.48,85.066,37.158,83.25,29.75,84.3l3.321,1.816Z" transform="translate(-3.334 -55.009)" fill="#582f7f"/>
    <path id="Path_21827" data-name="Path 21827" d="M375.54,90.756l-3.321-1.816-7.409,1.047,3.322,1.816Z" transform="translate(-308.506 -60.189)" fill="#582f7f"/>
    <path id="Path_21828" data-name="Path 21828" d="M212.467,60.9l-3.321-1.816-7.406,1.047,3.321,1.816Z" transform="translate(-159.982 -33.007)" fill="#582f7f"/>
    <path id="Path_21829" data-name="Path 21829" d="M242.128,135.9l-3.32-1.816-7.408,1.047,3.32,1.816Z" transform="translate(-186.996 -101.28)" fill="#582f7f"/>
    <path id="Path_21830" data-name="Path 21830" d="M298.44,48.807l-3.321-1.817-7.409,1.048,3.321,1.816Z" transform="translate(-238.284 -22.002)" fill="#582f7f"/>
    <path id="Path_21831" data-name="Path 21831" d="M366.666,144.776l-3.321-1.816-7.405,1.047,3.321,1.816Z" transform="translate(-300.428 -109.363)" fill="#582f7f"/>
    <path id="Path_21832" data-name="Path 21832" d="M326.26,69.017l3.322,1.816,7.408-1.047-3.321-1.816Z" transform="translate(-273.395 -41.1)" fill="#582f7f"/>
    <path id="Path_21833" data-name="Path 21833" d="M328.116,123.806l-3.32-1.816-7.406,1.047,3.321,1.816Z" transform="translate(-265.316 -90.274)" fill="#582f7f"/>
    <path id="Path_21834" data-name="Path 21834" d="M240.29,81.1l3.321,1.816,7.406-1.046L247.7,80.05Z" transform="translate(-195.093 -52.096)" fill="#582f7f"/>
    <path id="Path_21835" data-name="Path 21835" d="M278.84,102.067l3.322,1.816,7.405-1.046-3.321-1.817Z" transform="translate(-230.205 -71.185)" fill="#582f7f"/>
    <path id="Path_21836" data-name="Path 21836" d="M154.3,93.178l3.321,1.816,7.408-1.047-3.321-1.817Z" transform="translate(-116.774 -63.093)" fill="#582f7f"/>
    <path id="Path_21837" data-name="Path 21837" d="M617.221,109.564l7.409-1.048-3.322-1.816-7.408,1.047Z" transform="translate(-535.378 -76.356)" fill="#582f7f"/>
    <path id="Path_21838" data-name="Path 21838" d="M659.858,127.67l-7.408,1.047,3.321,1.817,7.409-1.047Z" transform="translate(-570.489 -95.445)" fill="#582f7f"/>
    <path id="Path_21839" data-name="Path 21839" d="M117.58,127.006l-3.321-1.816-7.409,1.047,3.321,1.817Z" transform="translate(-73.556 -93.187)" fill="#582f7f"/>
    <path id="Path_21840" data-name="Path 21840" d="M540.131,67.624l7.409-1.047-3.322-1.817-7.408,1.048Z" transform="translate(-465.164 -38.178)" fill="#582f7f"/>
    <path id="Path_21841" data-name="Path 21841" d="M573.859,139.76l-7.409,1.047,3.321,1.817,7.409-1.048Z" transform="translate(-492.16 -106.45)" fill="#582f7f"/>
    <path id="Path_21842" data-name="Path 21842" d="M470.439,24.637l-3.321-1.817-7.408,1.047,3.321,1.817Z" transform="translate(-394.941)" fill="#582f7f"/>
    <path id="Path_21843" data-name="Path 21843" d="M578.68,88.6l7.408-1.048-3.32-1.816-7.408,1.047Z" transform="translate(-500.275 -57.276)" fill="#582f7f"/>
    <path id="Path_21844" data-name="Path 21844" d="M194.67,168.946l-3.321-1.816-7.409,1.047,3.321,1.816Z" transform="translate(-143.77 -131.365)" fill="#582f7f"/>
    <path id="Path_21845" data-name="Path 21845" d="M229.9,188.1l-7.409,1.047,3.322,1.817,7.408-1.048Z" transform="translate(-178.881 -150.454)" fill="#582f7f"/>
    <path id="Path_21846" data-name="Path 21846" d="M156.129,147.976l-3.32-1.816-7.409,1.048,3.32,1.816Z" transform="translate(-108.668 -112.276)" fill="#582f7f"/>
    <path id="Path_21847" data-name="Path 21847" d="M401.9,163.93l-7.405,1.047,3.321,1.816,7.406-1.046Z" transform="translate(-335.539 -128.452)" fill="#582f7f"/>
    <path id="Path_21848" data-name="Path 21848" d="M487.859,151.84l-7.409,1.048,3.322,1.816,7.408-1.047Z" transform="translate(-413.831 -117.447)" fill="#582f7f"/>
    <path id="Path_21849" data-name="Path 21849" d="M315.9,176.01l-7.408,1.048,3.321,1.816,7.409-1.047Z" transform="translate(-257.21 -139.449)" fill="#582f7f"/>
    <path id="Path_21850" data-name="Path 21850" d="M501.581,46.654l7.408-1.047-3.321-1.817-7.408,1.048Z" transform="translate(-430.053 -19.089)" fill="#582f7f"/>
    <path id="Path_21851" data-name="Path 21851" d="M412.26,56.927l3.321,1.817L422.99,57.7l-3.321-1.816Z" transform="translate(-351.724 -30.095)" fill="#582f7f"/>
    <path id="Path_21852" data-name="Path 21852" d="M414.1,111.726l-3.32-1.816-7.408,1.047,3.32,1.816Z" transform="translate(-343.627 -79.278)" fill="#582f7f"/>
    <path id="Path_21853" data-name="Path 21853" d="M384.44,36.726l-3.322-1.816-7.408,1.047,3.321,1.816Z" transform="translate(-316.612 -11.006)" fill="#582f7f"/>
    <path id="Path_21854" data-name="Path 21854" d="M452.63,132.687l-3.321-1.817-7.409,1.048,3.322,1.816Z" transform="translate(-378.72 -98.358)" fill="#582f7f"/>
    <path id="Path_21855" data-name="Path 21855" d="M500.089,99.636l-3.32-1.816-7.409,1.047,3.32,1.816Z" transform="translate(-421.947 -68.272)" fill="#582f7f"/>
    <path id="Path_21856" data-name="Path 21856" d="M450.81,77.9l3.321,1.817,7.409-1.048-3.321-1.816Z" transform="translate(-386.835 -49.183)" fill="#582f7f"/>
    <path id="Path_21857" data-name="Path 21857" d="M538.63,120.606l-3.321-1.816-7.409,1.047,3.321,1.816Z" transform="translate(-457.049 -87.361)" fill="#582f7f"/>
  </g>
</svg>
