<svg xmlns="http://www.w3.org/2000/svg" width="21.69" height="21.826" viewBox="0 0 21.69 21.826">
  <g id="Shape-73" transform="translate(-26.09 -22.82)">
    <path id="Path_21750" data-name="Path 21750" d="M219.53,298.373l1.08.586,0-2.594-1.08-.586Z" transform="translate(-187.829 -265.063)" fill="#582f7f"/>
    <path id="Path_21751" data-name="Path 21751" d="M26.78,193.523l1.08.586,0-2.594-1.08-.586Z" transform="translate(-0.67 -163.246)" fill="#582f7f"/>
    <path id="Path_21752" data-name="Path 21752" d="M142.26,349.253l1.08.586,0-2.594-1.08-.586Z" transform="translate(-112.801 -314.47)" fill="#582f7f"/>
    <path id="Path_21753" data-name="Path 21753" d="M180.8,370.214l1.08.586,0-2.594-1.08-.586Z" transform="translate(-150.223 -334.824)" fill="#582f7f"/>
    <path id="Path_21754" data-name="Path 21754" d="M26.96,100.7l1.08.586,0-2.594-1.08-.586Z" transform="translate(-0.845 -73.112)" fill="#582f7f"/>
    <path id="Path_21755" data-name="Path 21755" d="M103.71,328.284l1.08.586,0-2.594-1.08-.586Z" transform="translate(-75.369 -294.107)" fill="#582f7f"/>
    <path id="Path_21756" data-name="Path 21756" d="M26.61,286.334l1.08.586,0-2.594-1.08-.586Z" transform="translate(-0.505 -253.371)" fill="#582f7f"/>
    <path id="Path_21757" data-name="Path 21757" d="M65.16,307.3l1.08.586,0-2.594-1.08-.586Z" transform="translate(-37.937 -273.734)" fill="#582f7f"/>
    <path id="Path_21758" data-name="Path 21758" d="M65.51,121.674l1.08.586,0-2.594-1.08-.586Z" transform="translate(-38.277 -93.475)" fill="#582f7f"/>
    <path id="Path_21759" data-name="Path 21759" d="M142.44,256.434l1.08.586,0-2.594-1.08-.586Z" transform="translate(-112.975 -224.336)" fill="#582f7f"/>
    <path id="Path_21760" data-name="Path 21760" d="M180.98,277.4l1.08.586,0-2.594-1.08-.586Z" transform="translate(-150.397 -244.699)" fill="#582f7f"/>
    <path id="Path_21761" data-name="Path 21761" d="M103.89,235.464l1.08.586,0-2.594-1.08-.586Z" transform="translate(-75.543 -203.973)" fill="#582f7f"/>
    <path id="Path_21762" data-name="Path 21762" d="M104.06,142.644l1.08.586,0-2.594-1.08-.586Z" transform="translate(-75.709 -113.838)" fill="#582f7f"/>
    <path id="Path_21763" data-name="Path 21763" d="M65.33,214.494l1.08.586,0-2.594-1.08-.586Z" transform="translate(-38.102 -183.609)" fill="#582f7f"/>
    <path id="Path_21764" data-name="Path 21764" d="M180.63,463.033l1.08.586,0-2.593-1.08-.586Z" transform="translate(-150.058 -424.958)" fill="#582f7f"/>
    <path id="Path_21765" data-name="Path 21765" d="M219.7,205.554l1.08.586,0-2.594-1.08-.586Z" transform="translate(-187.994 -174.928)" fill="#582f7f"/>
    <path id="Path_21766" data-name="Path 21766" d="M142.61,163.613l1.08.586,0-2.594-1.08-.586Z" transform="translate(-113.14 -134.201)" fill="#582f7f"/>
    <path id="Path_21767" data-name="Path 21767" d="M181.15,184.584l1.08.586,0-2.594-1.08-.586Z" transform="translate(-150.563 -154.565)" fill="#582f7f"/>
    <path id="Path_21768" data-name="Path 21768" d="M26.09,564.753l1.08.586,0-2.594-1.08-.586Z" transform="translate(0 -523.735)" fill="#582f7f"/>
    <path id="Path_21769" data-name="Path 21769" d="M219.35,391.183l1.08.586,0-2.593-1.08-.586Z" transform="translate(-187.655 -355.187)" fill="#582f7f"/>
    <path id="Path_21770" data-name="Path 21770" d="M103.19,606.693l1.08.586,0-2.594-1.08-.586Z" transform="translate(-74.864 -564.462)" fill="#582f7f"/>
    <path id="Path_21771" data-name="Path 21771" d="M64.64,585.724l1.08.586,0-2.593-1.08-.586Z" transform="translate(-37.432 -544.099)" fill="#582f7f"/>
    <path id="Path_21772" data-name="Path 21772" d="M180.29,648.633l1.08.586,0-2.594-1.08-.586Z" transform="translate(-149.727 -605.188)" fill="#582f7f"/>
    <path id="Path_21773" data-name="Path 21773" d="M141.75,627.673l1.08.586,0-2.594-1.08-.586Z" transform="translate(-112.305 -584.835)" fill="#582f7f"/>
    <path id="Path_21774" data-name="Path 21774" d="M219.18,484l1.08.586,0-2.593-1.08-.586Z" transform="translate(-187.489 -445.322)" fill="#582f7f"/>
    <path id="Path_21775" data-name="Path 21775" d="M219.01,576.793l1.08.586,0-2.594-1.08-.586Z" transform="translate(-187.324 -535.427)" fill="#582f7f"/>
    <path id="Path_21776" data-name="Path 21776" d="M218.84,669.6l1.08.586,0-2.594-1.08-.586Z" transform="translate(-187.159 -625.552)" fill="#582f7f"/>
    <path id="Path_21777" data-name="Path 21777" d="M64.82,492.913l1.08.586,0-2.594-1.08-.586Z" transform="translate(-37.607 -453.974)" fill="#582f7f"/>
    <path id="Path_21778" data-name="Path 21778" d="M26.44,379.153l1.08.586,0-2.593-1.08-.586Z" transform="translate(-0.34 -343.505)" fill="#582f7f"/>
    <path id="Path_21779" data-name="Path 21779" d="M64.99,400.123l1.08.586,0-2.593-1.08-.586Z" transform="translate(-37.772 -363.869)" fill="#582f7f"/>
    <path id="Path_21780" data-name="Path 21780" d="M180.46,555.814l1.08.586,0-2.594-1.08-.586Z" transform="translate(-149.893 -515.054)" fill="#582f7f"/>
    <path id="Path_21781" data-name="Path 21781" d="M103.54,421.093l1.08.586,0-2.593-1.08-.586Z" transform="translate(-75.204 -384.232)" fill="#582f7f"/>
    <path id="Path_21782" data-name="Path 21782" d="M26.27,471.934l1.08.586,0-2.593-1.08-.586Z" transform="translate(-0.175 -433.601)" fill="#582f7f"/>
    <path id="Path_21783" data-name="Path 21783" d="M142.09,442.063l1.08.586,0-2.593-1.08-.586Z" transform="translate(-112.635 -404.595)" fill="#582f7f"/>
    <path id="Path_21784" data-name="Path 21784" d="M141.92,534.854l1.08.586,0-2.593-1.08-.586Z" transform="translate(-112.47 -494.7)" fill="#582f7f"/>
    <path id="Path_21785" data-name="Path 21785" d="M103.37,513.883l1.08.586,0-2.594-1.08-.586Z" transform="translate(-75.039 -474.337)" fill="#582f7f"/>
    <path id="Path_21786" data-name="Path 21786" d="M431.86,654.631l2.408-.338,0-2.594-2.408.338Z" transform="translate(-394.001 -610.685)" fill="#582f7f"/>
    <path id="Path_21787" data-name="Path 21787" d="M518.52,271.311l2.409-.338,0-2.594-2.409.338Z" transform="translate(-478.147 -238.455)" fill="#582f7f"/>
    <path id="Path_21788" data-name="Path 21788" d="M518.35,364.121l2.409-.338,0-2.594-2.409.338Z" transform="translate(-477.982 -328.58)" fill="#582f7f"/>
    <path id="Path_21789" data-name="Path 21789" d="M518,549.721l2.409-.338,0-2.594-2.409.338Z" transform="translate(-477.642 -508.81)" fill="#582f7f"/>
    <path id="Path_21790" data-name="Path 21790" d="M517.83,642.541l2.409-.338,0-2.594-2.409.338Z" transform="translate(-477.477 -598.945)" fill="#582f7f"/>
    <path id="Path_21791" data-name="Path 21791" d="M432.2,469.02l2.408-.337,0-2.593-2.408.338Z" transform="translate(-394.331 -430.445)" fill="#582f7f"/>
    <path id="Path_21792" data-name="Path 21792" d="M518.17,456.94l2.409-.338,0-2.593-2.409.338Z" transform="translate(-477.807 -418.714)" fill="#582f7f"/>
    <path id="Path_21793" data-name="Path 21793" d="M260.04,585.981l2.409-.338,0-2.594-2.409.338Z" transform="translate(-227.164 -544.021)" fill="#582f7f"/>
    <path id="Path_21794" data-name="Path 21794" d="M346.38,388.291l2.409-.338,0-2.594-2.409.338Z" transform="translate(-311 -352.051)" fill="#582f7f"/>
    <path id="Path_21795" data-name="Path 21795" d="M346.55,295.481l2.409-.338,0-2.593-2.409.338Z" transform="translate(-311.165 -261.926)" fill="#582f7f"/>
    <path id="Path_21796" data-name="Path 21796" d="M346.21,481.11l2.409-.338,0-2.593-2.409.338Z" transform="translate(-310.835 -442.185)" fill="#582f7f"/>
    <path id="Path_21797" data-name="Path 21797" d="M259.87,678.8l2.409-.338,0-2.594-2.409.338Z" transform="translate(-226.999 -634.155)" fill="#582f7f"/>
    <path id="Path_21798" data-name="Path 21798" d="M432.55,283.391l2.408-.338,0-2.594-2.408.338Z" transform="translate(-394.671 -250.186)" fill="#582f7f"/>
    <path id="Path_21799" data-name="Path 21799" d="M604.52,259.221l2.409-.338,0-2.594-2.409.338Z" transform="translate(-561.653 -226.715)" fill="#582f7f"/>
    <path id="Path_21800" data-name="Path 21800" d="M346.04,573.891l2.409-.338,0-2.594-2.409.338Z" transform="translate(-310.67 -532.281)" fill="#582f7f"/>
    <path id="Path_21801" data-name="Path 21801" d="M345.86,666.711l2.409-.338,0-2.594-2.409.338Z" transform="translate(-310.495 -622.415)" fill="#582f7f"/>
    <path id="Path_21802" data-name="Path 21802" d="M432.03,561.811l2.408-.338,0-2.594-2.408.338Z" transform="translate(-394.166 -520.55)" fill="#582f7f"/>
    <path id="Path_21803" data-name="Path 21803" d="M518.69,178.491l2.409-.338,0-2.594-2.409.338Z" transform="translate(-478.312 -148.321)" fill="#582f7f"/>
    <path id="Path_21804" data-name="Path 21804" d="M346.72,202.661l2.409-.338,0-2.594-2.409.338Z" transform="translate(-311.33 -171.791)" fill="#582f7f"/>
    <path id="Path_21805" data-name="Path 21805" d="M432.72,190.581l2.408-.338,0-2.594-2.408.338Z" transform="translate(-394.836 -160.061)" fill="#582f7f"/>
    <path id="Path_21806" data-name="Path 21806" d="M690.685,151.728l0,2.594,2.409-.338,0-2.594Z" transform="translate(-645.314 -124.85)" fill="#582f7f"/>
    <path id="Path_21807" data-name="Path 21807" d="M604.69,166.411l2.409-.338,0-2.594-2.409.338Z" transform="translate(-561.818 -136.59)" fill="#582f7f"/>
    <path id="Path_21808" data-name="Path 21808" d="M260.21,493.191l2.409-.338,0-2.593-2.409.338Z" transform="translate(-227.329 -453.916)" fill="#582f7f"/>
    <path id="Path_21809" data-name="Path 21809" d="M260.73,214.751l2.409-.338,0-2.594-2.409.338Z" transform="translate(-227.834 -183.532)" fill="#582f7f"/>
    <path id="Path_21810" data-name="Path 21810" d="M260.56,307.561l2.409-.338,0-2.594-2.409.338Z" transform="translate(-227.669 -273.656)" fill="#582f7f"/>
    <path id="Path_21811" data-name="Path 21811" d="M689.82,618.371l2.409-.338,0-2.594-2.409.338Z" transform="translate(-644.479 -575.474)" fill="#582f7f"/>
    <path id="Path_21812" data-name="Path 21812" d="M690.51,247.141l2.409-.338,0-2.593-2.409.338Z" transform="translate(-645.149 -214.985)" fill="#582f7f"/>
    <path id="Path_21813" data-name="Path 21813" d="M603.83,630.451l2.409-.338,0-2.594-2.409.338Z" transform="translate(-560.983 -587.204)" fill="#582f7f"/>
    <path id="Path_21814" data-name="Path 21814" d="M604.34,352.041l2.409-.338,0-2.594-2.409.338Z" transform="translate(-561.478 -316.85)" fill="#582f7f"/>
    <path id="Path_21815" data-name="Path 21815" d="M604.17,444.851l2.409-.338,0-2.593-2.409.338Z" transform="translate(-561.313 -406.974)" fill="#582f7f"/>
    <path id="Path_21816" data-name="Path 21816" d="M604,537.641l2.409-.338,0-2.594-2.409.338Z" transform="translate(-561.148 -497.08)" fill="#582f7f"/>
    <path id="Path_21817" data-name="Path 21817" d="M690,525.551l2.409-.338.005-2.594-2.409.338Z" transform="translate(-644.654 -485.339)" fill="#582f7f"/>
    <path id="Path_21818" data-name="Path 21818" d="M690.34,339.951l2.409-.338,0-2.594-2.409.338Z" transform="translate(-644.984 -305.109)" fill="#582f7f"/>
    <path id="Path_21819" data-name="Path 21819" d="M690.17,432.761l2.409-.338.005-2.593-2.409.338Z" transform="translate(-644.819 -395.234)" fill="#582f7f"/>
    <path id="Path_21820" data-name="Path 21820" d="M432.38,376.211l2.408-.338.005-2.594-2.408.337Z" transform="translate(-394.506 -340.32)" fill="#582f7f"/>
    <path id="Path_21821" data-name="Path 21821" d="M260.38,400.371l2.409-.338,0-2.594-2.409.338Z" transform="translate(-227.495 -363.781)" fill="#582f7f"/>
    <path id="Path_21822" data-name="Path 21822" d="M192.85,113.448l1.08.586,2.409-.338-1.08-.586Z" transform="translate(-161.923 -87.678)" fill="#582f7f"/>
    <path id="Path_21823" data-name="Path 21823" d="M68.3,104.558l1.08.586,2.409-.338-1.08-.586Z" transform="translate(-40.986 -79.045)" fill="#582f7f"/>
    <path id="Path_21824" data-name="Path 21824" d="M273.429,155.626l-1.08-.586-2.409.338,1.08.586Z" transform="translate(-236.777 -128.395)" fill="#582f7f"/>
    <path id="Path_21825" data-name="Path 21825" d="M119.239,71.746l-1.08-.586-2.409.338,1.08.586Z" transform="translate(-87.059 -46.941)" fill="#582f7f"/>
    <path id="Path_21826" data-name="Path 21826" d="M33.239,83.836l-1.08-.586-2.409.338,1.08.586Z" transform="translate(-3.554 -58.682)" fill="#582f7f"/>
    <path id="Path_21827" data-name="Path 21827" d="M368.3,89.526l-1.08-.586-2.409.338,1.08.586Z" transform="translate(-328.896 -64.207)" fill="#582f7f"/>
    <path id="Path_21828" data-name="Path 21828" d="M205.228,59.666l-1.08-.586-2.408.338,1.08.586Z" transform="translate(-170.555 -35.211)" fill="#582f7f"/>
    <path id="Path_21829" data-name="Path 21829" d="M234.888,134.666l-1.08-.586-2.409.338,1.08.586Z" transform="translate(-199.355 -108.041)" fill="#582f7f"/>
    <path id="Path_21830" data-name="Path 21830" d="M291.2,47.576l-1.08-.586-2.409.338,1.08.586Z" transform="translate(-254.032 -23.471)" fill="#582f7f"/>
    <path id="Path_21831" data-name="Path 21831" d="M359.428,143.546l-1.08-.586-2.408.338,1.08.586Z" transform="translate(-320.283 -116.664)" fill="#582f7f"/>
    <path id="Path_21832" data-name="Path 21832" d="M326.26,68.308l1.08.586,2.409-.338-1.08-.586Z" transform="translate(-291.464 -43.844)" fill="#582f7f"/>
    <path id="Path_21833" data-name="Path 21833" d="M320.878,122.576l-1.08-.586-2.408.338,1.08.586Z" transform="translate(-282.851 -96.301)" fill="#582f7f"/>
    <path id="Path_21834" data-name="Path 21834" d="M240.29,80.388l1.08.586,2.408-.337-1.08-.586Z" transform="translate(-207.987 -55.574)" fill="#582f7f"/>
    <path id="Path_21835" data-name="Path 21835" d="M278.84,101.358l1.08.586,2.408-.337-1.08-.586Z" transform="translate(-245.419 -75.937)" fill="#582f7f"/>
    <path id="Path_21836" data-name="Path 21836" d="M154.3,92.468l1.08.586,2.409-.338-1.08-.586Z" transform="translate(-124.491 -67.305)" fill="#582f7f"/>
    <path id="Path_21837" data-name="Path 21837" d="M614.98,107.624l2.409-.338-1.08-.586-2.409.338Z" transform="translate(-570.761 -81.453)" fill="#582f7f"/>
    <path id="Path_21838" data-name="Path 21838" d="M654.859,127.67l-2.409.338,1.08.586,2.409-.338Z" transform="translate(-608.193 -101.816)" fill="#582f7f"/>
    <path id="Path_21839" data-name="Path 21839" d="M110.339,125.776l-1.08-.586-2.409.338,1.08.586Z" transform="translate(-78.418 -99.408)" fill="#582f7f"/>
    <path id="Path_21840" data-name="Path 21840" d="M537.89,65.684l2.409-.338-1.08-.586-2.409.338Z" transform="translate(-495.907 -40.727)" fill="#582f7f"/>
    <path id="Path_21841" data-name="Path 21841" d="M568.859,139.76l-2.409.338,1.08.586,2.409-.338Z" transform="translate(-524.687 -113.557)" fill="#582f7f"/>
    <path id="Path_21842" data-name="Path 21842" d="M463.2,23.406l-1.08-.586-2.409.338,1.08.586Z" transform="translate(-421.043 0)" fill="#582f7f"/>
    <path id="Path_21843" data-name="Path 21843" d="M576.44,86.664l2.409-.338-1.08-.586-2.409.338Z" transform="translate(-533.339 -61.1)" fill="#582f7f"/>
    <path id="Path_21844" data-name="Path 21844" d="M187.429,167.716l-1.08-.586-2.409.338,1.08.586Z" transform="translate(-153.272 -140.135)" fill="#582f7f"/>
    <path id="Path_21845" data-name="Path 21845" d="M224.9,188.1l-2.409.338,1.08.586,2.409-.338Z" transform="translate(-190.703 -160.498)" fill="#582f7f"/>
    <path id="Path_21846" data-name="Path 21846" d="M148.889,146.746l-1.08-.586-2.409.338,1.08.586Z" transform="translate(-115.849 -119.771)" fill="#582f7f"/>
    <path id="Path_21847" data-name="Path 21847" d="M396.9,163.93l-2.408.338,1.08.586,2.408-.337Z" transform="translate(-357.715 -137.027)" fill="#582f7f"/>
    <path id="Path_21848" data-name="Path 21848" d="M482.859,151.84l-2.409.338,1.08.586,2.409-.338Z" transform="translate(-441.181 -125.287)" fill="#582f7f"/>
    <path id="Path_21849" data-name="Path 21849" d="M310.9,176.01l-2.409.338,1.08.586,2.409-.338Z" transform="translate(-274.209 -148.758)" fill="#582f7f"/>
    <path id="Path_21850" data-name="Path 21850" d="M499.34,44.714l2.409-.338-1.08-.586-2.409.338Z" transform="translate(-458.475 -20.363)" fill="#582f7f"/>
    <path id="Path_21851" data-name="Path 21851" d="M412.26,56.218l1.08.586,2.409-.338-1.08-.586Z" transform="translate(-374.969 -32.103)" fill="#582f7f"/>
    <path id="Path_21852" data-name="Path 21852" d="M406.858,110.5l-1.08-.586-2.409.338,1.08.586Z" transform="translate(-366.337 -84.57)" fill="#582f7f"/>
    <path id="Path_21853" data-name="Path 21853" d="M377.2,35.5l-1.08-.586-2.409.338,1.08.586Z" transform="translate(-337.537 -11.74)" fill="#582f7f"/>
    <path id="Path_21854" data-name="Path 21854" d="M445.389,131.456l-1.08-.586-2.409.338,1.08.586Z" transform="translate(-403.75 -104.924)" fill="#582f7f"/>
    <path id="Path_21855" data-name="Path 21855" d="M492.849,98.406l-1.08-.586-2.409.338,1.08.586Z" transform="translate(-449.833 -72.83)" fill="#582f7f"/>
    <path id="Path_21856" data-name="Path 21856" d="M450.81,77.188l1.08.586,2.409-.338-1.08-.586Z" transform="translate(-412.401 -52.467)" fill="#582f7f"/>
    <path id="Path_21857" data-name="Path 21857" d="M531.389,119.376l-1.08-.586-2.409.338,1.08.586Z" transform="translate(-487.255 -93.193)" fill="#582f7f"/>
  </g>
</svg>
